<svg width="759" height="160" viewBox="0 0 759 160" fill="none" xmlns="http://www.w3.org/2000/svg">
<path d="M98.1836 128.62H758.609" stroke="#E0E0E0" stroke-width="0.659417"/>
<path d="M98.5352 128.395L98.5352 0.0869141" stroke="#E0E0E0" stroke-width="0.659417"/>
<path d="M10.8194 71.1073C10.8194 72.1812 10.6255 73.1092 10.2377 73.8914C9.84992 74.6736 9.31796 75.2768 8.64182 75.7011C7.96568 76.1253 7.19343 76.3374 6.32506 76.3374C5.45669 76.3374 4.68443 76.1253 4.0083 75.7011C3.33216 75.2768 2.8002 74.6736 2.41242 73.8914C2.02463 73.1092 1.83074 72.1812 1.83074 71.1073C1.83074 70.0335 2.02463 69.1054 2.41242 68.3232C2.8002 67.541 3.33216 66.9378 4.0083 66.5136C4.68443 66.0893 5.45669 65.8772 6.32506 65.8772C7.19343 65.8772 7.96568 66.0893 8.64182 66.5136C9.31796 66.9378 9.84992 67.541 10.2377 68.3232C10.6255 69.1054 10.8194 70.0335 10.8194 71.1073ZM9.6262 71.1073C9.6262 70.2257 9.47871 69.4816 9.18372 68.8751C8.89206 68.2686 8.49599 67.8095 7.99551 67.498C7.49835 67.1864 6.94154 67.0306 6.32506 67.0306C5.70858 67.0306 5.15011 67.1864 4.64963 67.498C4.15247 67.8095 3.7564 68.2686 3.46142 68.8751C3.16976 69.4816 3.02392 70.2257 3.02392 71.1073C3.02392 71.989 3.16976 72.733 3.46142 73.3396C3.7564 73.9461 4.15247 74.4052 4.64963 74.7167C5.15011 75.0283 5.70858 75.184 6.32506 75.184C6.94154 75.184 7.49835 75.0283 7.99551 74.7167C8.49599 74.4052 8.89206 73.9461 9.18372 73.3396C9.47871 72.733 9.6262 71.989 9.6262 71.1073ZM12.7334 79.0619V68.5619H13.867V69.7749H14.0062C14.0923 69.6424 14.2117 69.4733 14.3641 69.2678C14.5199 69.059 14.742 68.8734 15.0303 68.711C15.322 68.5453 15.7164 68.4624 16.2136 68.4624C16.8565 68.4624 17.4233 68.6232 17.9138 68.9447C18.4044 69.2662 18.7872 69.7219 19.0623 70.3119C19.3374 70.9018 19.4749 71.5979 19.4749 72.3999C19.4749 73.2087 19.3374 73.9097 19.0623 74.5029C18.7872 75.0929 18.406 75.5503 17.9188 75.8751C17.4316 76.1966 16.8698 76.3573 16.2334 76.3573C15.7429 76.3573 15.3502 76.2761 15.0552 76.1137C14.7602 75.948 14.5332 75.7607 14.3741 75.5519C14.215 75.3398 14.0923 75.1642 14.0062 75.0249H13.9067V79.0619H12.7334ZM13.8868 72.3801C13.8868 72.9568 13.9714 73.4655 14.1404 73.9063C14.3094 74.3438 14.5564 74.6869 14.8812 74.9355C15.206 75.1807 15.6037 75.3034 16.0743 75.3034C16.5649 75.3034 16.9742 75.1741 17.3023 74.9156C17.6338 74.6537 17.8824 74.3024 18.0481 73.8616C18.2171 73.4175 18.3016 72.9236 18.3016 72.3801C18.3016 71.8431 18.2188 71.3592 18.053 70.9284C17.8906 70.4942 17.6437 70.1511 17.3123 69.8992C16.9842 69.644 16.5715 69.5164 16.0743 69.5164C15.5971 69.5164 15.196 69.6374 14.8712 69.8794C14.5464 70.118 14.3011 70.4527 14.1354 70.8836C13.9697 71.3112 13.8868 71.81 13.8868 72.3801ZM24.4664 76.3573C23.7306 76.3573 23.0959 76.1949 22.5623 75.8701C22.032 75.542 21.6226 75.0846 21.3343 74.498C21.0493 73.908 20.9067 73.2219 20.9067 72.4397C20.9067 71.6575 21.0493 70.9681 21.3343 70.3715C21.6226 69.7716 22.0237 69.3043 22.5374 68.9695C23.0545 68.6315 23.6577 68.4624 24.3471 68.4624C24.7448 68.4624 25.1376 68.5287 25.5253 68.6613C25.9131 68.7939 26.2661 69.0093 26.5843 69.3076C26.9025 69.6026 27.156 69.9937 27.3449 70.4809C27.5339 70.9681 27.6283 71.568 27.6283 72.2806V72.7778H21.742V71.7636H26.4351C26.4351 71.3327 26.349 70.9482 26.1766 70.6102C26.0076 70.2721 25.7656 70.0053 25.4508 69.8097C25.1392 69.6142 24.7713 69.5164 24.3471 69.5164C23.8797 69.5164 23.4754 69.6324 23.134 69.8644C22.7959 70.0931 22.5358 70.3914 22.3535 70.7593C22.1712 71.1272 22.08 71.5216 22.08 71.9426V72.6187C22.08 73.1954 22.1795 73.6843 22.3783 74.0853C22.5805 74.483 22.8606 74.7863 23.2185 74.9951C23.5765 75.2006 23.9924 75.3034 24.4664 75.3034C24.7746 75.3034 25.053 75.2603 25.3016 75.1741C25.5535 75.0846 25.7706 74.952 25.9529 74.7764C26.1352 74.5974 26.2761 74.3753 26.3755 74.1102L27.509 74.4284C27.3897 74.8128 27.1892 75.1509 26.9074 75.4426C26.6257 75.7309 26.2777 75.9563 25.8634 76.1187C25.4491 76.2778 24.9834 76.3573 24.4664 76.3573ZM29.4131 76.1982V68.5619H30.5467V69.7153H30.6262C30.7654 69.3374 31.0173 69.0309 31.3819 68.7955C31.7465 68.5602 32.1574 68.4426 32.6148 68.4426C32.701 68.4426 32.8087 68.4442 32.938 68.4475C33.0672 68.4508 33.165 68.4558 33.2313 68.4624V69.6556C33.1915 69.6457 33.1004 69.6308 32.9579 69.6109C32.8187 69.5877 32.6712 69.5761 32.5154 69.5761C32.1442 69.5761 31.8127 69.654 31.5211 69.8097C31.2327 69.9622 31.004 70.1743 30.835 70.4461C30.6693 70.7146 30.5864 71.0212 30.5864 71.3659V76.1982H29.4131ZM36.8693 76.3772C36.3854 76.3772 35.9462 76.2861 35.5518 76.1038C35.1574 75.9182 34.8442 75.6514 34.6122 75.3034C34.3802 74.952 34.2642 74.5278 34.2642 74.0306C34.2642 73.5931 34.3503 73.2385 34.5227 72.9667C34.695 72.6916 34.9254 72.4762 35.2137 72.3204C35.5021 72.1646 35.8203 72.0486 36.1683 71.9724C36.5196 71.8928 36.8726 71.8299 37.2272 71.7835C37.6912 71.7238 38.0674 71.6791 38.3558 71.6492C38.6474 71.6161 38.8596 71.5614 38.9921 71.4852C39.128 71.4089 39.196 71.2764 39.196 71.0874V71.0477C39.196 70.5571 39.0617 70.176 38.7933 69.9042C38.5281 69.6324 38.1254 69.4965 37.5852 69.4965C37.025 69.4965 36.5859 69.6192 36.2677 69.8644C35.9495 70.1097 35.7258 70.3715 35.5965 70.6499L34.4829 70.2522C34.6818 69.7882 34.9469 69.4269 35.2784 69.1684C35.6131 68.9066 35.9777 68.7243 36.3721 68.6215C36.7698 68.5155 37.1609 68.4624 37.5454 68.4624C37.7907 68.4624 38.0724 68.4923 38.3906 68.5519C38.7121 68.6083 39.022 68.7259 39.3203 68.9049C39.6219 69.0839 39.8721 69.354 40.071 69.7153C40.2698 70.0766 40.3693 70.5605 40.3693 71.167V76.1982H39.196V75.1642H39.1363C39.0568 75.3299 38.9242 75.5072 38.7386 75.6961C38.553 75.885 38.3061 76.0458 37.9978 76.1784C37.6896 76.3109 37.3134 76.3772 36.8693 76.3772ZM37.0482 75.3232C37.5123 75.3232 37.9034 75.2321 38.2215 75.0498C38.543 74.8675 38.785 74.6322 38.9474 74.3438C39.1131 74.0555 39.196 73.7522 39.196 73.434V72.3602C39.1463 72.4198 39.0369 72.4745 38.8679 72.5242C38.7021 72.5706 38.5099 72.6121 38.2911 72.6485C38.0757 72.6817 37.8652 72.7115 37.6598 72.738C37.4576 72.7612 37.2935 72.7811 37.1676 72.7977C36.8626 72.8374 36.5776 72.9021 36.3125 72.9916C36.0506 73.0777 35.8385 73.2087 35.6761 73.3843C35.517 73.5567 35.4375 73.792 35.4375 74.0903C35.4375 74.498 35.5883 74.8062 35.8899 75.015C36.1948 75.2205 36.5809 75.3232 37.0482 75.3232ZM45.8318 68.5619V69.5562H41.8744V68.5619H45.8318ZM43.0278 66.7323H44.2011V74.0107C44.2011 74.3422 44.2492 74.5908 44.3453 74.7565C44.4447 74.9189 44.5707 75.0283 44.7231 75.0846C44.8789 75.1376 45.043 75.1642 45.2153 75.1642C45.3446 75.1642 45.4507 75.1575 45.5335 75.1443C45.6164 75.1277 45.6827 75.1144 45.7324 75.1045L45.971 76.1585C45.8915 76.1883 45.7804 76.2181 45.6379 76.248C45.4954 76.2811 45.3148 76.2977 45.096 76.2977C44.7646 76.2977 44.4398 76.2264 44.1216 76.0839C43.8067 75.9414 43.5449 75.7243 43.3361 75.4326C43.1306 75.141 43.0278 74.7731 43.0278 74.3289V66.7323ZM47.5967 76.1982V68.5619H48.77V76.1982H47.5967ZM48.1933 67.2892C47.9646 67.2892 47.7674 67.2113 47.6017 67.0555C47.4393 66.8997 47.3581 66.7124 47.3581 66.4937C47.3581 66.2749 47.4393 66.0877 47.6017 65.9319C47.7674 65.7761 47.9646 65.6982 48.1933 65.6982C48.422 65.6982 48.6176 65.7761 48.78 65.9319C48.9457 66.0877 49.0285 66.2749 49.0285 66.4937C49.0285 66.7124 48.9457 66.8997 48.78 67.0555C48.6176 67.2113 48.422 67.2892 48.1933 67.2892ZM54.0213 76.3573C53.3319 76.3573 52.727 76.1933 52.2066 75.8651C51.6896 75.537 51.2852 75.078 50.9936 74.488C50.7052 73.8981 50.561 73.2087 50.561 72.4198C50.561 71.6244 50.7052 70.93 50.9936 70.3367C51.2852 69.7435 51.6896 69.2828 52.2066 68.9546C52.727 68.6265 53.3319 68.4624 54.0213 68.4624C54.7107 68.4624 55.3139 68.6265 55.8309 68.9546C56.3513 69.2828 56.7556 69.7435 57.044 70.3367C57.3357 70.93 57.4815 71.6244 57.4815 72.4198C57.4815 73.2087 57.3357 73.8981 57.044 74.488C56.7556 75.078 56.3513 75.537 55.8309 75.8651C55.3139 76.1933 54.7107 76.3573 54.0213 76.3573ZM54.0213 75.3034C54.5449 75.3034 54.9758 75.1691 55.3139 74.9007C55.6519 74.6322 55.9022 74.2792 56.0646 73.8417C56.227 73.4042 56.3082 72.9302 56.3082 72.4198C56.3082 71.9094 56.227 71.4338 56.0646 70.993C55.9022 70.5522 55.6519 70.1959 55.3139 69.9241C54.9758 69.6523 54.5449 69.5164 54.0213 69.5164C53.4976 69.5164 53.0667 69.6523 52.7286 69.9241C52.3906 70.1959 52.1403 70.5522 51.9779 70.993C51.8155 71.4338 51.7343 71.9094 51.7343 72.4198C51.7343 72.9302 51.8155 73.4042 51.9779 73.8417C52.1403 74.2792 52.3906 74.6322 52.7286 74.9007C53.0667 75.1691 53.4976 75.3034 54.0213 75.3034ZM60.4458 71.6045V76.1982H59.2725V68.5619H60.406V69.7551H60.5055C60.6844 69.3673 60.9562 69.0557 61.3208 68.8204C61.6854 68.5818 62.156 68.4624 62.7327 68.4624C63.2498 68.4624 63.7022 68.5685 64.09 68.7806C64.4778 68.9894 64.7794 69.3076 64.9948 69.7352C65.2102 70.1594 65.318 70.6963 65.318 71.346V76.1982H64.1447V71.4255C64.1447 70.8256 63.9889 70.3583 63.6773 70.0235C63.3658 69.6855 62.9382 69.5164 62.3947 69.5164C62.0201 69.5164 61.6854 69.5976 61.3904 69.76C61.0987 69.9224 60.8684 70.1594 60.6993 70.471C60.5303 70.7825 60.4458 71.1604 60.4458 71.6045ZM71.3796 76.1982V75.3034L74.7404 71.6244C75.1348 71.1935 75.4596 70.819 75.7148 70.5008C75.97 70.1793 76.1589 69.8777 76.2816 69.596C76.4075 69.3109 76.4705 69.0126 76.4705 68.7011C76.4705 68.3431 76.3843 68.0332 76.212 67.7714C76.0429 67.5096 75.8109 67.3074 75.5159 67.1649C75.221 67.0223 74.8895 66.9511 74.5216 66.9511C74.1305 66.9511 73.7891 67.0323 73.4975 67.1947C73.2091 67.3538 72.9854 67.5775 72.8263 67.8659C72.6705 68.1542 72.5926 68.4923 72.5926 68.8801H71.4193C71.4193 68.2835 71.5569 67.7598 71.832 67.309C72.1071 66.8583 72.4816 66.507 72.9556 66.2551C73.4328 66.0032 73.9681 65.8772 74.5614 65.8772C75.158 65.8772 75.6866 66.0032 76.1473 66.2551C76.608 66.507 76.9693 66.8467 77.2311 67.2742C77.493 67.7018 77.6239 68.1774 77.6239 68.7011C77.6239 69.0756 77.5559 69.4419 77.4201 69.7998C77.2875 70.1544 77.0555 70.5505 76.724 70.988C76.3959 71.4222 75.9402 71.9525 75.3568 72.5789L73.0699 75.0249V75.1045H77.8029V76.1982H71.3796Z" fill="#858991"/>
<path d="M11.1594 117.167C11.1594 118.241 10.9655 119.169 10.5777 119.951C10.1899 120.733 9.65797 121.336 8.98183 121.761C8.3057 122.185 7.53344 122.397 6.66507 122.397C5.7967 122.397 5.02445 122.185 4.34831 121.761C3.67217 121.336 3.14021 120.733 2.75243 119.951C2.36464 119.169 2.17075 118.241 2.17075 117.167C2.17075 116.093 2.36464 115.165 2.75243 114.383C3.14021 113.601 3.67217 112.997 4.34831 112.573C5.02445 112.149 5.7967 111.937 6.66507 111.937C7.53344 111.937 8.3057 112.149 8.98183 112.573C9.65797 112.997 10.1899 113.601 10.5777 114.383C10.9655 115.165 11.1594 116.093 11.1594 117.167ZM9.96621 117.167C9.96621 116.285 9.81872 115.541 9.52374 114.935C9.23207 114.328 8.836 113.869 8.33553 113.558C7.83837 113.246 7.28155 113.09 6.66507 113.09C6.04859 113.09 5.49012 113.246 4.98964 113.558C4.49249 113.869 4.09642 114.328 3.80143 114.935C3.50977 115.541 3.36393 116.285 3.36393 117.167C3.36393 118.049 3.50977 118.793 3.80143 119.399C4.09642 120.006 4.49249 120.465 4.98964 120.776C5.49012 121.088 6.04859 121.244 6.66507 121.244C7.28155 121.244 7.83837 121.088 8.33553 120.776C8.836 120.465 9.23207 120.006 9.52374 119.399C9.81872 118.793 9.96621 118.049 9.96621 117.167ZM13.0735 125.121V114.621H14.207V115.835H14.3462C14.4324 115.702 14.5517 115.533 14.7041 115.327C14.8599 115.119 15.082 114.933 15.3703 114.771C15.662 114.605 16.0564 114.522 16.5536 114.522C17.1966 114.522 17.7633 114.683 18.2538 115.004C18.7444 115.326 19.1272 115.781 19.4023 116.371C19.6774 116.961 19.8149 117.657 19.8149 118.46C19.8149 119.268 19.6774 119.969 19.4023 120.562C19.1272 121.152 18.746 121.61 18.2588 121.935C17.7716 122.256 17.2098 122.417 16.5735 122.417C16.0829 122.417 15.6902 122.336 15.3952 122.173C15.1002 122.008 14.8732 121.82 14.7141 121.612C14.555 121.399 14.4324 121.224 14.3462 121.085H14.2467V125.121H13.0735ZM14.2269 118.44C14.2269 119.016 14.3114 119.525 14.4804 119.966C14.6494 120.403 14.8964 120.746 15.2212 120.995C15.546 121.24 15.9437 121.363 16.4144 121.363C16.9049 121.363 17.3142 121.234 17.6423 120.975C17.9738 120.713 18.2224 120.362 18.3881 119.921C18.5571 119.477 18.6416 118.983 18.6416 118.44C18.6416 117.903 18.5588 117.419 18.3931 116.988C18.2306 116.554 17.9837 116.211 17.6523 115.959C17.3242 115.704 16.9115 115.576 16.4144 115.576C15.9371 115.576 15.536 115.697 15.2112 115.939C14.8864 116.178 14.6412 116.512 14.4754 116.943C14.3097 117.371 14.2269 117.87 14.2269 118.44ZM24.8064 122.417C24.0706 122.417 23.4359 122.254 22.9023 121.93C22.372 121.602 21.9627 121.144 21.6743 120.558C21.3893 119.968 21.2467 119.281 21.2467 118.499C21.2467 117.717 21.3893 117.028 21.6743 116.431C21.9627 115.831 22.3637 115.364 22.8774 115.029C23.3945 114.691 23.9977 114.522 24.6871 114.522C25.0848 114.522 25.4776 114.588 25.8654 114.721C26.2531 114.853 26.6061 115.069 26.9243 115.367C27.2425 115.662 27.496 116.053 27.685 116.54C27.8739 117.028 27.9683 117.628 27.9683 118.34V118.837H22.082V117.823H26.7752C26.7752 117.392 26.689 117.008 26.5166 116.67C26.3476 116.332 26.1056 116.065 25.7908 115.869C25.4792 115.674 25.1113 115.576 24.6871 115.576C24.2198 115.576 23.8154 115.692 23.474 115.924C23.136 116.153 22.8758 116.451 22.6935 116.819C22.5112 117.187 22.42 117.581 22.42 118.002V118.678C22.42 119.255 22.5195 119.744 22.7183 120.145C22.9205 120.543 23.2006 120.846 23.5585 121.055C23.9165 121.26 24.3324 121.363 24.8064 121.363C25.1146 121.363 25.3931 121.32 25.6416 121.234C25.8935 121.144 26.1106 121.012 26.2929 120.836C26.4752 120.657 26.6161 120.435 26.7155 120.17L27.849 120.488C27.7297 120.872 27.5292 121.21 27.2475 121.502C26.9657 121.79 26.6177 122.016 26.2034 122.178C25.7891 122.337 25.3235 122.417 24.8064 122.417ZM29.7531 122.258V114.621H30.8867V115.775H30.9662C31.1054 115.397 31.3573 115.09 31.7219 114.855C32.0865 114.62 32.4975 114.502 32.9548 114.502C33.041 114.502 33.1487 114.504 33.278 114.507C33.4073 114.51 33.505 114.515 33.5713 114.522V115.715C33.5315 115.705 33.4404 115.69 33.2979 115.67C33.1587 115.647 33.0112 115.636 32.8554 115.636C32.4842 115.636 32.1528 115.714 31.8611 115.869C31.5727 116.022 31.344 116.234 31.175 116.506C31.0093 116.774 30.9264 117.081 30.9264 117.425V122.258H29.7531ZM37.2093 122.437C36.7254 122.437 36.2862 122.346 35.8918 122.163C35.4974 121.978 35.1842 121.711 34.9522 121.363C34.7202 121.012 34.6042 120.587 34.6042 120.09C34.6042 119.653 34.6903 119.298 34.8627 119.026C35.035 118.751 35.2654 118.536 35.5537 118.38C35.8421 118.224 36.1603 118.108 36.5083 118.032C36.8596 117.952 37.2126 117.889 37.5672 117.843C38.0313 117.783 38.4074 117.739 38.6958 117.709C38.9875 117.676 39.1996 117.621 39.3322 117.545C39.468 117.469 39.536 117.336 39.536 117.147V117.107C39.536 116.617 39.4018 116.236 39.1333 115.964C38.8681 115.692 38.4654 115.556 37.9252 115.556C37.3651 115.556 36.9259 115.679 36.6077 115.924C36.2895 116.169 36.0658 116.431 35.9366 116.71L34.8229 116.312C35.0218 115.848 35.2869 115.487 35.6184 115.228C35.9531 114.966 36.3177 114.784 36.7121 114.681C37.1099 114.575 37.5009 114.522 37.8854 114.522C38.1307 114.522 38.4124 114.552 38.7306 114.612C39.0521 114.668 39.362 114.786 39.6603 114.964C39.9619 115.143 40.2121 115.414 40.411 115.775C40.6099 116.136 40.7093 116.62 40.7093 117.227V122.258H39.536V121.224H39.4763C39.3968 121.389 39.2642 121.567 39.0786 121.756C38.893 121.945 38.6461 122.105 38.3378 122.238C38.0296 122.371 37.6534 122.437 37.2093 122.437ZM37.3883 121.383C37.8523 121.383 38.2434 121.292 38.5616 121.109C38.8831 120.927 39.125 120.692 39.2874 120.403C39.4531 120.115 39.536 119.812 39.536 119.494V118.42C39.4863 118.479 39.3769 118.534 39.2079 118.584C39.0421 118.63 38.8499 118.672 38.6312 118.708C38.4157 118.741 38.2053 118.771 37.9998 118.798C37.7976 118.821 37.6335 118.841 37.5076 118.857C37.2027 118.897 36.9176 118.962 36.6525 119.051C36.3906 119.137 36.1785 119.268 36.0161 119.444C35.857 119.616 35.7775 119.852 35.7775 120.15C35.7775 120.558 35.9283 120.866 36.2299 121.075C36.5348 121.28 36.9209 121.383 37.3883 121.383ZM46.1718 114.621V115.616H42.2144V114.621H46.1718ZM43.3678 112.792H44.5411V120.07C44.5411 120.402 44.5892 120.65 44.6853 120.816C44.7847 120.978 44.9107 121.088 45.0632 121.144C45.2189 121.197 45.383 121.224 45.5553 121.224C45.6846 121.224 45.7907 121.217 45.8735 121.204C45.9564 121.187 46.0227 121.174 46.0724 121.164L46.311 122.218C46.2315 122.248 46.1204 122.278 45.9779 122.308C45.8354 122.341 45.6548 122.357 45.436 122.357C45.1046 122.357 44.7798 122.286 44.4616 122.143C44.1467 122.001 43.8849 121.784 43.6761 121.492C43.4706 121.201 43.3678 120.833 43.3678 120.388V112.792ZM47.9367 122.258V114.621H49.11V122.258H47.9367ZM48.5333 113.349C48.3046 113.349 48.1074 113.271 47.9417 113.115C47.7793 112.959 47.6981 112.772 47.6981 112.553C47.6981 112.335 47.7793 112.147 47.9417 111.991C48.1074 111.836 48.3046 111.758 48.5333 111.758C48.762 111.758 48.9576 111.836 49.12 111.991C49.2857 112.147 49.3686 112.335 49.3686 112.553C49.3686 112.772 49.2857 112.959 49.12 113.115C48.9576 113.271 48.762 113.349 48.5333 113.349ZM54.3613 122.417C53.6719 122.417 53.067 122.253 52.5466 121.925C52.0296 121.597 51.6252 121.138 51.3336 120.548C51.0452 119.958 50.901 119.268 50.901 118.479C50.901 117.684 51.0452 116.99 51.3336 116.396C51.6252 115.803 52.0296 115.342 52.5466 115.014C53.067 114.686 53.6719 114.522 54.3613 114.522C55.0507 114.522 55.6539 114.686 56.1709 115.014C56.6913 115.342 57.0956 115.803 57.384 116.396C57.6757 116.99 57.8215 117.684 57.8215 118.479C57.8215 119.268 57.6757 119.958 57.384 120.548C57.0956 121.138 56.6913 121.597 56.1709 121.925C55.6539 122.253 55.0507 122.417 54.3613 122.417ZM54.3613 121.363C54.8849 121.363 55.3158 121.229 55.6539 120.96C55.992 120.692 56.2422 120.339 56.4046 119.901C56.567 119.464 56.6482 118.99 56.6482 118.479C56.6482 117.969 56.567 117.493 56.4046 117.053C56.2422 116.612 55.992 116.255 55.6539 115.984C55.3158 115.712 54.8849 115.576 54.3613 115.576C53.8376 115.576 53.4067 115.712 53.0687 115.984C52.7306 116.255 52.4804 116.612 52.3179 117.053C52.1555 117.493 52.0743 117.969 52.0743 118.479C52.0743 118.99 52.1555 119.464 52.3179 119.901C52.4804 120.339 52.7306 120.692 53.0687 120.96C53.4067 121.229 53.8376 121.363 54.3613 121.363ZM60.7858 117.664V122.258H59.6125V114.621H60.746V115.815H60.8455C61.0244 115.427 61.2962 115.115 61.6608 114.88C62.0254 114.641 62.496 114.522 63.0727 114.522C63.5898 114.522 64.0422 114.628 64.43 114.84C64.8178 115.049 65.1194 115.367 65.3348 115.795C65.5503 116.219 65.658 116.756 65.658 117.406V122.258H64.4847V117.485C64.4847 116.885 64.3289 116.418 64.0173 116.083C63.7058 115.745 63.2782 115.576 62.7347 115.576C62.3601 115.576 62.0254 115.657 61.7304 115.82C61.4387 115.982 61.2084 116.219 61.0394 116.531C60.8703 116.842 60.7858 117.22 60.7858 117.664ZM75.1599 122.397C74.5037 122.397 73.9187 122.284 73.405 122.059C72.8945 121.834 72.4885 121.52 72.1869 121.119C71.8886 120.715 71.7262 120.246 71.6997 119.712H72.9525C72.9791 120.04 73.0917 120.324 73.2906 120.562C73.4895 120.798 73.7496 120.98 74.0711 121.109C74.3926 121.239 74.7489 121.303 75.14 121.303C75.5775 121.303 75.9653 121.227 76.3034 121.075C76.6415 120.922 76.9066 120.71 77.0988 120.438C77.2911 120.166 77.3872 119.852 77.3872 119.494C77.3872 119.119 77.2944 118.789 77.1088 118.504C76.9232 118.216 76.6514 117.991 76.2934 117.828C75.9355 117.666 75.498 117.585 74.9809 117.585H74.1656V116.491H74.9809C75.3853 116.491 75.7399 116.418 76.0449 116.272C76.3531 116.126 76.5934 115.921 76.7657 115.656C76.9414 115.39 77.0292 115.079 77.0292 114.721C77.0292 114.376 76.953 114.076 76.8005 113.821C76.6481 113.566 76.4326 113.367 76.1542 113.224C75.8791 113.082 75.5543 113.011 75.1798 113.011C74.8285 113.011 74.497 113.075 74.1855 113.205C73.8773 113.33 73.6254 113.514 73.4298 113.756C73.2343 113.995 73.1282 114.283 73.1116 114.621H71.9184C71.9383 114.088 72.0991 113.621 72.4007 113.219C72.7023 112.815 73.0967 112.5 73.5839 112.275C74.0745 112.049 74.613 111.937 75.1997 111.937C75.8294 111.937 76.3697 112.064 76.8204 112.32C77.2712 112.571 77.6175 112.905 77.8595 113.319C78.1014 113.733 78.2224 114.181 78.2224 114.661C78.2224 115.235 78.0716 115.723 77.77 116.128C77.4717 116.532 77.0657 116.812 76.552 116.968V117.048C77.195 117.154 77.6971 117.427 78.0584 117.868C78.4196 118.305 78.6003 118.847 78.6003 119.494C78.6003 120.047 78.4495 120.544 78.1478 120.985C77.8496 121.423 77.4419 121.767 76.9248 122.019C76.4078 122.271 75.8195 122.397 75.1599 122.397Z" fill="#858991"/>
<path d="M13.5026 25.0487C13.5026 26.1226 13.3087 27.0506 12.921 27.8328C12.5332 28.615 12.0012 29.2182 11.3251 29.6425C10.6489 30.0667 9.87669 30.2789 9.00832 30.2789C8.13995 30.2789 7.36769 30.0667 6.69156 29.6425C6.01542 29.2182 5.48346 28.615 5.09568 27.8328C4.70789 27.0506 4.514 26.1226 4.514 25.0487C4.514 23.9749 4.70789 23.0468 5.09568 22.2646C5.48346 21.4825 6.01542 20.8792 6.69156 20.455C7.36769 20.0307 8.13995 19.8186 9.00832 19.8186C9.87669 19.8186 10.6489 20.0307 11.3251 20.455C12.0012 20.8792 12.5332 21.4825 12.921 22.2646C13.3087 23.0468 13.5026 23.9749 13.5026 25.0487ZM12.3095 25.0487C12.3095 24.1671 12.162 23.423 11.867 22.8165C11.5753 22.21 11.1792 21.7509 10.6788 21.4394C10.1816 21.1278 9.62479 20.972 9.00832 20.972C8.39184 20.972 7.83336 21.1278 7.33289 21.4394C6.83573 21.7509 6.43966 22.21 6.14468 22.8165C5.85301 23.423 5.70718 24.1671 5.70718 25.0487C5.70718 25.9304 5.85301 26.6744 6.14468 27.281C6.43966 27.8875 6.83573 28.3466 7.33289 28.6581C7.83336 28.9697 8.39184 29.1254 9.00832 29.1254C9.62479 29.1254 10.1816 28.9697 10.6788 28.6581C11.1792 28.3466 11.5753 27.8875 11.867 27.281C12.162 26.6744 12.3095 25.9304 12.3095 25.0487ZM15.4167 33.0033V22.5033H16.5502V23.7164H16.6894C16.7756 23.5838 16.8949 23.4147 17.0474 23.2093C17.2032 23.0004 17.4252 22.8148 17.7136 22.6524C18.0052 22.4867 18.3997 22.4039 18.8968 22.4039C19.5398 22.4039 20.1066 22.5646 20.5971 22.8861C21.0876 23.2076 21.4704 23.6633 21.7455 24.2533C22.0206 24.8432 22.1582 25.5393 22.1582 26.3414C22.1582 27.1501 22.0206 27.8511 21.7455 28.4443C21.4704 29.0343 21.0893 29.4917 20.6021 29.8165C20.1149 30.138 19.5531 30.2987 18.9167 30.2987C18.4262 30.2987 18.0334 30.2175 17.7384 30.0551C17.4435 29.8894 17.2164 29.7021 17.0573 29.4933C16.8982 29.2812 16.7756 29.1056 16.6894 28.9664H16.59V33.0033H15.4167ZM16.5701 26.3215C16.5701 26.8982 16.6546 27.4069 16.8237 27.8477C16.9927 28.2852 17.2396 28.6283 17.5644 28.8769C17.8892 29.1221 18.287 29.2448 18.7576 29.2448C19.2481 29.2448 19.6575 29.1155 19.9856 28.857C20.317 28.5951 20.5656 28.2438 20.7313 27.803C20.9004 27.3589 20.9849 26.865 20.9849 26.3215C20.9849 25.7845 20.902 25.3006 20.7363 24.8698C20.5739 24.4356 20.327 24.0925 19.9955 23.8406C19.6674 23.5854 19.2548 23.4578 18.7576 23.4578C18.2803 23.4578 17.8793 23.5788 17.5545 23.8208C17.2297 24.0594 16.9844 24.3941 16.8187 24.825C16.653 25.2526 16.5701 25.7514 16.5701 26.3215ZM27.1497 30.2987C26.4139 30.2987 25.7792 30.1363 25.2455 29.8115C24.7152 29.4834 24.3059 29.026 24.0176 28.4394C23.7325 27.8494 23.59 27.1633 23.59 26.3811C23.59 25.5989 23.7325 24.9095 24.0176 24.3129C24.3059 23.713 24.7069 23.2457 25.2207 22.911C25.7377 22.5729 26.3409 22.4039 27.0303 22.4039C27.4281 22.4039 27.8208 22.4701 28.2086 22.6027C28.5964 22.7353 28.9494 22.9507 29.2676 23.249C29.5857 23.544 29.8393 23.9351 30.0282 24.4223C30.2171 24.9095 30.3116 25.5094 30.3116 26.222V26.7192H24.4252V25.705H29.1184C29.1184 25.2741 29.0322 24.8896 28.8599 24.5516C28.6908 24.2135 28.4489 23.9467 28.134 23.7512C27.8225 23.5556 27.4546 23.4578 27.0303 23.4578C26.563 23.4578 26.1586 23.5738 25.8173 23.8058C25.4792 24.0345 25.219 24.3328 25.0367 24.7007C24.8544 25.0686 24.7633 25.463 24.7633 25.884V26.5601C24.7633 27.1368 24.8627 27.6257 25.0616 28.0267C25.2638 28.4244 25.5438 28.7277 25.9018 28.9365C26.2597 29.142 26.6757 29.2448 27.1497 29.2448C27.4579 29.2448 27.7363 29.2017 27.9849 29.1155C28.2368 29.026 28.4539 28.8934 28.6362 28.7178C28.8185 28.5388 28.9593 28.3167 29.0587 28.0516L30.1923 28.3698C30.0729 28.7542 29.8724 29.0923 29.5907 29.384C29.309 29.6723 28.961 29.8977 28.5467 30.0601C28.1324 30.2192 27.6667 30.2987 27.1497 30.2987ZM32.0964 30.1396V22.5033H33.2299V23.6567H33.3095C33.4487 23.2789 33.7006 22.9723 34.0651 22.7369C34.4297 22.5016 34.8407 22.384 35.2981 22.384C35.3843 22.384 35.492 22.3856 35.6212 22.3889C35.7505 22.3923 35.8483 22.3972 35.9146 22.4039V23.597C35.8748 23.5871 35.7836 23.5722 35.6411 23.5523C35.5019 23.5291 35.3544 23.5175 35.1987 23.5175C34.8274 23.5175 34.496 23.5954 34.2043 23.7512C33.916 23.9036 33.6873 24.1157 33.5183 24.3875C33.3525 24.656 33.2697 24.9626 33.2697 25.3073V30.1396H32.0964ZM39.5525 30.3186C39.0686 30.3186 38.6295 30.2275 38.2351 30.0452C37.8406 29.8596 37.5274 29.5928 37.2954 29.2448C37.0634 28.8934 36.9474 28.4692 36.9474 27.972C36.9474 27.5345 37.0336 27.1799 37.2059 26.9081C37.3783 26.633 37.6086 26.4176 37.897 26.2618C38.1853 26.106 38.5035 25.99 38.8515 25.9138C39.2029 25.8343 39.5558 25.7713 39.9105 25.7249C40.3745 25.6652 40.7507 25.6205 41.039 25.5906C41.3307 25.5575 41.5428 25.5028 41.6754 25.4266C41.8113 25.3503 41.8792 25.2178 41.8792 25.0289V24.9891C41.8792 24.4985 41.745 24.1174 41.4765 23.8456C41.2114 23.5738 40.8087 23.4379 40.2684 23.4379C39.7083 23.4379 39.2691 23.5606 38.951 23.8058C38.6328 24.0511 38.4091 24.3129 38.2798 24.5914L37.1662 24.1936C37.365 23.7296 37.6302 23.3683 37.9616 23.1098C38.2964 22.848 38.661 22.6657 39.0554 22.5629C39.4531 22.4569 39.8442 22.4039 40.2287 22.4039C40.4739 22.4039 40.7557 22.4337 41.0738 22.4933C41.3953 22.5497 41.7052 22.6673 42.0035 22.8463C42.3051 23.0253 42.5554 23.2954 42.7542 23.6567C42.9531 24.018 43.0525 24.5019 43.0525 25.1084V30.1396H41.8792V29.1056H41.8196C41.74 29.2713 41.6075 29.4486 41.4218 29.6375C41.2362 29.8264 40.9893 29.9872 40.6811 30.1198C40.3728 30.2523 39.9967 30.3186 39.5525 30.3186ZM39.7315 29.2646C40.1955 29.2646 40.5866 29.1735 40.9048 28.9912C41.2263 28.8089 41.4682 28.5736 41.6307 28.2852C41.7964 27.9969 41.8792 27.6936 41.8792 27.3754V26.3016C41.8295 26.3612 41.7201 26.4159 41.5511 26.4656C41.3854 26.512 41.1932 26.5535 40.9744 26.5899C40.759 26.6231 40.5485 26.6529 40.343 26.6794C40.1408 26.7026 39.9768 26.7225 39.8508 26.7391C39.5459 26.7789 39.2609 26.8435 38.9957 26.933C38.7339 27.0191 38.5218 27.1501 38.3593 27.3257C38.2003 27.4981 38.1207 27.7334 38.1207 28.0317C38.1207 28.4394 38.2715 28.7476 38.5731 28.9564C38.8781 29.1619 39.2642 29.2646 39.7315 29.2646ZM48.5151 22.5033V23.4976H44.5577V22.5033H48.5151ZM45.7111 20.6737H46.8844V27.9521C46.8844 28.2836 46.9324 28.5322 47.0286 28.6979C47.128 28.8603 47.2539 28.9697 47.4064 29.026C47.5622 29.079 47.7262 29.1056 47.8986 29.1056C48.0278 29.1056 48.1339 29.0989 48.2168 29.0857C48.2996 29.0691 48.3659 29.0558 48.4156 29.0459L48.6543 30.0999C48.5747 30.1297 48.4637 30.1595 48.3212 30.1894C48.1787 30.2225 47.998 30.2391 47.7793 30.2391C47.4478 30.2391 47.123 30.1678 46.8048 30.0253C46.49 29.8828 46.2281 29.6657 46.0193 29.374C45.8138 29.0824 45.7111 28.7145 45.7111 28.2703V20.6737ZM50.28 30.1396V22.5033H51.4533V30.1396H50.28ZM50.8766 21.2306C50.6479 21.2306 50.4507 21.1527 50.285 20.9969C50.1225 20.8411 50.0413 20.6539 50.0413 20.4351C50.0413 20.2164 50.1225 20.0291 50.285 19.8733C50.4507 19.7175 50.6479 19.6396 50.8766 19.6396C51.1053 19.6396 51.3008 19.7175 51.4632 19.8733C51.6289 20.0291 51.7118 20.2164 51.7118 20.4351C51.7118 20.6539 51.6289 20.8411 51.4632 20.9969C51.3008 21.1527 51.1053 21.2306 50.8766 21.2306ZM56.7045 30.2987C56.0151 30.2987 55.4102 30.1347 54.8899 29.8066C54.3728 29.4784 53.9685 29.0194 53.6768 28.4294C53.3885 27.8395 53.2443 27.1501 53.2443 26.3612C53.2443 25.5658 53.3885 24.8714 53.6768 24.2781C53.9685 23.6849 54.3728 23.2242 54.8899 22.896C55.4102 22.5679 56.0151 22.4039 56.7045 22.4039C57.3939 22.4039 57.9971 22.5679 58.5142 22.896C59.0345 23.2242 59.4389 23.6849 59.7272 24.2781C60.0189 24.8714 60.1647 25.5658 60.1647 26.3612C60.1647 27.1501 60.0189 27.8395 59.7272 28.4294C59.4389 29.0194 59.0345 29.4784 58.5142 29.8066C57.9971 30.1347 57.3939 30.2987 56.7045 30.2987ZM56.7045 29.2448C57.2282 29.2448 57.6591 29.1105 57.9971 28.8421C58.3352 28.5736 58.5854 28.2206 58.7478 27.7831C58.9102 27.3456 58.9914 26.8717 58.9914 26.3612C58.9914 25.8508 58.9102 25.3752 58.7478 24.9344C58.5854 24.4936 58.3352 24.1373 57.9971 23.8655C57.6591 23.5937 57.2282 23.4578 56.7045 23.4578C56.1808 23.4578 55.75 23.5937 55.4119 23.8655C55.0738 24.1373 54.8236 24.4936 54.6612 24.9344C54.4988 25.3752 54.4176 25.8508 54.4176 26.3612C54.4176 26.8717 54.4988 27.3456 54.6612 27.7831C54.8236 28.2206 55.0738 28.5736 55.4119 28.8421C55.75 29.1105 56.1808 29.2448 56.7045 29.2448ZM63.1291 25.5459V30.1396H61.9558V22.5033H63.0893V23.6965H63.1887C63.3677 23.3087 63.6395 22.9971 64.0041 22.7618C64.3686 22.5232 64.8393 22.4039 65.416 22.4039C65.933 22.4039 66.3854 22.5099 66.7732 22.722C67.161 22.9308 67.4626 23.249 67.6781 23.6766C67.8935 24.1008 68.0012 24.6378 68.0012 25.2874V30.1396H66.8279V25.3669C66.8279 24.767 66.6721 24.2997 66.3606 23.9649C66.049 23.6269 65.6215 23.4578 65.0779 23.4578C64.7034 23.4578 64.3686 23.539 64.0737 23.7014C63.782 23.8638 63.5516 24.1008 63.3826 24.4124C63.2136 24.7239 63.1291 25.1018 63.1291 25.5459ZM77.6424 19.9578V30.1396H76.4094V21.2504H76.3498L73.864 22.901V21.6482L76.4094 19.9578H77.6424Z" fill="#858991"/>
<path d="M103.002 154.837C102.253 154.837 101.615 154.634 101.088 154.226C100.561 153.815 100.158 153.22 99.8798 152.441C99.6014 151.659 99.4622 150.714 99.4622 149.607C99.4622 148.507 99.6014 147.567 99.8798 146.788C100.162 146.006 100.566 145.41 101.093 144.999C101.623 144.584 102.26 144.377 103.002 144.377C103.744 144.377 104.379 144.584 104.906 144.999C105.436 145.41 105.841 146.006 106.119 146.788C106.401 147.567 106.542 148.507 106.542 149.607C106.542 150.714 106.403 151.659 106.124 152.441C105.846 153.22 105.443 153.815 104.916 154.226C104.389 154.634 103.751 154.837 103.002 154.837ZM103.002 153.744C103.744 153.744 104.321 153.386 104.732 152.67C105.143 151.954 105.349 150.933 105.349 149.607C105.349 148.726 105.254 147.975 105.065 147.355C104.88 146.735 104.611 146.263 104.26 145.938C103.912 145.613 103.492 145.451 103.002 145.451C102.266 145.451 101.691 145.814 101.277 146.54C100.863 147.262 100.655 148.285 100.655 149.607C100.655 150.489 100.748 151.238 100.934 151.854C101.119 152.471 101.386 152.94 101.734 153.261C102.086 153.583 102.508 153.744 103.002 153.744ZM111.672 144.377C112.09 144.381 112.508 144.46 112.925 144.616C113.343 144.772 113.724 145.03 114.069 145.391C114.413 145.749 114.69 146.238 114.899 146.858C115.108 147.478 115.212 148.255 115.212 149.19C115.212 150.095 115.126 150.898 114.954 151.601C114.785 152.3 114.539 152.89 114.218 153.371C113.9 153.851 113.512 154.216 113.055 154.465C112.6 154.713 112.087 154.837 111.513 154.837C110.943 154.837 110.434 154.725 109.987 154.499C109.543 154.271 109.178 153.954 108.893 153.55C108.612 153.142 108.431 152.67 108.351 152.133H109.564C109.674 152.6 109.891 152.986 110.216 153.291C110.544 153.593 110.976 153.744 111.513 153.744C112.299 153.744 112.919 153.401 113.373 152.715C113.83 152.028 114.059 151.059 114.059 149.806H113.979C113.794 150.085 113.573 150.325 113.318 150.527C113.063 150.729 112.779 150.885 112.468 150.994C112.156 151.104 111.825 151.158 111.474 151.158C110.89 151.158 110.355 151.014 109.868 150.726C109.384 150.434 108.996 150.035 108.704 149.528C108.416 149.017 108.272 148.434 108.272 147.778C108.272 147.155 108.411 146.585 108.689 146.068C108.971 145.547 109.366 145.133 109.873 144.825C110.383 144.516 110.983 144.367 111.672 144.377ZM111.672 145.471C111.255 145.471 110.879 145.575 110.544 145.784C110.212 145.99 109.949 146.268 109.753 146.619C109.561 146.967 109.465 147.354 109.465 147.778C109.465 148.202 109.558 148.588 109.743 148.936C109.932 149.281 110.189 149.556 110.514 149.761C110.842 149.964 111.215 150.065 111.633 150.065C111.948 150.065 112.241 150.003 112.513 149.881C112.784 149.755 113.021 149.584 113.224 149.369C113.429 149.15 113.59 148.903 113.706 148.628C113.822 148.35 113.88 148.06 113.88 147.758C113.88 147.36 113.784 146.987 113.591 146.639C113.403 146.291 113.141 146.01 112.806 145.794C112.474 145.579 112.097 145.471 111.672 145.471ZM118.042 153.396C117.797 153.396 117.587 153.308 117.411 153.132C117.235 152.957 117.147 152.746 117.147 152.501C117.147 152.256 117.235 152.045 117.411 151.869C117.587 151.694 117.797 151.606 118.042 151.606C118.288 151.606 118.498 151.694 118.674 151.869C118.849 152.045 118.937 152.256 118.937 152.501C118.937 152.663 118.896 152.812 118.813 152.948C118.733 153.084 118.626 153.194 118.49 153.276C118.357 153.356 118.208 153.396 118.042 153.396ZM118.042 148.245C117.797 148.245 117.587 148.157 117.411 147.982C117.235 147.806 117.147 147.595 117.147 147.35C117.147 147.105 117.235 146.895 117.411 146.719C117.587 146.543 117.797 146.455 118.042 146.455C118.288 146.455 118.498 146.543 118.674 146.719C118.849 146.895 118.937 147.105 118.937 147.35C118.937 147.513 118.896 147.662 118.813 147.798C118.733 147.934 118.626 148.043 118.49 148.126C118.357 148.205 118.208 148.245 118.042 148.245ZM124.344 154.837C123.595 154.837 122.957 154.634 122.43 154.226C121.903 153.815 121.5 153.22 121.222 152.441C120.943 151.659 120.804 150.714 120.804 149.607C120.804 148.507 120.943 147.567 121.222 146.788C121.503 146.006 121.908 145.41 122.435 144.999C122.965 144.584 123.601 144.377 124.344 144.377C125.086 144.377 125.721 144.584 126.248 144.999C126.778 145.41 127.183 146.006 127.461 146.788C127.743 147.567 127.884 148.507 127.884 149.607C127.884 150.714 127.744 151.659 127.466 152.441C127.188 153.22 126.785 153.815 126.258 154.226C125.731 154.634 125.093 154.837 124.344 154.837ZM124.344 153.744C125.086 153.744 125.663 153.386 126.074 152.67C126.485 151.954 126.69 150.933 126.69 149.607C126.69 148.726 126.596 147.975 126.407 147.355C126.221 146.735 125.953 146.263 125.602 145.938C125.254 145.613 124.834 145.451 124.344 145.451C123.608 145.451 123.033 145.814 122.619 146.54C122.204 147.262 121.997 148.285 121.997 149.607C121.997 150.489 122.09 151.238 122.276 151.854C122.461 152.471 122.728 152.94 123.076 153.261C123.427 153.583 123.85 153.744 124.344 153.744ZM133.094 154.837C132.345 154.837 131.707 154.634 131.18 154.226C130.653 153.815 130.25 153.22 129.972 152.441C129.693 151.659 129.554 150.714 129.554 149.607C129.554 148.507 129.693 147.567 129.972 146.788C130.253 146.006 130.658 145.41 131.185 144.999C131.715 144.584 132.351 144.377 133.094 144.377C133.836 144.377 134.471 144.584 134.998 144.999C135.528 145.41 135.933 146.006 136.211 146.788C136.493 147.567 136.634 148.507 136.634 149.607C136.634 150.714 136.494 151.659 136.216 152.441C135.938 153.22 135.535 153.815 135.008 154.226C134.481 154.634 133.843 154.837 133.094 154.837ZM133.094 153.744C133.836 153.744 134.413 153.386 134.824 152.67C135.235 151.954 135.44 150.933 135.44 149.607C135.44 148.726 135.346 147.975 135.157 147.355C134.971 146.735 134.703 146.263 134.352 145.938C134.004 145.613 133.584 145.451 133.094 145.451C132.358 145.451 131.783 145.814 131.369 146.54C130.954 147.262 130.747 148.285 130.747 149.607C130.747 150.489 130.84 151.238 131.026 151.854C131.211 152.471 131.478 152.94 131.826 153.261C132.177 153.583 132.6 153.744 133.094 153.744Z" fill="#858991"/>
<path d="M173.489 144.516V154.698H172.256V145.809H172.196L169.711 147.46V146.207L172.256 144.516H173.489ZM179.738 154.837C178.989 154.837 178.351 154.634 177.824 154.226C177.297 153.815 176.895 153.22 176.616 152.441C176.338 151.659 176.199 150.714 176.199 149.607C176.199 148.507 176.338 147.567 176.616 146.788C176.898 146.006 177.302 145.41 177.829 144.999C178.359 144.584 178.996 144.377 179.738 144.377C180.481 144.377 181.115 144.584 181.642 144.999C182.173 145.41 182.577 146.006 182.855 146.788C183.137 147.567 183.278 148.507 183.278 149.607C183.278 150.714 183.139 151.659 182.86 152.441C182.582 153.22 182.179 153.815 181.652 154.226C181.125 154.634 180.487 154.837 179.738 154.837ZM179.738 153.744C180.481 153.744 181.057 153.386 181.468 152.67C181.879 151.954 182.085 150.933 182.085 149.607C182.085 148.726 181.99 147.975 181.801 147.355C181.616 146.735 181.347 146.263 180.996 145.938C180.648 145.613 180.229 145.451 179.738 145.451C179.002 145.451 178.427 145.814 178.013 146.54C177.599 147.262 177.392 148.285 177.392 149.607C177.392 150.489 177.484 151.238 177.67 151.854C177.856 152.471 178.123 152.94 178.471 153.261C178.822 153.583 179.244 153.744 179.738 153.744ZM186.042 153.396C185.797 153.396 185.587 153.308 185.411 153.132C185.235 152.957 185.147 152.746 185.147 152.501C185.147 152.256 185.235 152.045 185.411 151.869C185.587 151.694 185.797 151.606 186.042 151.606C186.288 151.606 186.498 151.694 186.674 151.869C186.849 152.045 186.937 152.256 186.937 152.501C186.937 152.663 186.896 152.812 186.813 152.948C186.733 153.084 186.626 153.194 186.49 153.276C186.357 153.356 186.208 153.396 186.042 153.396ZM186.042 148.245C185.797 148.245 185.587 148.157 185.411 147.982C185.235 147.806 185.147 147.595 185.147 147.35C185.147 147.105 185.235 146.895 185.411 146.719C185.587 146.543 185.797 146.455 186.042 146.455C186.288 146.455 186.498 146.543 186.674 146.719C186.849 146.895 186.937 147.105 186.937 147.35C186.937 147.513 186.896 147.662 186.813 147.798C186.733 147.934 186.626 148.043 186.49 148.126C186.357 148.205 186.208 148.245 186.042 148.245ZM192.344 154.837C191.595 154.837 190.957 154.634 190.43 154.226C189.903 153.815 189.5 153.22 189.222 152.441C188.943 151.659 188.804 150.714 188.804 149.607C188.804 148.507 188.943 147.567 189.222 146.788C189.503 146.006 189.908 145.41 190.435 144.999C190.965 144.584 191.601 144.377 192.344 144.377C193.086 144.377 193.721 144.584 194.248 144.999C194.778 145.41 195.183 146.006 195.461 146.788C195.743 147.567 195.884 148.507 195.884 149.607C195.884 150.714 195.744 151.659 195.466 152.441C195.188 153.22 194.785 153.815 194.258 154.226C193.731 154.634 193.093 154.837 192.344 154.837ZM192.344 153.744C193.086 153.744 193.663 153.386 194.074 152.67C194.485 151.954 194.69 150.933 194.69 149.607C194.69 148.726 194.596 147.975 194.407 147.355C194.221 146.735 193.953 146.263 193.602 145.938C193.254 145.613 192.834 145.451 192.344 145.451C191.608 145.451 191.033 145.814 190.619 146.54C190.204 147.262 189.997 148.285 189.997 149.607C189.997 150.489 190.09 151.238 190.276 151.854C190.461 152.471 190.728 152.94 191.076 153.261C191.427 153.583 191.85 153.744 192.344 153.744ZM201.094 154.837C200.345 154.837 199.707 154.634 199.18 154.226C198.653 153.815 198.25 153.22 197.972 152.441C197.693 151.659 197.554 150.714 197.554 149.607C197.554 148.507 197.693 147.567 197.972 146.788C198.253 146.006 198.658 145.41 199.185 144.999C199.715 144.584 200.351 144.377 201.094 144.377C201.836 144.377 202.471 144.584 202.998 144.999C203.528 145.41 203.933 146.006 204.211 146.788C204.493 147.567 204.634 148.507 204.634 149.607C204.634 150.714 204.494 151.659 204.216 152.441C203.938 153.22 203.535 153.815 203.008 154.226C202.481 154.634 201.843 154.837 201.094 154.837ZM201.094 153.744C201.836 153.744 202.413 153.386 202.824 152.67C203.235 151.954 203.44 150.933 203.44 149.607C203.44 148.726 203.346 147.975 203.157 147.355C202.971 146.735 202.703 146.263 202.352 145.938C202.004 145.613 201.584 145.451 201.094 145.451C200.358 145.451 199.783 145.814 199.369 146.54C198.954 147.262 198.747 148.285 198.747 149.607C198.747 150.489 198.84 151.238 199.026 151.854C199.211 152.471 199.478 152.94 199.826 153.261C200.177 153.583 200.6 153.744 201.094 153.744Z" fill="#858991"/>
<path d="M241.731 144.516V154.698H240.498V145.809H240.439L237.953 147.46V146.207L240.498 144.516H241.731ZM248.239 144.516V154.698H247.006V145.809H246.946L244.461 147.46V146.207L247.006 144.516H248.239ZM252.042 153.396C251.797 153.396 251.587 153.308 251.411 153.132C251.235 152.957 251.147 152.746 251.147 152.501C251.147 152.256 251.235 152.045 251.411 151.869C251.587 151.694 251.797 151.606 252.042 151.606C252.288 151.606 252.498 151.694 252.674 151.869C252.849 152.045 252.937 152.256 252.937 152.501C252.937 152.663 252.896 152.812 252.813 152.948C252.733 153.084 252.626 153.194 252.49 153.276C252.357 153.356 252.208 153.396 252.042 153.396ZM252.042 148.245C251.797 148.245 251.587 148.157 251.411 147.982C251.235 147.806 251.147 147.595 251.147 147.35C251.147 147.105 251.235 146.895 251.411 146.719C251.587 146.543 251.797 146.455 252.042 146.455C252.288 146.455 252.498 146.543 252.674 146.719C252.849 146.895 252.937 147.105 252.937 147.35C252.937 147.513 252.896 147.662 252.813 147.798C252.733 147.934 252.626 148.043 252.49 148.126C252.357 148.205 252.208 148.245 252.042 148.245ZM258.344 154.837C257.595 154.837 256.957 154.634 256.43 154.226C255.903 153.815 255.5 153.22 255.222 152.441C254.943 151.659 254.804 150.714 254.804 149.607C254.804 148.507 254.943 147.567 255.222 146.788C255.503 146.006 255.908 145.41 256.435 144.999C256.965 144.584 257.601 144.377 258.344 144.377C259.086 144.377 259.721 144.584 260.248 144.999C260.778 145.41 261.183 146.006 261.461 146.788C261.743 147.567 261.884 148.507 261.884 149.607C261.884 150.714 261.744 151.659 261.466 152.441C261.188 153.22 260.785 153.815 260.258 154.226C259.731 154.634 259.093 154.837 258.344 154.837ZM258.344 153.744C259.086 153.744 259.663 153.386 260.074 152.67C260.485 151.954 260.69 150.933 260.69 149.607C260.69 148.726 260.596 147.975 260.407 147.355C260.221 146.735 259.953 146.263 259.602 145.938C259.254 145.613 258.834 145.451 258.344 145.451C257.608 145.451 257.033 145.814 256.619 146.54C256.204 147.262 255.997 148.285 255.997 149.607C255.997 150.489 256.09 151.238 256.276 151.854C256.461 152.471 256.728 152.94 257.076 153.261C257.427 153.583 257.85 153.744 258.344 153.744ZM267.094 154.837C266.345 154.837 265.707 154.634 265.18 154.226C264.653 153.815 264.25 153.22 263.972 152.441C263.693 151.659 263.554 150.714 263.554 149.607C263.554 148.507 263.693 147.567 263.972 146.788C264.253 146.006 264.658 145.41 265.185 144.999C265.715 144.584 266.351 144.377 267.094 144.377C267.836 144.377 268.471 144.584 268.998 144.999C269.528 145.41 269.933 146.006 270.211 146.788C270.493 147.567 270.634 148.507 270.634 149.607C270.634 150.714 270.494 151.659 270.216 152.441C269.938 153.22 269.535 153.815 269.008 154.226C268.481 154.634 267.843 154.837 267.094 154.837ZM267.094 153.744C267.836 153.744 268.413 153.386 268.824 152.67C269.235 151.954 269.44 150.933 269.44 149.607C269.44 148.726 269.346 147.975 269.157 147.355C268.971 146.735 268.703 146.263 268.352 145.938C268.004 145.613 267.584 145.451 267.094 145.451C266.358 145.451 265.783 145.814 265.369 146.54C264.954 147.262 264.747 148.285 264.747 149.607C264.747 150.489 264.84 151.238 265.026 151.854C265.211 152.471 265.478 152.94 265.826 153.261C266.177 153.583 266.6 153.744 267.094 153.744Z" fill="#858991"/>
<path d="M307.762 144.516V154.698H306.529V145.809H306.47L303.984 147.46V146.207L306.529 144.516H307.762ZM310.691 154.698V153.803L314.051 150.124C314.446 149.694 314.771 149.319 315.026 149.001C315.281 148.679 315.47 148.378 315.593 148.096C315.719 147.811 315.782 147.513 315.782 147.201C315.782 146.843 315.695 146.533 315.523 146.271C315.354 146.01 315.122 145.807 314.827 145.665C314.532 145.522 314.201 145.451 313.833 145.451C313.442 145.451 313.1 145.532 312.809 145.695C312.52 145.854 312.297 146.078 312.137 146.366C311.982 146.654 311.904 146.992 311.904 147.38H310.73C310.73 146.783 310.868 146.26 311.143 145.809C311.418 145.358 311.793 145.007 312.267 144.755C312.744 144.503 313.279 144.377 313.873 144.377C314.469 144.377 314.998 144.503 315.458 144.755C315.919 145.007 316.28 145.347 316.542 145.774C316.804 146.202 316.935 146.677 316.935 147.201C316.935 147.576 316.867 147.942 316.731 148.3C316.599 148.654 316.367 149.051 316.035 149.488C315.707 149.922 315.251 150.453 314.668 151.079L312.381 153.525V153.604H317.114V154.698H310.691ZM320.042 153.396C319.797 153.396 319.587 153.308 319.411 153.132C319.235 152.957 319.147 152.746 319.147 152.501C319.147 152.256 319.235 152.045 319.411 151.869C319.587 151.694 319.797 151.606 320.042 151.606C320.288 151.606 320.498 151.694 320.674 151.869C320.849 152.045 320.937 152.256 320.937 152.501C320.937 152.663 320.896 152.812 320.813 152.948C320.733 153.084 320.626 153.194 320.49 153.276C320.357 153.356 320.208 153.396 320.042 153.396ZM320.042 148.245C319.797 148.245 319.587 148.157 319.411 147.982C319.235 147.806 319.147 147.595 319.147 147.35C319.147 147.105 319.235 146.895 319.411 146.719C319.587 146.543 319.797 146.455 320.042 146.455C320.288 146.455 320.498 146.543 320.674 146.719C320.849 146.895 320.937 147.105 320.937 147.35C320.937 147.513 320.896 147.662 320.813 147.798C320.733 147.934 320.626 148.043 320.49 148.126C320.357 148.205 320.208 148.245 320.042 148.245ZM326.344 154.837C325.595 154.837 324.957 154.634 324.43 154.226C323.903 153.815 323.5 153.22 323.222 152.441C322.943 151.659 322.804 150.714 322.804 149.607C322.804 148.507 322.943 147.567 323.222 146.788C323.503 146.006 323.908 145.41 324.435 144.999C324.965 144.584 325.601 144.377 326.344 144.377C327.086 144.377 327.721 144.584 328.248 144.999C328.778 145.41 329.183 146.006 329.461 146.788C329.743 147.567 329.884 148.507 329.884 149.607C329.884 150.714 329.744 151.659 329.466 152.441C329.188 153.22 328.785 153.815 328.258 154.226C327.731 154.634 327.093 154.837 326.344 154.837ZM326.344 153.744C327.086 153.744 327.663 153.386 328.074 152.67C328.485 151.954 328.69 150.933 328.69 149.607C328.69 148.726 328.596 147.975 328.407 147.355C328.221 146.735 327.953 146.263 327.602 145.938C327.254 145.613 326.834 145.451 326.344 145.451C325.608 145.451 325.033 145.814 324.619 146.54C324.204 147.262 323.997 148.285 323.997 149.607C323.997 150.489 324.09 151.238 324.276 151.854C324.461 152.471 324.728 152.94 325.076 153.261C325.427 153.583 325.85 153.744 326.344 153.744ZM335.094 154.837C334.345 154.837 333.707 154.634 333.18 154.226C332.653 153.815 332.25 153.22 331.972 152.441C331.693 151.659 331.554 150.714 331.554 149.607C331.554 148.507 331.693 147.567 331.972 146.788C332.253 146.006 332.658 145.41 333.185 144.999C333.715 144.584 334.351 144.377 335.094 144.377C335.836 144.377 336.471 144.584 336.998 144.999C337.528 145.41 337.933 146.006 338.211 146.788C338.493 147.567 338.634 148.507 338.634 149.607C338.634 150.714 338.494 151.659 338.216 152.441C337.938 153.22 337.535 153.815 337.008 154.226C336.481 154.634 335.843 154.837 335.094 154.837ZM335.094 153.744C335.836 153.744 336.413 153.386 336.824 152.67C337.235 151.954 337.44 150.933 337.44 149.607C337.44 148.726 337.346 147.975 337.157 147.355C336.971 146.735 336.703 146.263 336.352 145.938C336.004 145.613 335.584 145.451 335.094 145.451C334.358 145.451 333.783 145.814 333.369 146.54C332.954 147.262 332.747 148.285 332.747 149.607C332.747 150.489 332.84 151.238 333.026 151.854C333.211 152.471 333.478 152.94 333.826 153.261C334.177 153.583 334.6 153.744 335.094 153.744Z" fill="#858991"/>
<path d="M375.325 144.516V154.698H374.092V145.809H374.032L371.547 147.46V146.207L374.092 144.516H375.325ZM381.694 154.837C381.037 154.837 380.452 154.725 379.939 154.499C379.428 154.274 379.022 153.961 378.721 153.56C378.422 153.155 378.26 152.686 378.233 152.153H379.486C379.513 152.481 379.625 152.764 379.824 153.003C380.023 153.238 380.283 153.421 380.605 153.55C380.926 153.679 381.283 153.744 381.674 153.744C382.111 153.744 382.499 153.667 382.837 153.515C383.175 153.363 383.44 153.15 383.632 152.879C383.825 152.607 383.921 152.292 383.921 151.934C383.921 151.56 383.828 151.23 383.642 150.945C383.457 150.656 383.185 150.431 382.827 150.269C382.469 150.106 382.032 150.025 381.515 150.025H380.699V148.931H381.515C381.919 148.931 382.274 148.858 382.578 148.712C382.887 148.567 383.127 148.361 383.299 148.096C383.475 147.831 383.563 147.519 383.563 147.161C383.563 146.817 383.487 146.517 383.334 146.261C383.182 146.006 382.966 145.807 382.688 145.665C382.413 145.522 382.088 145.451 381.713 145.451C381.362 145.451 381.031 145.516 380.719 145.645C380.411 145.771 380.159 145.955 379.963 146.197C379.768 146.435 379.662 146.724 379.645 147.062H378.452C378.472 146.528 378.633 146.061 378.934 145.66C379.236 145.256 379.63 144.941 380.118 144.715C380.608 144.49 381.147 144.377 381.733 144.377C382.363 144.377 382.903 144.505 383.354 144.76C383.805 145.012 384.151 145.345 384.393 145.759C384.635 146.174 384.756 146.621 384.756 147.102C384.756 147.675 384.605 148.164 384.304 148.568C384.005 148.973 383.599 149.253 383.086 149.408V149.488C383.729 149.594 384.231 149.868 384.592 150.308C384.953 150.746 385.134 151.288 385.134 151.934C385.134 152.488 384.983 152.985 384.681 153.426C384.383 153.863 383.975 154.208 383.458 154.46C382.941 154.711 382.353 154.837 381.694 154.837ZM388.042 153.396C387.797 153.396 387.587 153.308 387.411 153.132C387.235 152.957 387.147 152.746 387.147 152.501C387.147 152.256 387.235 152.045 387.411 151.869C387.587 151.694 387.797 151.606 388.042 151.606C388.288 151.606 388.498 151.694 388.674 151.869C388.849 152.045 388.937 152.256 388.937 152.501C388.937 152.663 388.896 152.812 388.813 152.948C388.733 153.084 388.626 153.194 388.49 153.276C388.357 153.356 388.208 153.396 388.042 153.396ZM388.042 148.245C387.797 148.245 387.587 148.157 387.411 147.982C387.235 147.806 387.147 147.595 387.147 147.35C387.147 147.105 387.235 146.895 387.411 146.719C387.587 146.543 387.797 146.455 388.042 146.455C388.288 146.455 388.498 146.543 388.674 146.719C388.849 146.895 388.937 147.105 388.937 147.35C388.937 147.513 388.896 147.662 388.813 147.798C388.733 147.934 388.626 148.043 388.49 148.126C388.357 148.205 388.208 148.245 388.042 148.245ZM394.344 154.837C393.595 154.837 392.957 154.634 392.43 154.226C391.903 153.815 391.5 153.22 391.222 152.441C390.943 151.659 390.804 150.714 390.804 149.607C390.804 148.507 390.943 147.567 391.222 146.788C391.503 146.006 391.908 145.41 392.435 144.999C392.965 144.584 393.601 144.377 394.344 144.377C395.086 144.377 395.721 144.584 396.248 144.999C396.778 145.41 397.183 146.006 397.461 146.788C397.743 147.567 397.884 148.507 397.884 149.607C397.884 150.714 397.744 151.659 397.466 152.441C397.188 153.22 396.785 153.815 396.258 154.226C395.731 154.634 395.093 154.837 394.344 154.837ZM394.344 153.744C395.086 153.744 395.663 153.386 396.074 152.67C396.485 151.954 396.69 150.933 396.69 149.607C396.69 148.726 396.596 147.975 396.407 147.355C396.221 146.735 395.953 146.263 395.602 145.938C395.254 145.613 394.834 145.451 394.344 145.451C393.608 145.451 393.033 145.814 392.619 146.54C392.204 147.262 391.997 148.285 391.997 149.607C391.997 150.489 392.09 151.238 392.276 151.854C392.461 152.471 392.728 152.94 393.076 153.261C393.427 153.583 393.85 153.744 394.344 153.744ZM403.094 154.837C402.345 154.837 401.707 154.634 401.18 154.226C400.653 153.815 400.25 153.22 399.972 152.441C399.693 151.659 399.554 150.714 399.554 149.607C399.554 148.507 399.693 147.567 399.972 146.788C400.253 146.006 400.658 145.41 401.185 144.999C401.715 144.584 402.351 144.377 403.094 144.377C403.836 144.377 404.471 144.584 404.998 144.999C405.528 145.41 405.933 146.006 406.211 146.788C406.493 147.567 406.634 148.507 406.634 149.607C406.634 150.714 406.494 151.659 406.216 152.441C405.938 153.22 405.535 153.815 405.008 154.226C404.481 154.634 403.843 154.837 403.094 154.837ZM403.094 153.744C403.836 153.744 404.413 153.386 404.824 152.67C405.235 151.954 405.44 150.933 405.44 149.607C405.44 148.726 405.346 147.975 405.157 147.355C404.971 146.735 404.703 146.263 404.352 145.938C404.004 145.613 403.584 145.451 403.094 145.451C402.358 145.451 401.783 145.814 401.369 146.54C400.954 147.262 400.747 148.285 400.747 149.607C400.747 150.489 400.84 151.238 401.026 151.854C401.211 152.471 401.478 152.94 401.826 153.261C402.177 153.583 402.6 153.744 403.094 153.744Z" fill="#858991"/>
<path d="M443.257 144.516V154.698H442.024V145.809H441.964L439.478 147.46V146.207L442.024 144.516H443.257ZM445.946 152.61V151.596L450.421 144.516H451.156V146.087H450.659L447.279 151.437V151.516H453.304V152.61H445.946ZM450.739 154.698V152.302V151.83V144.516H451.912V154.698H450.739ZM456.042 153.396C455.797 153.396 455.587 153.308 455.411 153.132C455.235 152.957 455.147 152.746 455.147 152.501C455.147 152.256 455.235 152.045 455.411 151.869C455.587 151.694 455.797 151.606 456.042 151.606C456.288 151.606 456.498 151.694 456.674 151.869C456.849 152.045 456.937 152.256 456.937 152.501C456.937 152.663 456.896 152.812 456.813 152.948C456.733 153.084 456.626 153.194 456.49 153.276C456.357 153.356 456.208 153.396 456.042 153.396ZM456.042 148.245C455.797 148.245 455.587 148.157 455.411 147.982C455.235 147.806 455.147 147.595 455.147 147.35C455.147 147.105 455.235 146.895 455.411 146.719C455.587 146.543 455.797 146.455 456.042 146.455C456.288 146.455 456.498 146.543 456.674 146.719C456.849 146.895 456.937 147.105 456.937 147.35C456.937 147.513 456.896 147.662 456.813 147.798C456.733 147.934 456.626 148.043 456.49 148.126C456.357 148.205 456.208 148.245 456.042 148.245ZM462.344 154.837C461.595 154.837 460.957 154.634 460.43 154.226C459.903 153.815 459.5 153.22 459.222 152.441C458.943 151.659 458.804 150.714 458.804 149.607C458.804 148.507 458.943 147.567 459.222 146.788C459.503 146.006 459.908 145.41 460.435 144.999C460.965 144.584 461.601 144.377 462.344 144.377C463.086 144.377 463.721 144.584 464.248 144.999C464.778 145.41 465.183 146.006 465.461 146.788C465.743 147.567 465.884 148.507 465.884 149.607C465.884 150.714 465.744 151.659 465.466 152.441C465.188 153.22 464.785 153.815 464.258 154.226C463.731 154.634 463.093 154.837 462.344 154.837ZM462.344 153.744C463.086 153.744 463.663 153.386 464.074 152.67C464.485 151.954 464.69 150.933 464.69 149.607C464.69 148.726 464.596 147.975 464.407 147.355C464.221 146.735 463.953 146.263 463.602 145.938C463.254 145.613 462.834 145.451 462.344 145.451C461.608 145.451 461.033 145.814 460.619 146.54C460.204 147.262 459.997 148.285 459.997 149.607C459.997 150.489 460.09 151.238 460.276 151.854C460.461 152.471 460.728 152.94 461.076 153.261C461.427 153.583 461.85 153.744 462.344 153.744ZM471.094 154.837C470.345 154.837 469.707 154.634 469.18 154.226C468.653 153.815 468.25 153.22 467.972 152.441C467.693 151.659 467.554 150.714 467.554 149.607C467.554 148.507 467.693 147.567 467.972 146.788C468.253 146.006 468.658 145.41 469.185 144.999C469.715 144.584 470.351 144.377 471.094 144.377C471.836 144.377 472.471 144.584 472.998 144.999C473.528 145.41 473.933 146.006 474.211 146.788C474.493 147.567 474.634 148.507 474.634 149.607C474.634 150.714 474.494 151.659 474.216 152.441C473.938 153.22 473.535 153.815 473.008 154.226C472.481 154.634 471.843 154.837 471.094 154.837ZM471.094 153.744C471.836 153.744 472.413 153.386 472.824 152.67C473.235 151.954 473.44 150.933 473.44 149.607C473.44 148.726 473.346 147.975 473.157 147.355C472.971 146.735 472.703 146.263 472.352 145.938C472.004 145.613 471.584 145.451 471.094 145.451C470.358 145.451 469.783 145.814 469.369 146.54C468.954 147.262 468.747 148.285 468.747 149.607C468.747 150.489 468.84 151.238 469.026 151.854C469.211 152.471 469.478 152.94 469.826 153.261C470.177 153.583 470.6 153.744 471.094 153.744Z" fill="#858991"/>
<path d="M511.721 144.516V154.698H510.488V145.809H510.429L507.943 147.46V146.207L510.488 144.516H511.721ZM517.831 154.837C517.248 154.837 516.723 154.721 516.256 154.489C515.788 154.257 515.414 153.939 515.132 153.535C514.85 153.131 514.696 152.67 514.67 152.153H515.863C515.909 152.613 516.118 152.995 516.489 153.296C516.864 153.595 517.311 153.744 517.831 153.744C518.249 153.744 518.62 153.646 518.945 153.45C519.273 153.255 519.53 152.986 519.716 152.645C519.905 152.3 519.999 151.911 519.999 151.477C519.999 151.033 519.901 150.636 519.706 150.288C519.514 149.937 519.248 149.66 518.91 149.458C518.572 149.256 518.186 149.153 517.752 149.15C517.44 149.147 517.121 149.195 516.792 149.294C516.464 149.39 516.194 149.515 515.982 149.667L514.829 149.528L515.445 144.516H520.735V145.61H516.479L516.121 148.613H516.181C516.39 148.447 516.652 148.31 516.966 148.2C517.281 148.091 517.609 148.036 517.951 148.036C518.574 148.036 519.129 148.185 519.616 148.484C520.107 148.779 520.491 149.183 520.77 149.697C521.051 150.211 521.192 150.797 521.192 151.457C521.192 152.106 521.046 152.686 520.755 153.197C520.466 153.704 520.069 154.105 519.562 154.4C519.055 154.692 518.478 154.837 517.831 154.837ZM524.042 153.396C523.797 153.396 523.587 153.308 523.411 153.132C523.235 152.957 523.147 152.746 523.147 152.501C523.147 152.256 523.235 152.045 523.411 151.869C523.587 151.694 523.797 151.606 524.042 151.606C524.288 151.606 524.498 151.694 524.674 151.869C524.849 152.045 524.937 152.256 524.937 152.501C524.937 152.663 524.896 152.812 524.813 152.948C524.733 153.084 524.626 153.194 524.49 153.276C524.357 153.356 524.208 153.396 524.042 153.396ZM524.042 148.245C523.797 148.245 523.587 148.157 523.411 147.982C523.235 147.806 523.147 147.595 523.147 147.35C523.147 147.105 523.235 146.895 523.411 146.719C523.587 146.543 523.797 146.455 524.042 146.455C524.288 146.455 524.498 146.543 524.674 146.719C524.849 146.895 524.937 147.105 524.937 147.35C524.937 147.513 524.896 147.662 524.813 147.798C524.733 147.934 524.626 148.043 524.49 148.126C524.357 148.205 524.208 148.245 524.042 148.245ZM530.344 154.837C529.595 154.837 528.957 154.634 528.43 154.226C527.903 153.815 527.5 153.22 527.222 152.441C526.943 151.659 526.804 150.714 526.804 149.607C526.804 148.507 526.943 147.567 527.222 146.788C527.503 146.006 527.908 145.41 528.435 144.999C528.965 144.584 529.601 144.377 530.344 144.377C531.086 144.377 531.721 144.584 532.248 144.999C532.778 145.41 533.183 146.006 533.461 146.788C533.743 147.567 533.884 148.507 533.884 149.607C533.884 150.714 533.744 151.659 533.466 152.441C533.188 153.22 532.785 153.815 532.258 154.226C531.731 154.634 531.093 154.837 530.344 154.837ZM530.344 153.744C531.086 153.744 531.663 153.386 532.074 152.67C532.485 151.954 532.69 150.933 532.69 149.607C532.69 148.726 532.596 147.975 532.407 147.355C532.221 146.735 531.953 146.263 531.602 145.938C531.254 145.613 530.834 145.451 530.344 145.451C529.608 145.451 529.033 145.814 528.619 146.54C528.204 147.262 527.997 148.285 527.997 149.607C527.997 150.489 528.09 151.238 528.276 151.854C528.461 152.471 528.728 152.94 529.076 153.261C529.427 153.583 529.85 153.744 530.344 153.744ZM539.094 154.837C538.345 154.837 537.707 154.634 537.18 154.226C536.653 153.815 536.25 153.22 535.972 152.441C535.693 151.659 535.554 150.714 535.554 149.607C535.554 148.507 535.693 147.567 535.972 146.788C536.253 146.006 536.658 145.41 537.185 144.999C537.715 144.584 538.351 144.377 539.094 144.377C539.836 144.377 540.471 144.584 540.998 144.999C541.528 145.41 541.933 146.006 542.211 146.788C542.493 147.567 542.634 148.507 542.634 149.607C542.634 150.714 542.494 151.659 542.216 152.441C541.938 153.22 541.535 153.815 541.008 154.226C540.481 154.634 539.843 154.837 539.094 154.837ZM539.094 153.744C539.836 153.744 540.413 153.386 540.824 152.67C541.235 151.954 541.44 150.933 541.44 149.607C541.44 148.726 541.346 147.975 541.157 147.355C540.971 146.735 540.703 146.263 540.352 145.938C540.004 145.613 539.584 145.451 539.094 145.451C538.358 145.451 537.783 145.814 537.369 146.54C536.954 147.262 536.747 148.285 536.747 149.607C536.747 150.489 536.84 151.238 537.026 151.854C537.211 152.471 537.478 152.94 537.826 153.261C538.177 153.583 538.6 153.744 539.094 153.744Z" fill="#858991"/>
<path d="M579.503 144.516V154.698H578.27V145.809H578.21L575.724 147.46V146.207L578.27 144.516H579.503ZM585.812 154.837C585.394 154.831 584.976 154.751 584.559 154.599C584.141 154.446 583.76 154.189 583.415 153.828C583.071 153.464 582.794 152.971 582.585 152.352C582.376 151.729 582.272 150.946 582.272 150.005C582.272 149.104 582.356 148.305 582.525 147.609C582.694 146.909 582.94 146.321 583.261 145.844C583.583 145.363 583.97 144.999 584.425 144.75C584.882 144.502 585.397 144.377 585.971 144.377C586.541 144.377 587.048 144.492 587.492 144.72C587.939 144.946 588.304 145.261 588.586 145.665C588.867 146.069 589.05 146.535 589.133 147.062H587.92C587.807 146.604 587.588 146.225 587.263 145.923C586.939 145.622 586.508 145.471 585.971 145.471C585.182 145.471 584.56 145.814 584.106 146.5C583.656 147.186 583.429 148.149 583.425 149.389H583.505C583.69 149.107 583.911 148.867 584.166 148.668C584.425 148.466 584.71 148.31 585.021 148.2C585.333 148.091 585.662 148.036 586.01 148.036C586.594 148.036 587.127 148.182 587.611 148.474C588.095 148.762 588.483 149.162 588.775 149.672C589.066 150.179 589.212 150.761 589.212 151.417C589.212 152.047 589.071 152.623 588.79 153.147C588.508 153.667 588.112 154.082 587.601 154.39C587.094 154.695 586.498 154.844 585.812 154.837ZM585.812 153.744C586.229 153.744 586.604 153.639 586.935 153.43C587.27 153.222 587.533 152.942 587.726 152.59C587.921 152.239 588.019 151.848 588.019 151.417C588.019 150.996 587.925 150.613 587.736 150.269C587.55 149.921 587.293 149.644 586.965 149.438C586.64 149.233 586.269 149.13 585.851 149.13C585.537 149.13 585.243 149.193 584.971 149.319C584.7 149.442 584.461 149.611 584.256 149.826C584.053 150.042 583.894 150.288 583.778 150.567C583.662 150.842 583.604 151.132 583.604 151.437C583.604 151.841 583.699 152.219 583.888 152.57C584.08 152.922 584.342 153.205 584.673 153.421C585.008 153.636 585.387 153.744 585.812 153.744ZM592.042 153.396C591.797 153.396 591.587 153.308 591.411 153.132C591.235 152.957 591.147 152.746 591.147 152.501C591.147 152.256 591.235 152.045 591.411 151.869C591.587 151.694 591.797 151.606 592.042 151.606C592.288 151.606 592.498 151.694 592.674 151.869C592.849 152.045 592.937 152.256 592.937 152.501C592.937 152.663 592.896 152.812 592.813 152.948C592.733 153.084 592.626 153.194 592.49 153.276C592.357 153.356 592.208 153.396 592.042 153.396ZM592.042 148.245C591.797 148.245 591.587 148.157 591.411 147.982C591.235 147.806 591.147 147.595 591.147 147.35C591.147 147.105 591.235 146.895 591.411 146.719C591.587 146.543 591.797 146.455 592.042 146.455C592.288 146.455 592.498 146.543 592.674 146.719C592.849 146.895 592.937 147.105 592.937 147.35C592.937 147.513 592.896 147.662 592.813 147.798C592.733 147.934 592.626 148.043 592.49 148.126C592.357 148.205 592.208 148.245 592.042 148.245ZM598.344 154.837C597.595 154.837 596.957 154.634 596.43 154.226C595.903 153.815 595.5 153.22 595.222 152.441C594.943 151.659 594.804 150.714 594.804 149.607C594.804 148.507 594.943 147.567 595.222 146.788C595.503 146.006 595.908 145.41 596.435 144.999C596.965 144.584 597.601 144.377 598.344 144.377C599.086 144.377 599.721 144.584 600.248 144.999C600.778 145.41 601.183 146.006 601.461 146.788C601.743 147.567 601.884 148.507 601.884 149.607C601.884 150.714 601.744 151.659 601.466 152.441C601.188 153.22 600.785 153.815 600.258 154.226C599.731 154.634 599.093 154.837 598.344 154.837ZM598.344 153.744C599.086 153.744 599.663 153.386 600.074 152.67C600.485 151.954 600.69 150.933 600.69 149.607C600.69 148.726 600.596 147.975 600.407 147.355C600.221 146.735 599.953 146.263 599.602 145.938C599.254 145.613 598.834 145.451 598.344 145.451C597.608 145.451 597.033 145.814 596.619 146.54C596.204 147.262 595.997 148.285 595.997 149.607C595.997 150.489 596.09 151.238 596.276 151.854C596.461 152.471 596.728 152.94 597.076 153.261C597.427 153.583 597.85 153.744 598.344 153.744ZM607.094 154.837C606.345 154.837 605.707 154.634 605.18 154.226C604.653 153.815 604.25 153.22 603.972 152.441C603.693 151.659 603.554 150.714 603.554 149.607C603.554 148.507 603.693 147.567 603.972 146.788C604.253 146.006 604.658 145.41 605.185 144.999C605.715 144.584 606.351 144.377 607.094 144.377C607.836 144.377 608.471 144.584 608.998 144.999C609.528 145.41 609.933 146.006 610.211 146.788C610.493 147.567 610.634 148.507 610.634 149.607C610.634 150.714 610.494 151.659 610.216 152.441C609.938 153.22 609.535 153.815 609.008 154.226C608.481 154.634 607.843 154.837 607.094 154.837ZM607.094 153.744C607.836 153.744 608.413 153.386 608.824 152.67C609.235 151.954 609.44 150.933 609.44 149.607C609.44 148.726 609.346 147.975 609.157 147.355C608.971 146.735 608.703 146.263 608.352 145.938C608.004 145.613 607.584 145.451 607.094 145.451C606.358 145.451 605.783 145.814 605.369 146.54C604.954 147.262 604.747 148.285 604.747 149.607C604.747 150.489 604.84 151.238 605.026 151.854C605.211 152.471 605.478 152.94 605.826 153.261C606.177 153.583 606.6 153.744 607.094 153.744Z" fill="#858991"/>
<path d="M647.719 144.516V154.698H646.487V145.809H646.427L643.941 147.46V146.207L646.487 144.516H647.719ZM650.966 154.698L655.52 145.69V145.61H650.27V144.516H656.793V145.67L652.259 154.698H650.966ZM659.042 153.396C658.797 153.396 658.587 153.308 658.411 153.132C658.235 152.957 658.147 152.746 658.147 152.501C658.147 152.256 658.235 152.045 658.411 151.869C658.587 151.694 658.797 151.606 659.042 151.606C659.288 151.606 659.498 151.694 659.674 151.869C659.849 152.045 659.937 152.256 659.937 152.501C659.937 152.663 659.896 152.812 659.813 152.948C659.733 153.084 659.626 153.194 659.49 153.276C659.357 153.356 659.208 153.396 659.042 153.396ZM659.042 148.245C658.797 148.245 658.587 148.157 658.411 147.982C658.235 147.806 658.147 147.595 658.147 147.35C658.147 147.105 658.235 146.895 658.411 146.719C658.587 146.543 658.797 146.455 659.042 146.455C659.288 146.455 659.498 146.543 659.674 146.719C659.849 146.895 659.937 147.105 659.937 147.35C659.937 147.513 659.896 147.662 659.813 147.798C659.733 147.934 659.626 148.043 659.49 148.126C659.357 148.205 659.208 148.245 659.042 148.245ZM665.344 154.837C664.595 154.837 663.957 154.634 663.43 154.226C662.903 153.815 662.5 153.22 662.222 152.441C661.943 151.659 661.804 150.714 661.804 149.607C661.804 148.507 661.943 147.567 662.222 146.788C662.503 146.006 662.908 145.41 663.435 144.999C663.965 144.584 664.601 144.377 665.344 144.377C666.086 144.377 666.721 144.584 667.248 144.999C667.778 145.41 668.183 146.006 668.461 146.788C668.743 147.567 668.884 148.507 668.884 149.607C668.884 150.714 668.744 151.659 668.466 152.441C668.188 153.22 667.785 153.815 667.258 154.226C666.731 154.634 666.093 154.837 665.344 154.837ZM665.344 153.744C666.086 153.744 666.663 153.386 667.074 152.67C667.485 151.954 667.69 150.933 667.69 149.607C667.69 148.726 667.596 147.975 667.407 147.355C667.221 146.735 666.953 146.263 666.602 145.938C666.254 145.613 665.834 145.451 665.344 145.451C664.608 145.451 664.033 145.814 663.619 146.54C663.204 147.262 662.997 148.285 662.997 149.607C662.997 150.489 663.09 151.238 663.276 151.854C663.461 152.471 663.728 152.94 664.076 153.261C664.427 153.583 664.85 153.744 665.344 153.744ZM674.094 154.837C673.345 154.837 672.707 154.634 672.18 154.226C671.653 153.815 671.25 153.22 670.972 152.441C670.693 151.659 670.554 150.714 670.554 149.607C670.554 148.507 670.693 147.567 670.972 146.788C671.253 146.006 671.658 145.41 672.185 144.999C672.715 144.584 673.351 144.377 674.094 144.377C674.836 144.377 675.471 144.584 675.998 144.999C676.528 145.41 676.933 146.006 677.211 146.788C677.493 147.567 677.634 148.507 677.634 149.607C677.634 150.714 677.494 151.659 677.216 152.441C676.938 153.22 676.535 153.815 676.008 154.226C675.481 154.634 674.843 154.837 674.094 154.837ZM674.094 153.744C674.836 153.744 675.413 153.386 675.824 152.67C676.235 151.954 676.44 150.933 676.44 149.607C676.44 148.726 676.346 147.975 676.157 147.355C675.971 146.735 675.703 146.263 675.352 145.938C675.004 145.613 674.584 145.451 674.094 145.451C673.358 145.451 672.783 145.814 672.369 146.54C671.954 147.262 671.747 148.285 671.747 149.607C671.747 150.489 671.84 151.238 672.026 151.854C672.211 152.471 672.478 152.94 672.826 153.261C673.177 153.583 673.6 153.744 674.094 153.744Z" fill="#858991"/>
<path d="M714.612 144.516V154.698H713.379V145.809H713.319L710.834 147.46V146.207L713.379 144.516H714.612ZM720.802 154.837C720.119 154.837 719.516 154.716 718.992 154.475C718.472 154.229 718.066 153.893 717.774 153.465C717.482 153.034 717.338 152.544 717.341 151.994C717.338 151.563 717.423 151.165 717.595 150.801C717.767 150.433 718.003 150.126 718.301 149.881C718.603 149.632 718.939 149.475 719.31 149.408V149.349C718.823 149.223 718.435 148.949 718.147 148.528C717.858 148.104 717.716 147.622 717.719 147.082C717.716 146.565 717.847 146.102 718.112 145.695C718.377 145.287 718.742 144.966 719.206 144.73C719.673 144.495 720.205 144.377 720.802 144.377C721.392 144.377 721.919 144.495 722.383 144.73C722.847 144.966 723.211 145.287 723.476 145.695C723.745 146.102 723.881 146.565 723.884 147.082C723.881 147.622 723.733 148.104 723.442 148.528C723.153 148.949 722.77 149.223 722.293 149.349V149.408C722.661 149.475 722.992 149.632 723.287 149.881C723.582 150.126 723.818 150.433 723.993 150.801C724.169 151.165 724.259 151.563 724.262 151.994C724.259 152.544 724.109 153.034 723.814 153.465C723.523 153.893 723.117 154.229 722.596 154.475C722.079 154.716 721.481 154.837 720.802 154.837ZM720.802 153.744C721.262 153.744 721.66 153.669 721.995 153.52C722.33 153.371 722.588 153.16 722.77 152.889C722.953 152.617 723.046 152.299 723.049 151.934C723.046 151.55 722.946 151.21 722.751 150.915C722.555 150.62 722.288 150.388 721.95 150.219C721.615 150.05 721.233 149.965 720.802 149.965C720.367 149.965 719.98 150.05 719.638 150.219C719.3 150.388 719.033 150.62 718.838 150.915C718.646 151.21 718.551 151.55 718.555 151.934C718.551 152.299 718.639 152.617 718.818 152.889C719 153.16 719.26 153.371 719.599 153.52C719.937 153.669 720.338 153.744 720.802 153.744ZM720.802 148.911C721.166 148.911 721.489 148.838 721.771 148.693C722.056 148.547 722.28 148.343 722.442 148.081C722.605 147.819 722.688 147.513 722.691 147.161C722.688 146.817 722.606 146.517 722.447 146.261C722.288 146.003 722.068 145.804 721.786 145.665C721.504 145.522 721.176 145.451 720.802 145.451C720.421 145.451 720.087 145.522 719.802 145.665C719.517 145.804 719.297 146.003 719.141 146.261C718.985 146.517 718.909 146.817 718.912 147.161C718.909 147.513 718.987 147.819 719.146 148.081C719.309 148.343 719.532 148.547 719.817 148.693C720.102 148.838 720.43 148.911 720.802 148.911ZM727.042 153.396C726.797 153.396 726.587 153.308 726.411 153.132C726.235 152.957 726.147 152.746 726.147 152.501C726.147 152.256 726.235 152.045 726.411 151.869C726.587 151.694 726.797 151.606 727.042 151.606C727.288 151.606 727.498 151.694 727.674 151.869C727.849 152.045 727.937 152.256 727.937 152.501C727.937 152.663 727.896 152.812 727.813 152.948C727.733 153.084 727.626 153.194 727.49 153.276C727.357 153.356 727.208 153.396 727.042 153.396ZM727.042 148.245C726.797 148.245 726.587 148.157 726.411 147.982C726.235 147.806 726.147 147.595 726.147 147.35C726.147 147.105 726.235 146.895 726.411 146.719C726.587 146.543 726.797 146.455 727.042 146.455C727.288 146.455 727.498 146.543 727.674 146.719C727.849 146.895 727.937 147.105 727.937 147.35C727.937 147.513 727.896 147.662 727.813 147.798C727.733 147.934 727.626 148.043 727.49 148.126C727.357 148.205 727.208 148.245 727.042 148.245ZM733.344 154.837C732.595 154.837 731.957 154.634 731.43 154.226C730.903 153.815 730.5 153.22 730.222 152.441C729.943 151.659 729.804 150.714 729.804 149.607C729.804 148.507 729.943 147.567 730.222 146.788C730.503 146.006 730.908 145.41 731.435 144.999C731.965 144.584 732.601 144.377 733.344 144.377C734.086 144.377 734.721 144.584 735.248 144.999C735.778 145.41 736.183 146.006 736.461 146.788C736.743 147.567 736.884 148.507 736.884 149.607C736.884 150.714 736.744 151.659 736.466 152.441C736.188 153.22 735.785 153.815 735.258 154.226C734.731 154.634 734.093 154.837 733.344 154.837ZM733.344 153.744C734.086 153.744 734.663 153.386 735.074 152.67C735.485 151.954 735.69 150.933 735.69 149.607C735.69 148.726 735.596 147.975 735.407 147.355C735.221 146.735 734.953 146.263 734.602 145.938C734.254 145.613 733.834 145.451 733.344 145.451C732.608 145.451 732.033 145.814 731.619 146.54C731.204 147.262 730.997 148.285 730.997 149.607C730.997 150.489 731.09 151.238 731.276 151.854C731.461 152.471 731.728 152.94 732.076 153.261C732.427 153.583 732.85 153.744 733.344 153.744ZM742.094 154.837C741.345 154.837 740.707 154.634 740.18 154.226C739.653 153.815 739.25 153.22 738.972 152.441C738.693 151.659 738.554 150.714 738.554 149.607C738.554 148.507 738.693 147.567 738.972 146.788C739.253 146.006 739.658 145.41 740.185 144.999C740.715 144.584 741.351 144.377 742.094 144.377C742.836 144.377 743.471 144.584 743.998 144.999C744.528 145.41 744.933 146.006 745.211 146.788C745.493 147.567 745.634 148.507 745.634 149.607C745.634 150.714 745.494 151.659 745.216 152.441C744.938 153.22 744.535 153.815 744.008 154.226C743.481 154.634 742.843 154.837 742.094 154.837ZM742.094 153.744C742.836 153.744 743.413 153.386 743.824 152.67C744.235 151.954 744.44 150.933 744.44 149.607C744.44 148.726 744.346 147.975 744.157 147.355C743.971 146.735 743.703 146.263 743.352 145.938C743.004 145.613 742.584 145.451 742.094 145.451C741.358 145.451 740.783 145.814 740.369 146.54C739.954 147.262 739.747 148.285 739.747 149.607C739.747 150.489 739.84 151.238 740.026 151.854C740.211 152.471 740.478 152.94 740.826 153.261C741.177 153.583 741.6 153.744 742.094 153.744Z" fill="#858991"/>
<path d="M744.652 9.95605L744.652 29.6957L98.5303 29.6957L98.5303 9.95603L744.652 9.95605Z" fill="#E0E0E0"/>
<path d="M744.652 9.95605L744.652 29.6957L294.345 29.6957L294.345 9.95604L744.652 9.95605Z" fill="#87BC45"/>
<rect x="435.445" y="9.95605" width="8.57101" height="19.7397" fill="#E0E0E0"/>
<rect x="379.406" y="9.95605" width="5.27358" height="19.7397" fill="#FE3E29"/>
<rect x="122.68" y="9.95605" width="172.299" height="19.7397" fill="#87BC45"/>
<rect x="443.781" y="9.95605" width="101.813" height="19.7397" fill="#87BC45"/>
<rect x="548.859" y="9.95605" width="120.74" height="19.7397" fill="#87BC45"/>
<path d="M744.656 56.0156L744.656 75.7553L98.5342 75.7553L98.5342 56.0156L744.656 56.0156Z" fill="#E0E0E0"/>
<path d="M705.496 56.0156L705.496 75.7553L294.328 75.7553L294.328 56.0156L705.496 56.0156Z" fill="#87BC45"/>
<rect x="98.5312" y="56.0156" width="192.518" height="19.7397" fill="#87BC45"/>
<rect x="542.906" y="56.0156" width="2.63767" height="19.7397" fill="#DA1904"/>
<rect x="193.473" y="56.0156" width="2.63767" height="19.7397" fill="#DA1904"/>
<rect width="75.1611" height="19.7397" transform="matrix(-1 0 0 1 744.656 56.0156)" fill="#87BC45"/>
<path d="M744.652 98.7842L744.652 118.524L98.5303 118.524L98.5303 98.7842L744.652 98.7842Z" fill="#E0E0E0"/>
<rect x="383.086" y="98.7842" width="54.8225" height="19.7397" fill="#87BC45"/>
<rect x="100.512" y="98.7842" width="282.843" height="19.7397" fill="#87BC45"/>
<rect x="443.781" y="98.7842" width="101.813" height="19.7397" fill="#87BC45"/>
<rect x="548.84" y="98.7842" width="190.54" height="19.7397" fill="#87BC45"/>
</svg>
