<svg width="753" height="178" viewBox="0 0 753 178" fill="none" xmlns="http://www.w3.org/2000/svg">
<path d="M94.4023 142.187H752.988" stroke="#E0E0E0" stroke-width="0.657362"/>
<path d="M94.75 141.962L94.75 13.998" stroke="#E0E0E0" stroke-width="0.657362"/>
<path d="M10.4639 81.1327C10.4639 82.2066 10.27 83.1346 9.88223 83.9168C9.49445 84.699 8.96249 85.3022 8.28635 85.7265C7.61022 86.1507 6.83796 86.3628 5.96959 86.3628C5.10122 86.3628 4.32897 86.1507 3.65283 85.7265C2.97669 85.3022 2.44473 84.699 2.05695 83.9168C1.66916 83.1346 1.47527 82.2066 1.47527 81.1327C1.47527 80.0589 1.66916 79.1308 2.05695 78.3486C2.44473 77.5664 2.97669 76.9632 3.65283 76.539C4.32897 76.1147 5.10122 75.9026 5.96959 75.9026C6.83796 75.9026 7.61022 76.1147 8.28635 76.539C8.96249 76.9632 9.49445 77.5664 9.88223 78.3486C10.27 79.1308 10.4639 80.0589 10.4639 81.1327ZM9.27073 81.1327C9.27073 80.2511 9.12324 79.507 8.82826 78.9005C8.53659 78.2939 8.14052 77.8349 7.64005 77.5233C7.14289 77.2118 6.58607 77.056 5.96959 77.056C5.35311 77.056 4.79464 77.2118 4.29416 77.5233C3.79701 77.8349 3.40094 78.2939 3.10595 78.9005C2.81429 79.507 2.66845 80.2511 2.66845 81.1327C2.66845 82.0144 2.81429 82.7584 3.10595 83.365C3.40094 83.9715 3.79701 84.4305 4.29416 84.7421C4.79464 85.0537 5.35311 85.2094 5.96959 85.2094C6.58607 85.2094 7.14289 85.0537 7.64005 84.7421C8.14052 84.4305 8.53659 83.9715 8.82826 83.365C9.12324 82.7584 9.27073 82.0144 9.27073 81.1327ZM12.378 89.0873V78.5873H13.5115V79.8003H13.6507C13.7369 79.6678 13.8562 79.4987 14.0087 79.2932C14.1644 79.0844 14.3865 78.8988 14.6748 78.7364C14.9665 78.5707 15.3609 78.4878 15.8581 78.4878C16.5011 78.4878 17.0678 78.6486 17.5584 78.9701C18.0489 79.2916 18.4317 79.7473 18.7068 80.3373C18.9819 80.9272 19.1194 81.6233 19.1194 82.4253C19.1194 83.234 18.9819 83.935 18.7068 84.5283C18.4317 85.1183 18.0506 85.5757 17.5633 85.9005C17.0761 86.222 16.5143 86.3827 15.878 86.3827C15.3874 86.3827 14.9947 86.3015 14.6997 86.1391C14.4047 85.9734 14.1777 85.7861 14.0186 85.5773C13.8595 85.3652 13.7369 85.1895 13.6507 85.0503H13.5513V89.0873H12.378ZM13.5314 82.4055C13.5314 82.9822 13.6159 83.4909 13.7849 83.9317C13.954 84.3692 14.2009 84.7123 14.5257 84.9608C14.8505 85.2061 15.2482 85.3287 15.7189 85.3287C16.2094 85.3287 16.6187 85.1995 16.9469 84.941C17.2783 84.6791 17.5269 84.3278 17.6926 83.887C17.8616 83.4429 17.9462 82.949 17.9462 82.4055C17.9462 81.8685 17.8633 81.3846 17.6976 80.9537C17.5352 80.5196 17.2882 80.1765 16.9568 79.9246C16.6287 79.6694 16.216 79.5418 15.7189 79.5418C15.2416 79.5418 14.8406 79.6628 14.5158 79.9047C14.1909 80.1434 13.9457 80.4781 13.78 80.909C13.6142 81.3366 13.5314 81.8354 13.5314 82.4055ZM24.1109 86.3827C23.3751 86.3827 22.7404 86.2203 22.2068 85.8955C21.6765 85.5674 21.2672 85.11 20.9788 84.5233C20.6938 83.9334 20.5513 83.2473 20.5513 82.4651C20.5513 81.6829 20.6938 80.9935 20.9788 80.3969C21.2672 79.797 21.6682 79.3297 22.1819 78.9949C22.699 78.6569 23.3022 78.4878 23.9916 78.4878C24.3893 78.4878 24.7821 78.5541 25.1699 78.6867C25.5577 78.8193 25.9106 79.0347 26.2288 79.333C26.547 79.628 26.8006 80.0191 26.9895 80.5063C27.1784 80.9935 27.2729 81.5934 27.2729 82.306V82.8032H21.3865V81.789H26.0797C26.0797 81.3581 25.9935 80.9736 25.8212 80.6356C25.6521 80.2975 25.4102 80.0307 25.0953 79.8351C24.7837 79.6396 24.4159 79.5418 23.9916 79.5418C23.5243 79.5418 23.1199 79.6578 22.7785 79.8898C22.4405 80.1185 22.1803 80.4168 21.998 80.7847C21.8157 81.1526 21.7246 81.547 21.7246 81.968V82.6441C21.7246 83.2208 21.824 83.7097 22.0229 84.1107C22.225 84.5084 22.5051 84.8117 22.8631 85.0205C23.221 85.226 23.637 85.3287 24.1109 85.3287C24.4192 85.3287 24.6976 85.2857 24.9462 85.1995C25.198 85.11 25.4151 84.9774 25.5974 84.8018C25.7797 84.6228 25.9206 84.4007 26.02 84.1356L27.1535 84.4537C27.0342 84.8382 26.8337 85.1763 26.552 85.468C26.2703 85.7563 25.9222 85.9817 25.5079 86.1441C25.0936 86.3032 24.628 86.3827 24.1109 86.3827ZM29.0577 86.2236V78.5873H30.1912V79.7407H30.2707C30.4099 79.3628 30.6618 79.0563 31.0264 78.8209C31.391 78.5856 31.802 78.468 32.2594 78.468C32.3455 78.468 32.4533 78.4696 32.5825 78.4729C32.7118 78.4762 32.8096 78.4812 32.8758 78.4878V79.681C32.8361 79.6711 32.7449 79.6562 32.6024 79.6363C32.4632 79.6131 32.3157 79.6015 32.1599 79.6015C31.7887 79.6015 31.4573 79.6794 31.1656 79.8351C30.8773 79.9876 30.6486 80.1997 30.4795 80.4715C30.3138 80.74 30.231 81.0465 30.231 81.3912V86.2236H29.0577ZM36.5138 86.4026C36.0299 86.4026 35.5907 86.3115 35.1963 86.1292C34.8019 85.9436 34.4887 85.6768 34.2567 85.3287C34.0247 84.9774 33.9087 84.5532 33.9087 84.056C33.9087 83.6185 33.9949 83.2639 34.1672 82.9921C34.3396 82.717 34.5699 82.5016 34.8583 82.3458C35.1466 82.19 35.4648 82.074 35.8128 81.9978C36.1641 81.9182 36.5171 81.8553 36.8718 81.8089C37.3358 81.7492 37.712 81.7045 38.0003 81.6746C38.292 81.6415 38.5041 81.5868 38.6367 81.5106C38.7726 81.4343 38.8405 81.3018 38.8405 81.1128V81.0731C38.8405 80.5825 38.7063 80.2014 38.4378 79.9296C38.1727 79.6578 37.77 79.5219 37.2297 79.5219C36.6696 79.5219 36.2304 79.6446 35.9122 79.8898C35.5941 80.1351 35.3703 80.3969 35.2411 80.6753L34.1274 80.2776C34.3263 79.8136 34.5915 79.4523 34.9229 79.1938C35.2576 78.932 35.6222 78.7497 36.0166 78.6469C36.4144 78.5409 36.8055 78.4878 37.1899 78.4878C37.4352 78.4878 37.7169 78.5177 38.0351 78.5773C38.3566 78.6337 38.6665 78.7513 38.9648 78.9303C39.2664 79.1093 39.5166 79.3794 39.7155 79.7407C39.9144 80.1019 40.0138 80.5858 40.0138 81.1924V86.2236H38.8405V85.1895H38.7808C38.7013 85.3553 38.5687 85.5326 38.3831 85.7215C38.1975 85.9104 37.9506 86.0712 37.6424 86.2037C37.3341 86.3363 36.9579 86.4026 36.5138 86.4026ZM36.6928 85.3486C37.1568 85.3486 37.5479 85.2575 37.8661 85.0752C38.1876 84.8929 38.4295 84.6576 38.5919 84.3692C38.7576 84.0809 38.8405 83.7776 38.8405 83.4594V82.3856C38.7908 82.4452 38.6814 82.4999 38.5124 82.5496C38.3467 82.596 38.1544 82.6375 37.9357 82.6739C37.7202 82.7071 37.5098 82.7369 37.3043 82.7634C37.1021 82.7866 36.938 82.8065 36.8121 82.8231C36.5072 82.8628 36.2221 82.9275 35.957 83.017C35.6951 83.1031 35.483 83.234 35.3206 83.4097C35.1615 83.5821 35.082 83.8174 35.082 84.1157C35.082 84.5233 35.2328 84.8316 35.5344 85.0404C35.8393 85.2459 36.2255 85.3486 36.6928 85.3486ZM45.4763 78.5873V79.5816H41.519V78.5873H45.4763ZM42.6724 76.7577H43.8457V84.0361C43.8457 84.3676 43.8937 84.6162 43.9898 84.7819C44.0893 84.9443 44.2152 85.0537 44.3677 85.11C44.5234 85.163 44.6875 85.1895 44.8599 85.1895C44.9891 85.1895 45.0952 85.1829 45.178 85.1697C45.2609 85.1531 45.3272 85.1398 45.3769 85.1299L45.6155 86.1839C45.536 86.2137 45.425 86.2435 45.2824 86.2733C45.1399 86.3065 44.9593 86.3231 44.7405 86.3231C44.4091 86.3231 44.0843 86.2518 43.7661 86.1093C43.4512 85.9668 43.1894 85.7497 42.9806 85.458C42.7751 85.1663 42.6724 84.7984 42.6724 84.3543V76.7577ZM47.2413 86.2236V78.5873H48.4145V86.2236H47.2413ZM47.8378 77.3145C47.6092 77.3145 47.4119 77.2367 47.2462 77.0809C47.0838 76.9251 47.0026 76.7378 47.0026 76.5191C47.0026 76.3003 47.0838 76.1131 47.2462 75.9573C47.4119 75.8015 47.6092 75.7236 47.8378 75.7236C48.0665 75.7236 48.2621 75.8015 48.4245 75.9573C48.5902 76.1131 48.6731 76.3003 48.6731 76.5191C48.6731 76.7378 48.5902 76.9251 48.4245 77.0809C48.2621 77.2367 48.0665 77.3145 47.8378 77.3145ZM53.6658 86.3827C52.9764 86.3827 52.3715 86.2187 51.8512 85.8905C51.3341 85.5624 50.9298 85.1034 50.6381 84.5134C50.3497 83.9234 50.2056 83.234 50.2056 82.4452C50.2056 81.6498 50.3497 80.9554 50.6381 80.3621C50.9298 79.7689 51.3341 79.3081 51.8512 78.98C52.3715 78.6519 52.9764 78.4878 53.6658 78.4878C54.3552 78.4878 54.9584 78.6519 55.4755 78.98C55.9958 79.3081 56.4002 79.7689 56.6885 80.3621C56.9802 80.9554 57.126 81.6498 57.126 82.4452C57.126 83.234 56.9802 83.9234 56.6885 84.5134C56.4002 85.1034 55.9958 85.5624 55.4755 85.8905C54.9584 86.2187 54.3552 86.3827 53.6658 86.3827ZM53.6658 85.3287C54.1895 85.3287 54.6203 85.1945 54.9584 84.926C55.2965 84.6576 55.5467 84.3046 55.7091 83.8671C55.8715 83.4296 55.9527 82.9556 55.9527 82.4452C55.9527 81.9348 55.8715 81.4592 55.7091 81.0184C55.5467 80.5776 55.2965 80.2213 54.9584 79.9495C54.6203 79.6777 54.1895 79.5418 53.6658 79.5418C53.1421 79.5418 52.7112 79.6777 52.3732 79.9495C52.0351 80.2213 51.7849 80.5776 51.6225 81.0184C51.4601 81.4592 51.3789 81.9348 51.3789 82.4452C51.3789 82.9556 51.4601 83.4296 51.6225 83.8671C51.7849 84.3046 52.0351 84.6576 52.3732 84.926C52.7112 85.1945 53.1421 85.3287 53.6658 85.3287ZM60.0903 81.6299V86.2236H58.917V78.5873H60.0506V79.7805H60.15C60.329 79.3927 60.6007 79.0811 60.9653 78.8458C61.3299 78.6072 61.8006 78.4878 62.3773 78.4878C62.8943 78.4878 63.3467 78.5939 63.7345 78.806C64.1223 79.0148 64.4239 79.333 64.6393 79.7606C64.8548 80.1848 64.9625 80.7217 64.9625 81.3714V86.2236H63.7892V81.4509C63.7892 80.851 63.6334 80.3837 63.3219 80.0489C63.0103 79.7108 62.5828 79.5418 62.0392 79.5418C61.6647 79.5418 61.3299 79.623 61.0349 79.7854C60.7433 79.9478 60.5129 80.1848 60.3439 80.4964C60.1748 80.8079 60.0903 81.1858 60.0903 81.6299ZM71.0241 86.2236V85.3287L74.3849 81.6498C74.7793 81.2189 75.1041 80.8444 75.3593 80.5262C75.6145 80.2047 75.8035 79.9031 75.9261 79.6214C76.052 79.3363 76.115 79.038 76.115 78.7265C76.115 78.3685 76.0288 78.0586 75.8565 77.7968C75.6875 77.5349 75.4554 77.3328 75.1605 77.1903C74.8655 77.0477 74.534 76.9765 74.1661 76.9765C73.775 76.9765 73.4337 77.0577 73.142 77.2201C72.8536 77.3792 72.6299 77.6029 72.4708 77.8912C72.3151 78.1796 72.2372 78.5177 72.2372 78.9055H71.0639C71.0639 78.3089 71.2014 77.7852 71.4765 77.3344C71.7516 76.8837 72.1261 76.5323 72.6001 76.2805C73.0774 76.0286 73.6126 75.9026 74.2059 75.9026C74.8025 75.9026 75.3312 76.0286 75.7919 76.2805C76.2526 76.5323 76.6138 76.8721 76.8757 77.2996C77.1375 77.7272 77.2684 78.2028 77.2684 78.7265C77.2684 79.101 77.2005 79.4672 77.0646 79.8252C76.932 80.1798 76.7 80.5759 76.3686 81.0134C76.0404 81.4476 75.5847 81.9779 75.0014 82.6043L72.7144 85.0503V85.1299H77.4474V86.2236H71.0241Z" fill="#858991"/>
<path d="M10.843 127.068C10.843 128.142 10.6491 129.07 10.2613 129.852C9.87352 130.635 9.34156 131.238 8.66543 131.662C7.98929 132.086 7.21704 132.298 6.34867 132.298C5.48029 132.298 4.70804 132.086 4.0319 131.662C3.35577 131.238 2.82381 130.635 2.43602 129.852C2.04824 129.07 1.85435 128.142 1.85435 127.068C1.85435 125.994 2.04824 125.066 2.43602 124.284C2.82381 123.502 3.35577 122.899 4.0319 122.475C4.70804 122.05 5.48029 121.838 6.34867 121.838C7.21704 121.838 7.98929 122.05 8.66543 122.475C9.34156 122.899 9.87352 123.502 10.2613 124.284C10.6491 125.066 10.843 125.994 10.843 127.068ZM9.6498 127.068C9.6498 126.187 9.50231 125.443 9.20733 124.836C8.91566 124.229 8.51959 123.77 8.01912 123.459C7.52196 123.147 6.96514 122.992 6.34867 122.992C5.73219 122.992 5.17371 123.147 4.67324 123.459C4.17608 123.77 3.78001 124.229 3.48503 124.836C3.19336 125.443 3.04753 126.187 3.04753 127.068C3.04753 127.95 3.19336 128.694 3.48503 129.301C3.78001 129.907 4.17608 130.366 4.67324 130.678C5.17371 130.989 5.73219 131.145 6.34867 131.145C6.96514 131.145 7.52196 130.989 8.01912 130.678C8.51959 130.366 8.91566 129.907 9.20733 129.301C9.50231 128.694 9.6498 127.95 9.6498 127.068ZM12.757 135.023V124.523H13.8906V125.736H14.0298C14.1159 125.603 14.2353 125.434 14.3877 125.229C14.5435 125.02 14.7656 124.834 15.0539 124.672C15.3456 124.506 15.74 124.423 16.2372 124.423C16.8802 124.423 17.4469 124.584 17.9374 124.906C18.428 125.227 18.8108 125.683 19.0859 126.273C19.361 126.863 19.4985 127.559 19.4985 128.361C19.4985 129.17 19.361 129.871 19.0859 130.464C18.8108 131.054 18.4296 131.511 17.9424 131.836C17.4552 132.158 16.8934 132.318 16.257 132.318C15.7665 132.318 15.3738 132.237 15.0788 132.075C14.7838 131.909 14.5568 131.722 14.3977 131.513C14.2386 131.301 14.1159 131.125 14.0298 130.986H13.9303V135.023H12.757ZM13.9105 128.341C13.9105 128.918 13.995 129.426 14.164 129.867C14.333 130.305 14.58 130.648 14.9048 130.896C15.2296 131.142 15.6273 131.264 16.098 131.264C16.5885 131.264 16.9978 131.135 17.3259 130.877C17.6574 130.615 17.906 130.263 18.0717 129.823C18.2407 129.378 18.3252 128.885 18.3252 128.341C18.3252 127.804 18.2424 127.32 18.0766 126.889C17.9142 126.455 17.6673 126.112 17.3359 125.86C17.0078 125.605 16.5951 125.477 16.098 125.477C15.6207 125.477 15.2196 125.598 14.8948 125.84C14.57 126.079 14.3248 126.414 14.159 126.845C13.9933 127.272 13.9105 127.771 13.9105 128.341ZM24.49 132.318C23.7542 132.318 23.1195 132.156 22.5859 131.831C22.0556 131.503 21.6462 131.046 21.3579 130.459C21.0729 129.869 20.9303 129.183 20.9303 128.401C20.9303 127.618 21.0729 126.929 21.3579 126.332C21.6462 125.733 22.0473 125.265 22.561 124.93C23.0781 124.592 23.6813 124.423 24.3707 124.423C24.7684 124.423 25.1612 124.49 25.5489 124.622C25.9367 124.755 26.2897 124.97 26.6079 125.269C26.9261 125.564 27.1796 125.955 27.3686 126.442C27.5575 126.929 27.6519 127.529 27.6519 128.242V128.739H21.7656V127.725H26.4588C26.4588 127.294 26.3726 126.909 26.2002 126.571C26.0312 126.233 25.7892 125.966 25.4744 125.771C25.1628 125.575 24.7949 125.477 24.3707 125.477C23.9034 125.477 23.499 125.593 23.1576 125.825C22.8195 126.054 22.5594 126.352 22.3771 126.72C22.1948 127.088 22.1036 127.483 22.1036 127.903V128.58C22.1036 129.156 22.2031 129.645 22.4019 130.046C22.6041 130.444 22.8842 130.747 23.2421 130.956C23.6001 131.162 24.016 131.264 24.49 131.264C24.7982 131.264 25.0766 131.221 25.3252 131.135C25.5771 131.046 25.7942 130.913 25.9765 130.737C26.1588 130.558 26.2997 130.336 26.3991 130.071L27.5326 130.389C27.4133 130.774 27.2128 131.112 26.9311 131.403C26.6493 131.692 26.3013 131.917 25.887 132.08C25.4727 132.239 25.007 132.318 24.49 132.318ZM29.4367 132.159V124.523H30.5703V125.676H30.6498C30.789 125.298 31.0409 124.992 31.4055 124.756C31.7701 124.521 32.1811 124.403 32.6384 124.403C32.7246 124.403 32.8323 124.405 32.9616 124.408C33.0909 124.412 33.1886 124.417 33.2549 124.423V125.617C33.2151 125.607 33.124 125.592 32.9815 125.572C32.8423 125.549 32.6948 125.537 32.539 125.537C32.1678 125.537 31.8364 125.615 31.5447 125.771C31.2563 125.923 31.0276 126.135 30.8586 126.407C30.6929 126.676 30.61 126.982 30.61 127.327V132.159H29.4367ZM36.8929 132.338C36.409 132.338 35.9698 132.247 35.5754 132.065C35.181 131.879 34.8678 131.612 34.6358 131.264C34.4038 130.913 34.2878 130.489 34.2878 129.992C34.2878 129.554 34.3739 129.199 34.5463 128.928C34.7186 128.653 34.949 128.437 35.2373 128.281C35.5257 128.126 35.8439 128.01 36.1919 127.933C36.5432 127.854 36.8962 127.791 37.2508 127.744C37.7148 127.685 38.091 127.64 38.3794 127.61C38.671 127.577 38.8832 127.522 39.0157 127.446C39.1516 127.37 39.2196 127.237 39.2196 127.048V127.009C39.2196 126.518 39.0853 126.137 38.8169 125.865C38.5517 125.593 38.149 125.457 37.6088 125.457C37.0487 125.457 36.6095 125.58 36.2913 125.825C35.9731 126.071 35.7494 126.332 35.6201 126.611L34.5065 126.213C34.7054 125.749 34.9705 125.388 35.302 125.129C35.6367 124.868 36.0013 124.685 36.3957 124.582C36.7934 124.476 37.1845 124.423 37.569 124.423C37.8143 124.423 38.096 124.453 38.4142 124.513C38.7357 124.569 39.0456 124.687 39.3439 124.866C39.6455 125.045 39.8957 125.315 40.0946 125.676C40.2934 126.037 40.3929 126.521 40.3929 127.128V132.159H39.2196V131.125H39.1599C39.0804 131.291 38.9478 131.468 38.7622 131.657C38.5766 131.846 38.3297 132.007 38.0214 132.139C37.7132 132.272 37.337 132.338 36.8929 132.338ZM37.0719 131.284C37.5359 131.284 37.927 131.193 38.2451 131.011C38.5666 130.828 38.8086 130.593 38.971 130.305C39.1367 130.016 39.2196 129.713 39.2196 129.395V128.321C39.1699 128.381 39.0605 128.435 38.8915 128.485C38.7257 128.532 38.5335 128.573 38.3148 128.609C38.0993 128.643 37.8889 128.672 37.6834 128.699C37.4812 128.722 37.3171 128.742 37.1912 128.759C36.8862 128.798 36.6012 128.863 36.3361 128.953C36.0742 129.039 35.8621 129.17 35.6997 129.345C35.5406 129.518 35.4611 129.753 35.4611 130.051C35.4611 130.459 35.6119 130.767 35.9135 130.976C36.2184 131.181 36.6045 131.284 37.0719 131.284ZM45.8554 124.523V125.517H41.898V124.523H45.8554ZM43.0514 122.693H44.2247V129.972C44.2247 130.303 44.2728 130.552 44.3689 130.717C44.4683 130.88 44.5943 130.989 44.7467 131.046C44.9025 131.099 45.0666 131.125 45.2389 131.125C45.3682 131.125 45.4743 131.118 45.5571 131.105C45.64 131.089 45.7063 131.075 45.756 131.065L45.9946 132.119C45.9151 132.149 45.804 132.179 45.6615 132.209C45.519 132.242 45.3384 132.259 45.1196 132.259C44.7882 132.259 44.4634 132.187 44.1452 132.045C43.8303 131.902 43.5685 131.685 43.3597 131.394C43.1542 131.102 43.0514 130.734 43.0514 130.29V122.693ZM47.6203 132.159V124.523H48.7936V132.159H47.6203ZM48.2169 123.25C47.9882 123.25 47.791 123.172 47.6253 123.016C47.4629 122.861 47.3817 122.673 47.3817 122.455C47.3817 122.236 47.4629 122.049 47.6253 121.893C47.791 121.737 47.9882 121.659 48.2169 121.659C48.4456 121.659 48.6412 121.737 48.8036 121.893C48.9693 122.049 49.0521 122.236 49.0521 122.455C49.0521 122.673 48.9693 122.861 48.8036 123.016C48.6412 123.172 48.4456 123.25 48.2169 123.25ZM54.0449 132.318C53.3555 132.318 52.7506 132.154 52.2302 131.826C51.7132 131.498 51.3088 131.039 51.0172 130.449C50.7288 129.859 50.5846 129.17 50.5846 128.381C50.5846 127.585 50.7288 126.891 51.0172 126.298C51.3088 125.704 51.7132 125.244 52.2302 124.916C52.7506 124.587 53.3555 124.423 54.0449 124.423C54.7343 124.423 55.3375 124.587 55.8545 124.916C56.3749 125.244 56.7792 125.704 57.0676 126.298C57.3593 126.891 57.5051 127.585 57.5051 128.381C57.5051 129.17 57.3593 129.859 57.0676 130.449C56.7792 131.039 56.3749 131.498 55.8545 131.826C55.3375 132.154 54.7343 132.318 54.0449 132.318ZM54.0449 131.264C54.5685 131.264 54.9994 131.13 55.3375 130.862C55.6755 130.593 55.9258 130.24 56.0882 129.803C56.2506 129.365 56.3318 128.891 56.3318 128.381C56.3318 127.87 56.2506 127.395 56.0882 126.954C55.9258 126.513 55.6755 126.157 55.3375 125.885C54.9994 125.613 54.5685 125.477 54.0449 125.477C53.5212 125.477 53.0903 125.613 52.7523 125.885C52.4142 126.157 52.1639 126.513 52.0015 126.954C51.8391 127.395 51.7579 127.87 51.7579 128.381C51.7579 128.891 51.8391 129.365 52.0015 129.803C52.1639 130.24 52.4142 130.593 52.7523 130.862C53.0903 131.13 53.5212 131.264 54.0449 131.264ZM60.4694 127.565V132.159H59.2961V124.523H60.4296V125.716H60.5291C60.708 125.328 60.9798 125.017 61.3444 124.781C61.709 124.543 62.1796 124.423 62.7563 124.423C63.2734 124.423 63.7258 124.529 64.1136 124.742C64.5014 124.95 64.803 125.269 65.0184 125.696C65.2338 126.12 65.3416 126.657 65.3416 127.307V132.159H64.1683V127.386C64.1683 126.787 64.0125 126.319 63.7009 125.984C63.3894 125.646 62.9618 125.477 62.4183 125.477C62.0437 125.477 61.709 125.559 61.414 125.721C61.1223 125.883 60.892 126.12 60.723 126.432C60.5539 126.743 60.4694 127.121 60.4694 127.565ZM74.8435 132.298C74.1873 132.298 73.6023 132.186 73.0885 131.96C72.5781 131.735 72.1721 131.422 71.8705 131.021C71.5722 130.616 71.4098 130.147 71.3833 129.614H72.6361C72.6626 129.942 72.7753 130.225 72.9742 130.464C73.1731 130.699 73.4332 130.881 73.7547 131.011C74.0762 131.14 74.4325 131.205 74.8236 131.205C75.2611 131.205 75.6489 131.128 75.987 130.976C76.325 130.823 76.5902 130.611 76.7824 130.34C76.9747 130.068 77.0708 129.753 77.0708 129.395C77.0708 129.02 76.978 128.691 76.7924 128.406C76.6068 128.117 76.335 127.892 75.977 127.729C75.6191 127.567 75.1816 127.486 74.6645 127.486H73.8492V126.392H74.6645C75.0689 126.392 75.4235 126.319 75.7285 126.173C76.0367 126.028 76.277 125.822 76.4493 125.557C76.625 125.292 76.7128 124.98 76.7128 124.622C76.7128 124.278 76.6366 123.978 76.4841 123.722C76.3317 123.467 76.1162 123.268 75.8378 123.126C75.5627 122.983 75.2379 122.912 74.8634 122.912C74.5121 122.912 74.1806 122.977 73.8691 123.106C73.5608 123.232 73.309 123.416 73.1134 123.658C72.9179 123.896 72.8118 124.185 72.7952 124.523H71.602C71.6219 123.989 71.7827 123.522 72.0843 123.121C72.3859 122.716 72.7803 122.402 73.2675 122.176C73.7581 121.951 74.2966 121.838 74.8833 121.838C75.513 121.838 76.0533 121.966 76.504 122.221C76.9548 122.473 77.3011 122.806 77.5431 123.22C77.785 123.635 77.906 124.082 77.906 124.563C77.906 125.136 77.7552 125.625 77.4536 126.029C77.1553 126.434 76.7493 126.714 76.2356 126.869V126.949C76.8786 127.055 77.3807 127.328 77.742 127.769C78.1032 128.207 78.2839 128.749 78.2839 129.395C78.2839 129.948 78.1331 130.446 77.8314 130.886C77.5331 131.324 77.1255 131.669 76.6084 131.921C76.0914 132.172 75.5031 132.298 74.8435 132.298Z" fill="#858991"/>
<path d="M13.0847 35.1942C13.0847 36.2681 12.8908 37.1961 12.503 37.9783C12.1152 38.7605 11.5832 39.3638 10.9071 39.788C10.231 40.2122 9.45872 40.4244 8.59035 40.4244C7.72198 40.4244 6.94972 40.2122 6.27359 39.788C5.59745 39.3638 5.06549 38.7605 4.67771 37.9783C4.28992 37.1961 4.09603 36.2681 4.09603 35.1942C4.09603 34.1204 4.28992 33.1924 4.67771 32.4102C5.06549 31.628 5.59745 31.0247 6.27359 30.6005C6.94972 30.1763 7.72198 29.9641 8.59035 29.9641C9.45872 29.9641 10.231 30.1763 10.9071 30.6005C11.5832 31.0247 12.1152 31.628 12.503 32.4102C12.8908 33.1924 13.0847 34.1204 13.0847 35.1942ZM11.8915 35.1942C11.8915 34.3126 11.744 33.5685 11.449 32.962C11.1573 32.3555 10.7613 31.8964 10.2608 31.5849C9.76364 31.2733 9.20683 31.1175 8.59035 31.1175C7.97387 31.1175 7.4154 31.2733 6.91492 31.5849C6.41776 31.8964 6.02169 32.3555 5.72671 32.962C5.43505 33.5685 5.28921 34.3126 5.28921 35.1942C5.28921 36.0759 5.43505 36.82 5.72671 37.4265C6.02169 38.033 6.41776 38.4921 6.91492 38.8036C7.4154 39.1152 7.97387 39.271 8.59035 39.271C9.20683 39.271 9.76364 39.1152 10.2608 38.8036C10.7613 38.4921 11.1573 38.033 11.449 37.4265C11.744 36.82 11.8915 36.0759 11.8915 35.1942ZM14.9987 43.1488V32.6488H16.1323V33.8619H16.2715C16.3576 33.7293 16.4769 33.5603 16.6294 33.3548C16.7852 33.146 17.0073 32.9603 17.2956 32.7979C17.5873 32.6322 17.9817 32.5494 18.4788 32.5494C19.1218 32.5494 19.6886 32.7101 20.1791 33.0316C20.6697 33.3531 21.0525 33.8088 21.3276 34.3988C21.6027 34.9888 21.7402 35.6848 21.7402 36.4869C21.7402 37.2956 21.6027 37.9966 21.3276 38.5898C21.0525 39.1798 20.6713 39.6372 20.1841 39.962C19.6969 40.2835 19.1351 40.4442 18.4987 40.4442C18.0082 40.4442 17.6154 40.363 17.3205 40.2006C17.0255 40.0349 16.7984 39.8477 16.6394 39.6388C16.4803 39.4267 16.3576 39.2511 16.2715 39.1119H16.172V43.1488H14.9987ZM16.1521 36.467C16.1521 37.0437 16.2367 37.5524 16.4057 37.9933C16.5747 38.4308 16.8216 38.7738 17.1465 39.0224C17.4713 39.2676 17.869 39.3903 18.3396 39.3903C18.8302 39.3903 19.2395 39.261 19.5676 39.0025C19.8991 38.7406 20.1476 38.3893 20.3134 37.9485C20.4824 37.5044 20.5669 37.0105 20.5669 36.467C20.5669 35.93 20.4841 35.4461 20.3183 35.0153C20.1559 34.5811 19.909 34.238 19.5776 33.9862C19.2494 33.7309 18.8368 33.6033 18.3396 33.6033C17.8624 33.6033 17.4613 33.7243 17.1365 33.9663C16.8117 34.2049 16.5664 34.5397 16.4007 34.9705C16.235 35.3981 16.1521 35.8969 16.1521 36.467ZM26.7317 40.4442C25.9959 40.4442 25.3612 40.2818 24.8276 39.957C24.2973 39.6289 23.8879 39.1715 23.5996 38.5849C23.3145 37.9949 23.172 37.3088 23.172 36.5266C23.172 35.7444 23.3145 35.055 23.5996 34.4585C23.8879 33.8585 24.289 33.3912 24.8027 33.0565C25.3198 32.7184 25.923 32.5494 26.6124 32.5494C27.0101 32.5494 27.4028 32.6156 27.7906 32.7482C28.1784 32.8808 28.5314 33.0962 28.8496 33.3945C29.1678 33.6895 29.4213 34.0806 29.6102 34.5678C29.7992 35.055 29.8936 35.6549 29.8936 36.3675V36.8647H24.0073V35.8505H28.7004C28.7004 35.4196 28.6143 35.0352 28.4419 34.6971C28.2729 34.359 28.0309 34.0922 27.7161 33.8967C27.4045 33.7011 27.0366 33.6033 26.6124 33.6033C26.145 33.6033 25.7407 33.7193 25.3993 33.9513C25.0612 34.18 24.801 34.4783 24.6188 34.8462C24.4365 35.2141 24.3453 35.6085 24.3453 36.0295V36.7056C24.3453 37.2823 24.4448 37.7712 24.6436 38.1722C24.8458 38.57 25.1259 38.8732 25.4838 39.082C25.8418 39.2875 26.2577 39.3903 26.7317 39.3903C27.0399 39.3903 27.3183 39.3472 27.5669 39.261C27.8188 39.1715 28.0359 39.0389 28.2182 38.8633C28.4005 38.6843 28.5413 38.4622 28.6408 38.1971L29.7743 38.5153C29.655 38.8997 29.4545 39.2378 29.1727 39.5295C28.891 39.8178 28.543 40.0432 28.1287 40.2056C27.7144 40.3647 27.2487 40.4442 26.7317 40.4442ZM31.6784 40.2852V32.6488H32.8119V33.8022H32.8915C33.0307 33.4244 33.2826 33.1178 33.6472 32.8825C34.0118 32.6471 34.4227 32.5295 34.8801 32.5295C34.9663 32.5295 35.074 32.5311 35.2033 32.5344C35.3325 32.5378 35.4303 32.5427 35.4966 32.5494V33.7425C35.4568 33.7326 35.3657 33.7177 35.2232 33.6978C35.084 33.6746 34.9365 33.663 34.7807 33.663C34.4095 33.663 34.078 33.7409 33.7864 33.8967C33.498 34.0491 33.2693 34.2612 33.1003 34.533C32.9346 34.8015 32.8517 35.1081 32.8517 35.4528V40.2852H31.6784ZM39.1346 40.4641C38.6507 40.4641 38.2115 40.373 37.8171 40.1907C37.4227 40.0051 37.1095 39.7383 36.8775 39.3903C36.6455 39.0389 36.5294 38.6147 36.5294 38.1175C36.5294 37.68 36.6156 37.3254 36.788 37.0536C36.9603 36.7785 37.1907 36.5631 37.479 36.4073C37.7674 36.2515 38.0856 36.1355 38.4336 36.0593C38.7849 35.9798 39.1379 35.9168 39.4925 35.8704C39.9565 35.8107 40.3327 35.766 40.6211 35.7362C40.9127 35.703 41.1249 35.6483 41.2574 35.5721C41.3933 35.4959 41.4613 35.3633 41.4613 35.1744V35.1346C41.4613 34.6441 41.327 34.2629 41.0586 33.9911C40.7934 33.7193 40.3907 33.5835 39.8505 33.5835C39.2903 33.5835 38.8512 33.7061 38.533 33.9513C38.2148 34.1966 37.9911 34.4585 37.8618 34.7369L36.7482 34.3391C36.9471 33.8751 37.2122 33.5138 37.5437 33.2553C37.8784 32.9935 38.243 32.8112 38.6374 32.7085C39.0351 32.6024 39.4262 32.5494 39.8107 32.5494C40.056 32.5494 40.3377 32.5792 40.6559 32.6388C40.9774 32.6952 41.2873 32.8129 41.5856 32.9918C41.8872 33.1708 42.1374 33.4409 42.3363 33.8022C42.5351 34.1635 42.6346 34.6474 42.6346 35.2539V40.2852H41.4613V39.2511H41.4016C41.3221 39.4168 41.1895 39.5941 41.0039 39.783C40.8183 39.9719 40.5714 40.1327 40.2631 40.2653C39.9549 40.3978 39.5787 40.4641 39.1346 40.4641ZM39.3135 39.4102C39.7776 39.4102 40.1687 39.319 40.4868 39.1367C40.8083 38.9544 41.0503 38.7191 41.2127 38.4308C41.3784 38.1424 41.4613 37.8391 41.4613 37.521V36.4471C41.4115 36.5067 41.3022 36.5614 41.1331 36.6112C40.9674 36.6576 40.7752 36.699 40.5564 36.7354C40.341 36.7686 40.1305 36.7984 39.925 36.8249C39.7229 36.8481 39.5588 36.868 39.4329 36.8846C39.1279 36.9244 38.8429 36.989 38.5777 37.0785C38.3159 37.1647 38.1038 37.2956 37.9414 37.4712C37.7823 37.6436 37.7027 37.8789 37.7027 38.1772C37.7027 38.5849 37.8535 38.8931 38.1552 39.1019C38.4601 39.3074 38.8462 39.4102 39.3135 39.4102ZM48.0971 32.6488V33.6431H44.1397V32.6488H48.0971ZM45.2931 30.8192H46.4664V38.0977C46.4664 38.4291 46.5145 38.6777 46.6106 38.8434C46.71 39.0058 46.836 39.1152 46.9884 39.1715C47.1442 39.2246 47.3083 39.2511 47.4806 39.2511C47.6099 39.2511 47.7159 39.2444 47.7988 39.2312C47.8817 39.2146 47.9479 39.2013 47.9977 39.1914L48.2363 40.2454C48.1568 40.2752 48.0457 40.305 47.9032 40.3349C47.7607 40.368 47.5801 40.3846 47.3613 40.3846C47.0299 40.3846 46.7051 40.3133 46.3869 40.1708C46.072 40.0283 45.8102 39.8112 45.6014 39.5195C45.3959 39.2279 45.2931 38.86 45.2931 38.4158V30.8192ZM49.862 40.2852V32.6488H51.0353V40.2852H49.862ZM50.4586 31.3761C50.2299 31.3761 50.0327 31.2982 49.867 31.1424C49.7046 30.9866 49.6234 30.7994 49.6234 30.5806C49.6234 30.3619 49.7046 30.1746 49.867 30.0188C50.0327 29.863 50.2299 29.7852 50.4586 29.7852C50.6873 29.7852 50.8828 29.863 51.0452 30.0188C51.211 30.1746 51.2938 30.3619 51.2938 30.5806C51.2938 30.7994 51.211 30.9866 51.0452 31.1424C50.8828 31.2982 50.6873 31.3761 50.4586 31.3761ZM56.2865 40.4442C55.5972 40.4442 54.9923 40.2802 54.4719 39.9521C53.9549 39.6239 53.5505 39.1649 53.2589 38.5749C52.9705 37.985 52.8263 37.2956 52.8263 36.5067C52.8263 35.7113 52.9705 35.0169 53.2589 34.4237C53.5505 33.8304 53.9549 33.3697 54.4719 33.0415C54.9923 32.7134 55.5972 32.5494 56.2865 32.5494C56.9759 32.5494 57.5792 32.7134 58.0962 33.0415C58.6166 33.3697 59.0209 33.8304 59.3093 34.4237C59.6009 35.0169 59.7468 35.7113 59.7468 36.5067C59.7468 37.2956 59.6009 37.985 59.3093 38.5749C59.0209 39.1649 58.6166 39.6239 58.0962 39.9521C57.5792 40.2802 56.9759 40.4442 56.2865 40.4442ZM56.2865 39.3903C56.8102 39.3903 57.2411 39.256 57.5792 38.9876C57.9172 38.7191 58.1675 38.3661 58.3299 37.9286C58.4923 37.4911 58.5735 37.0172 58.5735 36.5067C58.5735 35.9963 58.4923 35.5207 58.3299 35.0799C58.1675 34.6391 57.9172 34.2828 57.5792 34.011C57.2411 33.7392 56.8102 33.6033 56.2865 33.6033C55.7629 33.6033 55.332 33.7392 54.9939 34.011C54.6559 34.2828 54.4056 34.6391 54.2432 35.0799C54.0808 35.5207 53.9996 35.9963 53.9996 36.5067C53.9996 37.0172 54.0808 37.4911 54.2432 37.9286C54.4056 38.3661 54.6559 38.7191 54.9939 38.9876C55.332 39.256 55.7629 39.3903 56.2865 39.3903ZM62.7111 35.6914V40.2852H61.5378V32.6488H62.6713V33.842H62.7707C62.9497 33.4542 63.2215 33.1426 63.5861 32.9073C63.9507 32.6687 64.4213 32.5494 64.998 32.5494C65.5151 32.5494 65.9675 32.6554 66.3553 32.8675C66.743 33.0763 67.0447 33.3945 67.2601 33.8221C67.4755 34.2463 67.5832 34.7833 67.5832 35.4329V40.2852H66.41V35.5124C66.41 34.9125 66.2542 34.4452 65.9426 34.1104C65.6311 33.7724 65.2035 33.6033 64.66 33.6033C64.2854 33.6033 63.9507 33.6845 63.6557 33.8469C63.364 34.0094 63.1337 34.2463 62.9646 34.5579C62.7956 34.8694 62.7111 35.2473 62.7111 35.6914ZM77.2244 30.1033V40.2852H75.9914V31.396H75.9318L73.446 33.0465V31.7937L75.9914 30.1033H77.2244Z" fill="#858991"/>
<path d="M739.07 23.8418L739.07 43.5286L94.7476 43.5286L94.7476 23.8418L739.07 23.8418Z" fill="#E0E0E0"/>
<path d="M739.07 23.8418L739.07 43.5286L290.017 43.5286L290.017 23.8418L739.07 23.8418Z" fill="#87BC45"/>
<rect x="430.715" y="23.8418" width="8.54714" height="19.6868" fill="#E0E0E0"/>
<rect x="375.156" y="23.6875" width="8.96035" height="20.1226" fill="#FE3E29"/>
<rect x="118.824" y="23.8418" width="171.819" height="19.6868" fill="#87BC45"/>
<rect x="439.035" y="23.8418" width="101.53" height="19.6868" fill="#87BC45"/>
<rect x="543.816" y="23.8418" width="120.404" height="19.6868" fill="#87BC45"/>
<rect x="240.004" y="23.6875" width="28.3744" height="20.1226" fill="#FE3E29"/>
<rect x="657.41" y="23.6875" width="56.0022" height="20.1226" fill="#FE3E29"/>
<path d="M739.07 69.7764L739.07 89.4632L94.7476 89.4632L94.7476 69.7763L739.07 69.7764Z" fill="#E0E0E0"/>
<path d="M700.02 69.7764L700.02 89.4632L289.996 89.4632L289.996 69.7764L700.02 69.7764Z" fill="#87BC45"/>
<rect x="94.7461" y="69.7764" width="191.982" height="19.6868" fill="#87BC45"/>
<rect x="454.305" y="69.8936" width="169.5" height="19.3773" fill="#DA1904"/>
<rect x="189.422" y="69.7764" width="2.62945" height="19.6868" fill="#DA1904"/>
<rect x="242.246" y="69.8936" width="44.8018" height="19.3773" fill="#DA1904"/>
<rect width="74.9518" height="19.6868" transform="matrix(-1 0 0 1 739.07 69.7764)" fill="#87BC45"/>
<path d="M739.07 112.431L739.07 132.117L94.7476 132.117L94.7476 112.431L739.07 112.431Z" fill="#E0E0E0"/>
<rect x="378.508" y="112.431" width="54.6698" height="19.6868" fill="#87BC45"/>
<rect x="96.7188" y="112.431" width="282.056" height="19.6868" fill="#87BC45"/>
<rect x="439.035" y="112.431" width="101.53" height="19.6868" fill="#87BC45"/>
<rect x="543.797" y="112.431" width="190.009" height="19.6868" fill="#87BC45"/>
<rect x="107.094" y="113.121" width="27.6278" height="19.3773" fill="#DA1904"/>
<rect x="195.949" y="112.375" width="132.165" height="19.3773" fill="#DA1904"/>
<g clip-path="url(#clip0_4148_75974)">
<path d="M263.851 59.6455H265.468V61.2602H263.851V59.6455ZM263.851 53.1864H265.468V58.0307H263.851V53.1864ZM264.651 49.1494C260.186 49.1494 256.57 52.7665 256.57 57.2233C256.57 61.6801 260.186 65.2972 264.651 65.2972C269.125 65.2972 272.749 61.6801 272.749 57.2233C272.749 52.7665 269.125 49.1494 264.651 49.1494ZM264.66 63.6824C261.084 63.6824 258.188 60.7919 258.188 57.2233C258.188 53.6546 261.084 50.7642 264.66 50.7642C268.235 50.7642 271.131 53.6546 271.131 57.2233C271.131 60.7919 268.235 63.6824 264.66 63.6824Z" fill="#E3E5EB"/>
</g>
<g clip-path="url(#clip1_4148_75974)">
<path d="M189.925 59.6455H191.543V61.2602H189.925V59.6455ZM189.925 53.1864H191.543V58.0307H189.925V53.1864ZM190.726 49.1494C186.26 49.1494 182.645 52.7665 182.645 57.2233C182.645 61.6801 186.26 65.2972 190.726 65.2972C195.199 65.2972 198.823 61.6801 198.823 57.2233C198.823 52.7665 195.199 49.1494 190.726 49.1494ZM190.734 63.6824C187.158 63.6824 184.262 60.7919 184.262 57.2233C184.262 53.6546 187.158 50.7642 190.734 50.7642C194.309 50.7642 197.205 53.6546 197.205 57.2233C197.205 60.7919 194.309 63.6824 190.734 63.6824Z" fill="#E3E5EB"/>
</g>
<g clip-path="url(#clip2_4148_75974)">
<path d="M119.733 102.872H121.351V104.487H119.733V102.872ZM119.733 96.4129H121.351V101.257H119.733V96.4129ZM120.534 92.376C116.069 92.376 112.453 95.9931 112.453 100.45C112.453 104.907 116.069 108.524 120.534 108.524C125.008 108.524 128.632 104.907 128.632 100.45C128.632 95.9931 125.008 92.376 120.534 92.376ZM120.542 106.909C116.967 106.909 114.071 104.019 114.071 100.45C114.071 96.8812 116.967 93.9908 120.542 93.9908C124.118 93.9908 127.014 96.8812 127.014 100.45C127.014 104.019 124.118 106.909 120.542 106.909Z" fill="#E3E5EB"/>
</g>
<g clip-path="url(#clip3_4148_75974)">
<path d="M265.343 102.872H266.961V104.487H265.343V102.872ZM265.343 96.4129H266.961V101.257H265.343V96.4129ZM266.144 92.376C261.678 92.376 258.062 95.9931 258.062 100.45C258.062 104.907 261.678 108.524 266.144 108.524C270.617 108.524 274.241 104.907 274.241 100.45C274.241 95.9931 270.617 92.376 266.144 92.376ZM266.152 106.909C262.576 106.909 259.68 104.019 259.68 100.45C259.68 96.8812 262.576 93.9908 266.152 93.9908C269.727 93.9908 272.623 96.8812 272.623 100.45C272.623 104.019 269.727 106.909 266.152 106.909Z" fill="#E3E5EB"/>
</g>
<g clip-path="url(#clip4_4148_75974)">
<path d="M254.14 12.6933H255.758V14.3081H254.14V12.6933ZM254.14 6.2342H255.758V11.0785H254.14V6.2342ZM254.94 2.19727C250.475 2.19727 246.859 5.81436 246.859 10.2711C246.859 14.7279 250.475 18.345 254.94 18.345C259.414 18.345 263.038 14.7279 263.038 10.2711C263.038 5.81436 259.414 2.19727 254.94 2.19727ZM254.949 16.7302C251.373 16.7302 248.477 13.8398 248.477 10.2711C248.477 6.70249 251.373 3.81204 254.949 3.81204C258.524 3.81204 261.42 6.70249 261.42 10.2711C261.42 13.8398 258.524 16.7302 254.949 16.7302Z" fill="#E3E5EB"/>
</g>
<g clip-path="url(#clip5_4148_75974)">
<path d="M378.097 12.6933H379.715V14.3081H378.097V12.6933ZM378.097 6.2342H379.715V11.0785H378.097V6.2342ZM378.898 2.19727C374.432 2.19727 370.816 5.81436 370.816 10.2711C370.816 14.7279 374.432 18.345 378.898 18.345C383.371 18.345 386.995 14.7279 386.995 10.2711C386.995 5.81436 383.371 2.19727 378.898 2.19727ZM378.906 16.7302C375.33 16.7302 372.434 13.8398 372.434 10.2711C372.434 6.70249 375.33 3.81204 378.906 3.81204C382.481 3.81204 385.377 6.70249 385.377 10.2711C385.377 13.8398 382.481 16.7302 378.906 16.7302Z" fill="#E3E5EB"/>
</g>
<g clip-path="url(#clip6_4148_75974)">
<path d="M543.116 59.6455H544.734V61.2602H543.116V59.6455ZM543.116 53.1864H544.734V58.0307H543.116V53.1864ZM543.917 49.1494C539.452 49.1494 535.836 52.7665 535.836 57.2233C535.836 61.6801 539.452 65.2972 543.917 65.2972C548.39 65.2972 552.014 61.6801 552.014 57.2233C552.014 52.7665 548.39 49.1494 543.917 49.1494ZM543.925 63.6824C540.35 63.6824 537.454 60.7919 537.454 57.2233C537.454 53.6546 540.35 50.7642 543.925 50.7642C547.501 50.7642 550.397 53.6546 550.397 57.2233C550.397 60.7919 547.501 63.6824 543.925 63.6824Z" fill="#E3E5EB"/>
</g>
<g clip-path="url(#clip7_4148_75974)">
<path d="M687.226 13.4394H688.843V15.0542H687.226V13.4394ZM687.226 6.9803H688.843V11.8246H687.226V6.9803ZM688.026 2.94336C683.561 2.94336 679.945 6.56046 679.945 11.0172C679.945 15.474 683.561 19.0911 688.026 19.0911C692.5 19.0911 696.124 15.474 696.124 11.0172C696.124 6.56046 692.5 2.94336 688.026 2.94336ZM688.035 17.4763C684.459 17.4763 681.563 14.5859 681.563 11.0172C681.563 7.44858 684.459 4.55813 688.035 4.55813C691.61 4.55813 694.506 7.44858 694.506 11.0172C694.506 14.5859 691.61 17.4763 688.035 17.4763Z" fill="#E3E5EB"/>
</g>
<path d="M99.002 172.838C98.2529 172.838 97.6149 172.635 97.0879 172.227C96.5609 171.816 96.1582 171.221 95.8798 170.442C95.6014 169.66 95.4622 168.715 95.4622 167.608C95.4622 166.508 95.6014 165.568 95.8798 164.789C96.1615 164.007 96.5659 163.411 97.0929 163C97.6232 162.585 98.2595 162.378 99.002 162.378C99.7444 162.378 100.379 162.585 100.906 163C101.436 163.411 101.841 164.007 102.119 164.789C102.401 165.568 102.542 166.508 102.542 167.608C102.542 168.715 102.403 169.66 102.124 170.442C101.846 171.221 101.443 171.816 100.916 172.227C100.389 172.635 99.751 172.838 99.002 172.838ZM99.002 171.745C99.7444 171.745 100.321 171.387 100.732 170.671C101.143 169.955 101.349 168.934 101.349 167.608C101.349 166.727 101.254 165.976 101.065 165.356C100.88 164.736 100.611 164.264 100.26 163.939C99.9118 163.614 99.4925 163.452 99.002 163.452C98.2662 163.452 97.6911 163.815 97.2768 164.541C96.8625 165.263 96.6554 166.286 96.6554 167.608C96.6554 168.49 96.7482 169.239 96.9338 169.855C97.1194 170.472 97.3862 170.941 97.7342 171.262C98.0855 171.584 98.5081 171.745 99.002 171.745ZM107.672 162.378C108.09 162.382 108.508 162.461 108.925 162.617C109.343 162.773 109.724 163.031 110.069 163.392C110.413 163.75 110.69 164.239 110.899 164.859C111.108 165.479 111.212 166.256 111.212 167.191C111.212 168.096 111.126 168.899 110.954 169.602C110.785 170.301 110.539 170.891 110.218 171.372C109.9 171.852 109.512 172.217 109.055 172.466C108.6 172.714 108.087 172.838 107.513 172.838C106.943 172.838 106.434 172.726 105.987 172.5C105.543 172.272 105.178 171.955 104.893 171.551C104.612 171.143 104.431 170.671 104.351 170.134H105.564C105.674 170.601 105.891 170.987 106.216 171.292C106.544 171.594 106.976 171.745 107.513 171.745C108.299 171.745 108.919 171.402 109.373 170.716C109.83 170.029 110.059 169.06 110.059 167.807H109.979C109.794 168.086 109.573 168.326 109.318 168.528C109.063 168.73 108.779 168.886 108.468 168.995C108.156 169.105 107.825 169.159 107.474 169.159C106.89 169.159 106.355 169.015 105.868 168.727C105.384 168.435 104.996 168.036 104.704 167.529C104.416 167.018 104.272 166.435 104.272 165.779C104.272 165.156 104.411 164.586 104.689 164.069C104.971 163.548 105.366 163.134 105.873 162.826C106.383 162.517 106.983 162.368 107.672 162.378ZM107.672 163.472C107.255 163.472 106.879 163.576 106.544 163.785C106.212 163.991 105.949 164.269 105.753 164.62C105.561 164.968 105.465 165.355 105.465 165.779C105.465 166.203 105.558 166.589 105.743 166.937C105.932 167.282 106.189 167.557 106.514 167.762C106.842 167.965 107.215 168.066 107.633 168.066C107.948 168.066 108.241 168.004 108.513 167.882C108.784 167.756 109.021 167.585 109.224 167.37C109.429 167.151 109.59 166.904 109.706 166.629C109.822 166.35 109.88 166.06 109.88 165.759C109.88 165.361 109.784 164.988 109.591 164.64C109.403 164.292 109.141 164.011 108.806 163.795C108.474 163.58 108.097 163.472 107.672 163.472ZM114.042 171.397C113.797 171.397 113.587 171.309 113.411 171.133C113.235 170.958 113.147 170.747 113.147 170.502C113.147 170.257 113.235 170.046 113.411 169.87C113.587 169.695 113.797 169.607 114.042 169.607C114.288 169.607 114.498 169.695 114.674 169.87C114.849 170.046 114.937 170.257 114.937 170.502C114.937 170.664 114.896 170.813 114.813 170.949C114.733 171.085 114.626 171.194 114.49 171.277C114.357 171.357 114.208 171.397 114.042 171.397ZM114.042 166.246C113.797 166.246 113.587 166.158 113.411 165.983C113.235 165.807 113.147 165.596 113.147 165.351C113.147 165.106 113.235 164.895 113.411 164.72C113.587 164.544 113.797 164.456 114.042 164.456C114.288 164.456 114.498 164.544 114.674 164.72C114.849 164.895 114.937 165.106 114.937 165.351C114.937 165.514 114.896 165.663 114.813 165.799C114.733 165.935 114.626 166.044 114.49 166.127C114.357 166.206 114.208 166.246 114.042 166.246ZM120.344 172.838C119.595 172.838 118.957 172.635 118.43 172.227C117.903 171.816 117.5 171.221 117.222 170.442C116.943 169.66 116.804 168.715 116.804 167.608C116.804 166.508 116.943 165.568 117.222 164.789C117.503 164.007 117.908 163.411 118.435 163C118.965 162.585 119.601 162.378 120.344 162.378C121.086 162.378 121.721 162.585 122.248 163C122.778 163.411 123.183 164.007 123.461 164.789C123.743 165.568 123.884 166.508 123.884 167.608C123.884 168.715 123.744 169.66 123.466 170.442C123.188 171.221 122.785 171.816 122.258 172.227C121.731 172.635 121.093 172.838 120.344 172.838ZM120.344 171.745C121.086 171.745 121.663 171.387 122.074 170.671C122.485 169.955 122.69 168.934 122.69 167.608C122.69 166.727 122.596 165.976 122.407 165.356C122.221 164.736 121.953 164.264 121.602 163.939C121.254 163.614 120.834 163.452 120.344 163.452C119.608 163.452 119.033 163.815 118.619 164.541C118.204 165.263 117.997 166.286 117.997 167.608C117.997 168.49 118.09 169.239 118.276 169.855C118.461 170.472 118.728 170.941 119.076 171.262C119.427 171.584 119.85 171.745 120.344 171.745ZM129.094 172.838C128.345 172.838 127.707 172.635 127.18 172.227C126.653 171.816 126.25 171.221 125.972 170.442C125.693 169.66 125.554 168.715 125.554 167.608C125.554 166.508 125.693 165.568 125.972 164.789C126.253 164.007 126.658 163.411 127.185 163C127.715 162.585 128.351 162.378 129.094 162.378C129.836 162.378 130.471 162.585 130.998 163C131.528 163.411 131.933 164.007 132.211 164.789C132.493 165.568 132.634 166.508 132.634 167.608C132.634 168.715 132.494 169.66 132.216 170.442C131.938 171.221 131.535 171.816 131.008 172.227C130.481 172.635 129.843 172.838 129.094 172.838ZM129.094 171.745C129.836 171.745 130.413 171.387 130.824 170.671C131.235 169.955 131.44 168.934 131.44 167.608C131.44 166.727 131.346 165.976 131.157 165.356C130.971 164.736 130.703 164.264 130.352 163.939C130.004 163.614 129.584 163.452 129.094 163.452C128.358 163.452 127.783 163.815 127.369 164.541C126.954 165.263 126.747 166.286 126.747 167.608C126.747 168.49 126.84 169.239 127.026 169.855C127.211 170.472 127.478 170.941 127.826 171.262C128.177 171.584 128.6 171.745 129.094 171.745Z" fill="#858991"/>
<path d="M169.489 162.517V172.699H168.256V163.81H168.196L165.711 165.461V164.208L168.256 162.517H169.489ZM175.738 172.838C174.989 172.838 174.351 172.635 173.824 172.227C173.297 171.816 172.895 171.221 172.616 170.442C172.338 169.66 172.199 168.715 172.199 167.608C172.199 166.508 172.338 165.568 172.616 164.789C172.898 164.007 173.302 163.411 173.829 163C174.359 162.585 174.996 162.378 175.738 162.378C176.481 162.378 177.115 162.585 177.642 163C178.173 163.411 178.577 164.007 178.855 164.789C179.137 165.568 179.278 166.508 179.278 167.608C179.278 168.715 179.139 169.66 178.86 170.442C178.582 171.221 178.179 171.816 177.652 172.227C177.125 172.635 176.487 172.838 175.738 172.838ZM175.738 171.745C176.481 171.745 177.057 171.387 177.468 170.671C177.879 169.955 178.085 168.934 178.085 167.608C178.085 166.727 177.99 165.976 177.801 165.356C177.616 164.736 177.347 164.264 176.996 163.939C176.648 163.614 176.229 163.452 175.738 163.452C175.002 163.452 174.427 163.815 174.013 164.541C173.599 165.263 173.392 166.286 173.392 167.608C173.392 168.49 173.484 169.239 173.67 169.855C173.856 170.472 174.123 170.941 174.471 171.262C174.822 171.584 175.244 171.745 175.738 171.745ZM182.042 171.397C181.797 171.397 181.587 171.309 181.411 171.133C181.235 170.958 181.147 170.747 181.147 170.502C181.147 170.257 181.235 170.046 181.411 169.87C181.587 169.695 181.797 169.607 182.042 169.607C182.288 169.607 182.498 169.695 182.674 169.87C182.849 170.046 182.937 170.257 182.937 170.502C182.937 170.664 182.896 170.813 182.813 170.949C182.733 171.085 182.626 171.194 182.49 171.277C182.357 171.357 182.208 171.397 182.042 171.397ZM182.042 166.246C181.797 166.246 181.587 166.158 181.411 165.983C181.235 165.807 181.147 165.596 181.147 165.351C181.147 165.106 181.235 164.895 181.411 164.72C181.587 164.544 181.797 164.456 182.042 164.456C182.288 164.456 182.498 164.544 182.674 164.72C182.849 164.895 182.937 165.106 182.937 165.351C182.937 165.514 182.896 165.663 182.813 165.799C182.733 165.935 182.626 166.044 182.49 166.127C182.357 166.206 182.208 166.246 182.042 166.246ZM188.344 172.838C187.595 172.838 186.957 172.635 186.43 172.227C185.903 171.816 185.5 171.221 185.222 170.442C184.943 169.66 184.804 168.715 184.804 167.608C184.804 166.508 184.943 165.568 185.222 164.789C185.503 164.007 185.908 163.411 186.435 163C186.965 162.585 187.601 162.378 188.344 162.378C189.086 162.378 189.721 162.585 190.248 163C190.778 163.411 191.183 164.007 191.461 164.789C191.743 165.568 191.884 166.508 191.884 167.608C191.884 168.715 191.744 169.66 191.466 170.442C191.188 171.221 190.785 171.816 190.258 172.227C189.731 172.635 189.093 172.838 188.344 172.838ZM188.344 171.745C189.086 171.745 189.663 171.387 190.074 170.671C190.485 169.955 190.69 168.934 190.69 167.608C190.69 166.727 190.596 165.976 190.407 165.356C190.221 164.736 189.953 164.264 189.602 163.939C189.254 163.614 188.834 163.452 188.344 163.452C187.608 163.452 187.033 163.815 186.619 164.541C186.204 165.263 185.997 166.286 185.997 167.608C185.997 168.49 186.09 169.239 186.276 169.855C186.461 170.472 186.728 170.941 187.076 171.262C187.427 171.584 187.85 171.745 188.344 171.745ZM197.094 172.838C196.345 172.838 195.707 172.635 195.18 172.227C194.653 171.816 194.25 171.221 193.972 170.442C193.693 169.66 193.554 168.715 193.554 167.608C193.554 166.508 193.693 165.568 193.972 164.789C194.253 164.007 194.658 163.411 195.185 163C195.715 162.585 196.351 162.378 197.094 162.378C197.836 162.378 198.471 162.585 198.998 163C199.528 163.411 199.933 164.007 200.211 164.789C200.493 165.568 200.634 166.508 200.634 167.608C200.634 168.715 200.494 169.66 200.216 170.442C199.938 171.221 199.535 171.816 199.008 172.227C198.481 172.635 197.843 172.838 197.094 172.838ZM197.094 171.745C197.836 171.745 198.413 171.387 198.824 170.671C199.235 169.955 199.44 168.934 199.44 167.608C199.44 166.727 199.346 165.976 199.157 165.356C198.971 164.736 198.703 164.264 198.352 163.939C198.004 163.614 197.584 163.452 197.094 163.452C196.358 163.452 195.783 163.815 195.369 164.541C194.954 165.263 194.747 166.286 194.747 167.608C194.747 168.49 194.84 169.239 195.026 169.855C195.211 170.472 195.478 170.941 195.826 171.262C196.177 171.584 196.6 171.745 197.094 171.745Z" fill="#858991"/>
<path d="M237.731 162.517V172.699H236.498V163.81H236.439L233.953 165.461V164.208L236.498 162.517H237.731ZM244.239 162.517V172.699H243.006V163.81H242.946L240.461 165.461V164.208L243.006 162.517H244.239ZM248.042 171.397C247.797 171.397 247.587 171.309 247.411 171.133C247.235 170.958 247.147 170.747 247.147 170.502C247.147 170.257 247.235 170.046 247.411 169.87C247.587 169.695 247.797 169.607 248.042 169.607C248.288 169.607 248.498 169.695 248.674 169.87C248.849 170.046 248.937 170.257 248.937 170.502C248.937 170.664 248.896 170.813 248.813 170.949C248.733 171.085 248.626 171.194 248.49 171.277C248.357 171.357 248.208 171.397 248.042 171.397ZM248.042 166.246C247.797 166.246 247.587 166.158 247.411 165.983C247.235 165.807 247.147 165.596 247.147 165.351C247.147 165.106 247.235 164.895 247.411 164.72C247.587 164.544 247.797 164.456 248.042 164.456C248.288 164.456 248.498 164.544 248.674 164.72C248.849 164.895 248.937 165.106 248.937 165.351C248.937 165.514 248.896 165.663 248.813 165.799C248.733 165.935 248.626 166.044 248.49 166.127C248.357 166.206 248.208 166.246 248.042 166.246ZM254.344 172.838C253.595 172.838 252.957 172.635 252.43 172.227C251.903 171.816 251.5 171.221 251.222 170.442C250.943 169.66 250.804 168.715 250.804 167.608C250.804 166.508 250.943 165.568 251.222 164.789C251.503 164.007 251.908 163.411 252.435 163C252.965 162.585 253.601 162.378 254.344 162.378C255.086 162.378 255.721 162.585 256.248 163C256.778 163.411 257.183 164.007 257.461 164.789C257.743 165.568 257.884 166.508 257.884 167.608C257.884 168.715 257.744 169.66 257.466 170.442C257.188 171.221 256.785 171.816 256.258 172.227C255.731 172.635 255.093 172.838 254.344 172.838ZM254.344 171.745C255.086 171.745 255.663 171.387 256.074 170.671C256.485 169.955 256.69 168.934 256.69 167.608C256.69 166.727 256.596 165.976 256.407 165.356C256.221 164.736 255.953 164.264 255.602 163.939C255.254 163.614 254.834 163.452 254.344 163.452C253.608 163.452 253.033 163.815 252.619 164.541C252.204 165.263 251.997 166.286 251.997 167.608C251.997 168.49 252.09 169.239 252.276 169.855C252.461 170.472 252.728 170.941 253.076 171.262C253.427 171.584 253.85 171.745 254.344 171.745ZM263.094 172.838C262.345 172.838 261.707 172.635 261.18 172.227C260.653 171.816 260.25 171.221 259.972 170.442C259.693 169.66 259.554 168.715 259.554 167.608C259.554 166.508 259.693 165.568 259.972 164.789C260.253 164.007 260.658 163.411 261.185 163C261.715 162.585 262.351 162.378 263.094 162.378C263.836 162.378 264.471 162.585 264.998 163C265.528 163.411 265.933 164.007 266.211 164.789C266.493 165.568 266.634 166.508 266.634 167.608C266.634 168.715 266.494 169.66 266.216 170.442C265.938 171.221 265.535 171.816 265.008 172.227C264.481 172.635 263.843 172.838 263.094 172.838ZM263.094 171.745C263.836 171.745 264.413 171.387 264.824 170.671C265.235 169.955 265.44 168.934 265.44 167.608C265.44 166.727 265.346 165.976 265.157 165.356C264.971 164.736 264.703 164.264 264.352 163.939C264.004 163.614 263.584 163.452 263.094 163.452C262.358 163.452 261.783 163.815 261.369 164.541C260.954 165.263 260.747 166.286 260.747 167.608C260.747 168.49 260.84 169.239 261.026 169.855C261.211 170.472 261.478 170.941 261.826 171.262C262.177 171.584 262.6 171.745 263.094 171.745Z" fill="#858991"/>
<path d="M303.762 162.517V172.699H302.529V163.81H302.47L299.984 165.461V164.208L302.529 162.517H303.762ZM306.691 172.699V171.804L310.051 168.125C310.446 167.694 310.771 167.32 311.026 167.002C311.281 166.68 311.47 166.379 311.593 166.097C311.719 165.812 311.782 165.514 311.782 165.202C311.782 164.844 311.695 164.534 311.523 164.272C311.354 164.011 311.122 163.808 310.827 163.666C310.532 163.523 310.201 163.452 309.833 163.452C309.442 163.452 309.1 163.533 308.809 163.696C308.52 163.855 308.297 164.078 308.137 164.367C307.982 164.655 307.904 164.993 307.904 165.381H306.73C306.73 164.784 306.868 164.261 307.143 163.81C307.418 163.359 307.793 163.008 308.267 162.756C308.744 162.504 309.279 162.378 309.873 162.378C310.469 162.378 310.998 162.504 311.458 162.756C311.919 163.008 312.28 163.348 312.542 163.775C312.804 164.203 312.935 164.678 312.935 165.202C312.935 165.577 312.867 165.943 312.731 166.301C312.599 166.655 312.367 167.051 312.035 167.489C311.707 167.923 311.251 168.453 310.668 169.08L308.381 171.526V171.605H313.114V172.699H306.691ZM316.042 171.397C315.797 171.397 315.587 171.309 315.411 171.133C315.235 170.958 315.147 170.747 315.147 170.502C315.147 170.257 315.235 170.046 315.411 169.87C315.587 169.695 315.797 169.607 316.042 169.607C316.288 169.607 316.498 169.695 316.674 169.87C316.849 170.046 316.937 170.257 316.937 170.502C316.937 170.664 316.896 170.813 316.813 170.949C316.733 171.085 316.626 171.194 316.49 171.277C316.357 171.357 316.208 171.397 316.042 171.397ZM316.042 166.246C315.797 166.246 315.587 166.158 315.411 165.983C315.235 165.807 315.147 165.596 315.147 165.351C315.147 165.106 315.235 164.895 315.411 164.72C315.587 164.544 315.797 164.456 316.042 164.456C316.288 164.456 316.498 164.544 316.674 164.72C316.849 164.895 316.937 165.106 316.937 165.351C316.937 165.514 316.896 165.663 316.813 165.799C316.733 165.935 316.626 166.044 316.49 166.127C316.357 166.206 316.208 166.246 316.042 166.246ZM322.344 172.838C321.595 172.838 320.957 172.635 320.43 172.227C319.903 171.816 319.5 171.221 319.222 170.442C318.943 169.66 318.804 168.715 318.804 167.608C318.804 166.508 318.943 165.568 319.222 164.789C319.503 164.007 319.908 163.411 320.435 163C320.965 162.585 321.601 162.378 322.344 162.378C323.086 162.378 323.721 162.585 324.248 163C324.778 163.411 325.183 164.007 325.461 164.789C325.743 165.568 325.884 166.508 325.884 167.608C325.884 168.715 325.744 169.66 325.466 170.442C325.188 171.221 324.785 171.816 324.258 172.227C323.731 172.635 323.093 172.838 322.344 172.838ZM322.344 171.745C323.086 171.745 323.663 171.387 324.074 170.671C324.485 169.955 324.69 168.934 324.69 167.608C324.69 166.727 324.596 165.976 324.407 165.356C324.221 164.736 323.953 164.264 323.602 163.939C323.254 163.614 322.834 163.452 322.344 163.452C321.608 163.452 321.033 163.815 320.619 164.541C320.204 165.263 319.997 166.286 319.997 167.608C319.997 168.49 320.09 169.239 320.276 169.855C320.461 170.472 320.728 170.941 321.076 171.262C321.427 171.584 321.85 171.745 322.344 171.745ZM331.094 172.838C330.345 172.838 329.707 172.635 329.18 172.227C328.653 171.816 328.25 171.221 327.972 170.442C327.693 169.66 327.554 168.715 327.554 167.608C327.554 166.508 327.693 165.568 327.972 164.789C328.253 164.007 328.658 163.411 329.185 163C329.715 162.585 330.351 162.378 331.094 162.378C331.836 162.378 332.471 162.585 332.998 163C333.528 163.411 333.933 164.007 334.211 164.789C334.493 165.568 334.634 166.508 334.634 167.608C334.634 168.715 334.494 169.66 334.216 170.442C333.938 171.221 333.535 171.816 333.008 172.227C332.481 172.635 331.843 172.838 331.094 172.838ZM331.094 171.745C331.836 171.745 332.413 171.387 332.824 170.671C333.235 169.955 333.44 168.934 333.44 167.608C333.44 166.727 333.346 165.976 333.157 165.356C332.971 164.736 332.703 164.264 332.352 163.939C332.004 163.614 331.584 163.452 331.094 163.452C330.358 163.452 329.783 163.815 329.369 164.541C328.954 165.263 328.747 166.286 328.747 167.608C328.747 168.49 328.84 169.239 329.026 169.855C329.211 170.472 329.478 170.941 329.826 171.262C330.177 171.584 330.6 171.745 331.094 171.745Z" fill="#858991"/>
<path d="M371.325 162.517V172.699H370.092V163.81H370.032L367.547 165.461V164.208L370.092 162.517H371.325ZM377.694 172.838C377.037 172.838 376.452 172.726 375.939 172.5C375.428 172.275 375.022 171.962 374.721 171.561C374.422 171.156 374.26 170.687 374.233 170.154H375.486C375.513 170.482 375.625 170.765 375.824 171.004C376.023 171.239 376.283 171.422 376.605 171.551C376.926 171.68 377.283 171.745 377.674 171.745C378.111 171.745 378.499 171.668 378.837 171.516C379.175 171.364 379.44 171.151 379.632 170.88C379.825 170.608 379.921 170.293 379.921 169.935C379.921 169.56 379.828 169.231 379.642 168.946C379.457 168.657 379.185 168.432 378.827 168.27C378.469 168.107 378.032 168.026 377.515 168.026H376.699V166.932H377.515C377.919 166.932 378.274 166.859 378.578 166.713C378.887 166.568 379.127 166.362 379.299 166.097C379.475 165.832 379.563 165.52 379.563 165.162C379.563 164.818 379.487 164.518 379.334 164.262C379.182 164.007 378.966 163.808 378.688 163.666C378.413 163.523 378.088 163.452 377.713 163.452C377.362 163.452 377.031 163.517 376.719 163.646C376.411 163.772 376.159 163.956 375.963 164.198C375.768 164.436 375.662 164.725 375.645 165.063H374.452C374.472 164.529 374.633 164.062 374.934 163.661C375.236 163.257 375.63 162.942 376.118 162.716C376.608 162.491 377.147 162.378 377.733 162.378C378.363 162.378 378.903 162.506 379.354 162.761C379.805 163.013 380.151 163.346 380.393 163.76C380.635 164.175 380.756 164.622 380.756 165.103C380.756 165.676 380.605 166.165 380.304 166.569C380.005 166.974 379.599 167.254 379.086 167.409V167.489C379.729 167.595 380.231 167.868 380.592 168.309C380.953 168.747 381.134 169.289 381.134 169.935C381.134 170.489 380.983 170.986 380.681 171.426C380.383 171.864 379.975 172.209 379.458 172.461C378.941 172.712 378.353 172.838 377.694 172.838ZM384.042 171.397C383.797 171.397 383.587 171.309 383.411 171.133C383.235 170.958 383.147 170.747 383.147 170.502C383.147 170.257 383.235 170.046 383.411 169.87C383.587 169.695 383.797 169.607 384.042 169.607C384.288 169.607 384.498 169.695 384.674 169.87C384.849 170.046 384.937 170.257 384.937 170.502C384.937 170.664 384.896 170.813 384.813 170.949C384.733 171.085 384.626 171.194 384.49 171.277C384.357 171.357 384.208 171.397 384.042 171.397ZM384.042 166.246C383.797 166.246 383.587 166.158 383.411 165.983C383.235 165.807 383.147 165.596 383.147 165.351C383.147 165.106 383.235 164.895 383.411 164.72C383.587 164.544 383.797 164.456 384.042 164.456C384.288 164.456 384.498 164.544 384.674 164.72C384.849 164.895 384.937 165.106 384.937 165.351C384.937 165.514 384.896 165.663 384.813 165.799C384.733 165.935 384.626 166.044 384.49 166.127C384.357 166.206 384.208 166.246 384.042 166.246ZM390.344 172.838C389.595 172.838 388.957 172.635 388.43 172.227C387.903 171.816 387.5 171.221 387.222 170.442C386.943 169.66 386.804 168.715 386.804 167.608C386.804 166.508 386.943 165.568 387.222 164.789C387.503 164.007 387.908 163.411 388.435 163C388.965 162.585 389.601 162.378 390.344 162.378C391.086 162.378 391.721 162.585 392.248 163C392.778 163.411 393.183 164.007 393.461 164.789C393.743 165.568 393.884 166.508 393.884 167.608C393.884 168.715 393.744 169.66 393.466 170.442C393.188 171.221 392.785 171.816 392.258 172.227C391.731 172.635 391.093 172.838 390.344 172.838ZM390.344 171.745C391.086 171.745 391.663 171.387 392.074 170.671C392.485 169.955 392.69 168.934 392.69 167.608C392.69 166.727 392.596 165.976 392.407 165.356C392.221 164.736 391.953 164.264 391.602 163.939C391.254 163.614 390.834 163.452 390.344 163.452C389.608 163.452 389.033 163.815 388.619 164.541C388.204 165.263 387.997 166.286 387.997 167.608C387.997 168.49 388.09 169.239 388.276 169.855C388.461 170.472 388.728 170.941 389.076 171.262C389.427 171.584 389.85 171.745 390.344 171.745ZM399.094 172.838C398.345 172.838 397.707 172.635 397.18 172.227C396.653 171.816 396.25 171.221 395.972 170.442C395.693 169.66 395.554 168.715 395.554 167.608C395.554 166.508 395.693 165.568 395.972 164.789C396.253 164.007 396.658 163.411 397.185 163C397.715 162.585 398.351 162.378 399.094 162.378C399.836 162.378 400.471 162.585 400.998 163C401.528 163.411 401.933 164.007 402.211 164.789C402.493 165.568 402.634 166.508 402.634 167.608C402.634 168.715 402.494 169.66 402.216 170.442C401.938 171.221 401.535 171.816 401.008 172.227C400.481 172.635 399.843 172.838 399.094 172.838ZM399.094 171.745C399.836 171.745 400.413 171.387 400.824 170.671C401.235 169.955 401.44 168.934 401.44 167.608C401.44 166.727 401.346 165.976 401.157 165.356C400.971 164.736 400.703 164.264 400.352 163.939C400.004 163.614 399.584 163.452 399.094 163.452C398.358 163.452 397.783 163.815 397.369 164.541C396.954 165.263 396.747 166.286 396.747 167.608C396.747 168.49 396.84 169.239 397.026 169.855C397.211 170.472 397.478 170.941 397.826 171.262C398.177 171.584 398.6 171.745 399.094 171.745Z" fill="#858991"/>
<path d="M439.257 162.517V172.699H438.024V163.81H437.964L435.478 165.461V164.208L438.024 162.517H439.257ZM441.946 170.611V169.597L446.421 162.517H447.156V164.088H446.659L443.279 169.438V169.517H449.304V170.611H441.946ZM446.739 172.699V170.303V169.831V162.517H447.912V172.699H446.739ZM452.042 171.397C451.797 171.397 451.587 171.309 451.411 171.133C451.235 170.958 451.147 170.747 451.147 170.502C451.147 170.257 451.235 170.046 451.411 169.87C451.587 169.695 451.797 169.607 452.042 169.607C452.288 169.607 452.498 169.695 452.674 169.87C452.849 170.046 452.937 170.257 452.937 170.502C452.937 170.664 452.896 170.813 452.813 170.949C452.733 171.085 452.626 171.194 452.49 171.277C452.357 171.357 452.208 171.397 452.042 171.397ZM452.042 166.246C451.797 166.246 451.587 166.158 451.411 165.983C451.235 165.807 451.147 165.596 451.147 165.351C451.147 165.106 451.235 164.895 451.411 164.72C451.587 164.544 451.797 164.456 452.042 164.456C452.288 164.456 452.498 164.544 452.674 164.72C452.849 164.895 452.937 165.106 452.937 165.351C452.937 165.514 452.896 165.663 452.813 165.799C452.733 165.935 452.626 166.044 452.49 166.127C452.357 166.206 452.208 166.246 452.042 166.246ZM458.344 172.838C457.595 172.838 456.957 172.635 456.43 172.227C455.903 171.816 455.5 171.221 455.222 170.442C454.943 169.66 454.804 168.715 454.804 167.608C454.804 166.508 454.943 165.568 455.222 164.789C455.503 164.007 455.908 163.411 456.435 163C456.965 162.585 457.601 162.378 458.344 162.378C459.086 162.378 459.721 162.585 460.248 163C460.778 163.411 461.183 164.007 461.461 164.789C461.743 165.568 461.884 166.508 461.884 167.608C461.884 168.715 461.744 169.66 461.466 170.442C461.188 171.221 460.785 171.816 460.258 172.227C459.731 172.635 459.093 172.838 458.344 172.838ZM458.344 171.745C459.086 171.745 459.663 171.387 460.074 170.671C460.485 169.955 460.69 168.934 460.69 167.608C460.69 166.727 460.596 165.976 460.407 165.356C460.221 164.736 459.953 164.264 459.602 163.939C459.254 163.614 458.834 163.452 458.344 163.452C457.608 163.452 457.033 163.815 456.619 164.541C456.204 165.263 455.997 166.286 455.997 167.608C455.997 168.49 456.09 169.239 456.276 169.855C456.461 170.472 456.728 170.941 457.076 171.262C457.427 171.584 457.85 171.745 458.344 171.745ZM467.094 172.838C466.345 172.838 465.707 172.635 465.18 172.227C464.653 171.816 464.25 171.221 463.972 170.442C463.693 169.66 463.554 168.715 463.554 167.608C463.554 166.508 463.693 165.568 463.972 164.789C464.253 164.007 464.658 163.411 465.185 163C465.715 162.585 466.351 162.378 467.094 162.378C467.836 162.378 468.471 162.585 468.998 163C469.528 163.411 469.933 164.007 470.211 164.789C470.493 165.568 470.634 166.508 470.634 167.608C470.634 168.715 470.494 169.66 470.216 170.442C469.938 171.221 469.535 171.816 469.008 172.227C468.481 172.635 467.843 172.838 467.094 172.838ZM467.094 171.745C467.836 171.745 468.413 171.387 468.824 170.671C469.235 169.955 469.44 168.934 469.44 167.608C469.44 166.727 469.346 165.976 469.157 165.356C468.971 164.736 468.703 164.264 468.352 163.939C468.004 163.614 467.584 163.452 467.094 163.452C466.358 163.452 465.783 163.815 465.369 164.541C464.954 165.263 464.747 166.286 464.747 167.608C464.747 168.49 464.84 169.239 465.026 169.855C465.211 170.472 465.478 170.941 465.826 171.262C466.177 171.584 466.6 171.745 467.094 171.745Z" fill="#858991"/>
<path d="M507.721 162.517V172.699H506.488V163.81H506.429L503.943 165.461V164.208L506.488 162.517H507.721ZM513.831 172.838C513.248 172.838 512.723 172.722 512.256 172.49C511.788 172.258 511.414 171.94 511.132 171.536C510.85 171.132 510.696 170.671 510.67 170.154H511.863C511.909 170.614 512.118 170.996 512.489 171.297C512.864 171.596 513.311 171.745 513.831 171.745C514.249 171.745 514.62 171.647 514.945 171.451C515.273 171.256 515.53 170.987 515.716 170.646C515.905 170.301 515.999 169.912 515.999 169.478C515.999 169.033 515.901 168.637 515.706 168.289C515.514 167.938 515.248 167.661 514.91 167.459C514.572 167.257 514.186 167.154 513.752 167.151C513.44 167.148 513.121 167.196 512.792 167.295C512.464 167.391 512.194 167.516 511.982 167.668L510.829 167.529L511.445 162.517H516.735V163.611H512.479L512.121 166.614H512.181C512.39 166.448 512.652 166.311 512.966 166.201C513.281 166.092 513.609 166.037 513.951 166.037C514.574 166.037 515.129 166.186 515.616 166.485C516.107 166.78 516.491 167.184 516.77 167.698C517.051 168.212 517.192 168.798 517.192 169.458C517.192 170.107 517.046 170.687 516.755 171.198C516.466 171.705 516.069 172.106 515.562 172.401C515.055 172.693 514.478 172.838 513.831 172.838ZM520.042 171.397C519.797 171.397 519.587 171.309 519.411 171.133C519.235 170.958 519.147 170.747 519.147 170.502C519.147 170.257 519.235 170.046 519.411 169.87C519.587 169.695 519.797 169.607 520.042 169.607C520.288 169.607 520.498 169.695 520.674 169.87C520.849 170.046 520.937 170.257 520.937 170.502C520.937 170.664 520.896 170.813 520.813 170.949C520.733 171.085 520.626 171.194 520.49 171.277C520.357 171.357 520.208 171.397 520.042 171.397ZM520.042 166.246C519.797 166.246 519.587 166.158 519.411 165.983C519.235 165.807 519.147 165.596 519.147 165.351C519.147 165.106 519.235 164.895 519.411 164.72C519.587 164.544 519.797 164.456 520.042 164.456C520.288 164.456 520.498 164.544 520.674 164.72C520.849 164.895 520.937 165.106 520.937 165.351C520.937 165.514 520.896 165.663 520.813 165.799C520.733 165.935 520.626 166.044 520.49 166.127C520.357 166.206 520.208 166.246 520.042 166.246ZM526.344 172.838C525.595 172.838 524.957 172.635 524.43 172.227C523.903 171.816 523.5 171.221 523.222 170.442C522.943 169.66 522.804 168.715 522.804 167.608C522.804 166.508 522.943 165.568 523.222 164.789C523.503 164.007 523.908 163.411 524.435 163C524.965 162.585 525.601 162.378 526.344 162.378C527.086 162.378 527.721 162.585 528.248 163C528.778 163.411 529.183 164.007 529.461 164.789C529.743 165.568 529.884 166.508 529.884 167.608C529.884 168.715 529.744 169.66 529.466 170.442C529.188 171.221 528.785 171.816 528.258 172.227C527.731 172.635 527.093 172.838 526.344 172.838ZM526.344 171.745C527.086 171.745 527.663 171.387 528.074 170.671C528.485 169.955 528.69 168.934 528.69 167.608C528.69 166.727 528.596 165.976 528.407 165.356C528.221 164.736 527.953 164.264 527.602 163.939C527.254 163.614 526.834 163.452 526.344 163.452C525.608 163.452 525.033 163.815 524.619 164.541C524.204 165.263 523.997 166.286 523.997 167.608C523.997 168.49 524.09 169.239 524.276 169.855C524.461 170.472 524.728 170.941 525.076 171.262C525.427 171.584 525.85 171.745 526.344 171.745ZM535.094 172.838C534.345 172.838 533.707 172.635 533.18 172.227C532.653 171.816 532.25 171.221 531.972 170.442C531.693 169.66 531.554 168.715 531.554 167.608C531.554 166.508 531.693 165.568 531.972 164.789C532.253 164.007 532.658 163.411 533.185 163C533.715 162.585 534.351 162.378 535.094 162.378C535.836 162.378 536.471 162.585 536.998 163C537.528 163.411 537.933 164.007 538.211 164.789C538.493 165.568 538.634 166.508 538.634 167.608C538.634 168.715 538.494 169.66 538.216 170.442C537.938 171.221 537.535 171.816 537.008 172.227C536.481 172.635 535.843 172.838 535.094 172.838ZM535.094 171.745C535.836 171.745 536.413 171.387 536.824 170.671C537.235 169.955 537.44 168.934 537.44 167.608C537.44 166.727 537.346 165.976 537.157 165.356C536.971 164.736 536.703 164.264 536.352 163.939C536.004 163.614 535.584 163.452 535.094 163.452C534.358 163.452 533.783 163.815 533.369 164.541C532.954 165.263 532.747 166.286 532.747 167.608C532.747 168.49 532.84 169.239 533.026 169.855C533.211 170.472 533.478 170.941 533.826 171.262C534.177 171.584 534.6 171.745 535.094 171.745Z" fill="#858991"/>
<path d="M575.503 162.517V172.699H574.27V163.81H574.21L571.724 165.461V164.208L574.27 162.517H575.503ZM581.812 172.838C581.394 172.832 580.976 172.752 580.559 172.6C580.141 172.447 579.76 172.19 579.415 171.829C579.071 171.465 578.794 170.972 578.585 170.353C578.376 169.73 578.272 168.947 578.272 168.006C578.272 167.105 578.356 166.306 578.525 165.61C578.694 164.91 578.94 164.322 579.261 163.845C579.583 163.364 579.97 163 580.425 162.751C580.882 162.502 581.397 162.378 581.971 162.378C582.541 162.378 583.048 162.493 583.492 162.721C583.939 162.947 584.304 163.261 584.586 163.666C584.867 164.07 585.05 164.536 585.133 165.063H583.92C583.807 164.605 583.588 164.226 583.263 163.924C582.939 163.623 582.508 163.472 581.971 163.472C581.182 163.472 580.56 163.815 580.106 164.501C579.656 165.187 579.429 166.15 579.425 167.39H579.505C579.69 167.108 579.911 166.868 580.166 166.669C580.425 166.467 580.71 166.311 581.021 166.201C581.333 166.092 581.662 166.037 582.01 166.037C582.594 166.037 583.127 166.183 583.611 166.475C584.095 166.763 584.483 167.163 584.775 167.673C585.066 168.18 585.212 168.762 585.212 169.418C585.212 170.048 585.071 170.624 584.79 171.148C584.508 171.668 584.112 172.083 583.601 172.391C583.094 172.696 582.498 172.845 581.812 172.838ZM581.812 171.745C582.229 171.745 582.604 171.64 582.935 171.431C583.27 171.223 583.533 170.943 583.726 170.591C583.921 170.24 584.019 169.849 584.019 169.418C584.019 168.997 583.925 168.614 583.736 168.27C583.55 167.922 583.293 167.645 582.965 167.439C582.64 167.234 582.269 167.131 581.851 167.131C581.537 167.131 581.243 167.194 580.971 167.32C580.7 167.443 580.461 167.612 580.256 167.827C580.053 168.042 579.894 168.289 579.778 168.568C579.662 168.843 579.604 169.133 579.604 169.438C579.604 169.842 579.699 170.22 579.888 170.571C580.08 170.923 580.342 171.206 580.673 171.422C581.008 171.637 581.387 171.745 581.812 171.745ZM588.042 171.397C587.797 171.397 587.587 171.309 587.411 171.133C587.235 170.958 587.147 170.747 587.147 170.502C587.147 170.257 587.235 170.046 587.411 169.87C587.587 169.695 587.797 169.607 588.042 169.607C588.288 169.607 588.498 169.695 588.674 169.87C588.849 170.046 588.937 170.257 588.937 170.502C588.937 170.664 588.896 170.813 588.813 170.949C588.733 171.085 588.626 171.194 588.49 171.277C588.357 171.357 588.208 171.397 588.042 171.397ZM588.042 166.246C587.797 166.246 587.587 166.158 587.411 165.983C587.235 165.807 587.147 165.596 587.147 165.351C587.147 165.106 587.235 164.895 587.411 164.72C587.587 164.544 587.797 164.456 588.042 164.456C588.288 164.456 588.498 164.544 588.674 164.72C588.849 164.895 588.937 165.106 588.937 165.351C588.937 165.514 588.896 165.663 588.813 165.799C588.733 165.935 588.626 166.044 588.49 166.127C588.357 166.206 588.208 166.246 588.042 166.246ZM594.344 172.838C593.595 172.838 592.957 172.635 592.43 172.227C591.903 171.816 591.5 171.221 591.222 170.442C590.943 169.66 590.804 168.715 590.804 167.608C590.804 166.508 590.943 165.568 591.222 164.789C591.503 164.007 591.908 163.411 592.435 163C592.965 162.585 593.601 162.378 594.344 162.378C595.086 162.378 595.721 162.585 596.248 163C596.778 163.411 597.183 164.007 597.461 164.789C597.743 165.568 597.884 166.508 597.884 167.608C597.884 168.715 597.744 169.66 597.466 170.442C597.188 171.221 596.785 171.816 596.258 172.227C595.731 172.635 595.093 172.838 594.344 172.838ZM594.344 171.745C595.086 171.745 595.663 171.387 596.074 170.671C596.485 169.955 596.69 168.934 596.69 167.608C596.69 166.727 596.596 165.976 596.407 165.356C596.221 164.736 595.953 164.264 595.602 163.939C595.254 163.614 594.834 163.452 594.344 163.452C593.608 163.452 593.033 163.815 592.619 164.541C592.204 165.263 591.997 166.286 591.997 167.608C591.997 168.49 592.09 169.239 592.276 169.855C592.461 170.472 592.728 170.941 593.076 171.262C593.427 171.584 593.85 171.745 594.344 171.745ZM603.094 172.838C602.345 172.838 601.707 172.635 601.18 172.227C600.653 171.816 600.25 171.221 599.972 170.442C599.693 169.66 599.554 168.715 599.554 167.608C599.554 166.508 599.693 165.568 599.972 164.789C600.253 164.007 600.658 163.411 601.185 163C601.715 162.585 602.351 162.378 603.094 162.378C603.836 162.378 604.471 162.585 604.998 163C605.528 163.411 605.933 164.007 606.211 164.789C606.493 165.568 606.634 166.508 606.634 167.608C606.634 168.715 606.494 169.66 606.216 170.442C605.938 171.221 605.535 171.816 605.008 172.227C604.481 172.635 603.843 172.838 603.094 172.838ZM603.094 171.745C603.836 171.745 604.413 171.387 604.824 170.671C605.235 169.955 605.44 168.934 605.44 167.608C605.44 166.727 605.346 165.976 605.157 165.356C604.971 164.736 604.703 164.264 604.352 163.939C604.004 163.614 603.584 163.452 603.094 163.452C602.358 163.452 601.783 163.815 601.369 164.541C600.954 165.263 600.747 166.286 600.747 167.608C600.747 168.49 600.84 169.239 601.026 169.855C601.211 170.472 601.478 170.941 601.826 171.262C602.177 171.584 602.6 171.745 603.094 171.745Z" fill="#858991"/>
<path d="M643.719 162.517V172.699H642.487V163.81H642.427L639.941 165.461V164.208L642.487 162.517H643.719ZM646.966 172.699L651.52 163.691V163.611H646.27V162.517H652.793V163.671L648.259 172.699H646.966ZM655.042 171.397C654.797 171.397 654.587 171.309 654.411 171.133C654.235 170.958 654.147 170.747 654.147 170.502C654.147 170.257 654.235 170.046 654.411 169.87C654.587 169.695 654.797 169.607 655.042 169.607C655.288 169.607 655.498 169.695 655.674 169.87C655.849 170.046 655.937 170.257 655.937 170.502C655.937 170.664 655.896 170.813 655.813 170.949C655.733 171.085 655.626 171.194 655.49 171.277C655.357 171.357 655.208 171.397 655.042 171.397ZM655.042 166.246C654.797 166.246 654.587 166.158 654.411 165.983C654.235 165.807 654.147 165.596 654.147 165.351C654.147 165.106 654.235 164.895 654.411 164.72C654.587 164.544 654.797 164.456 655.042 164.456C655.288 164.456 655.498 164.544 655.674 164.72C655.849 164.895 655.937 165.106 655.937 165.351C655.937 165.514 655.896 165.663 655.813 165.799C655.733 165.935 655.626 166.044 655.49 166.127C655.357 166.206 655.208 166.246 655.042 166.246ZM661.344 172.838C660.595 172.838 659.957 172.635 659.43 172.227C658.903 171.816 658.5 171.221 658.222 170.442C657.943 169.66 657.804 168.715 657.804 167.608C657.804 166.508 657.943 165.568 658.222 164.789C658.503 164.007 658.908 163.411 659.435 163C659.965 162.585 660.601 162.378 661.344 162.378C662.086 162.378 662.721 162.585 663.248 163C663.778 163.411 664.183 164.007 664.461 164.789C664.743 165.568 664.884 166.508 664.884 167.608C664.884 168.715 664.744 169.66 664.466 170.442C664.188 171.221 663.785 171.816 663.258 172.227C662.731 172.635 662.093 172.838 661.344 172.838ZM661.344 171.745C662.086 171.745 662.663 171.387 663.074 170.671C663.485 169.955 663.69 168.934 663.69 167.608C663.69 166.727 663.596 165.976 663.407 165.356C663.221 164.736 662.953 164.264 662.602 163.939C662.254 163.614 661.834 163.452 661.344 163.452C660.608 163.452 660.033 163.815 659.619 164.541C659.204 165.263 658.997 166.286 658.997 167.608C658.997 168.49 659.09 169.239 659.276 169.855C659.461 170.472 659.728 170.941 660.076 171.262C660.427 171.584 660.85 171.745 661.344 171.745ZM670.094 172.838C669.345 172.838 668.707 172.635 668.18 172.227C667.653 171.816 667.25 171.221 666.972 170.442C666.693 169.66 666.554 168.715 666.554 167.608C666.554 166.508 666.693 165.568 666.972 164.789C667.253 164.007 667.658 163.411 668.185 163C668.715 162.585 669.351 162.378 670.094 162.378C670.836 162.378 671.471 162.585 671.998 163C672.528 163.411 672.933 164.007 673.211 164.789C673.493 165.568 673.634 166.508 673.634 167.608C673.634 168.715 673.494 169.66 673.216 170.442C672.938 171.221 672.535 171.816 672.008 172.227C671.481 172.635 670.843 172.838 670.094 172.838ZM670.094 171.745C670.836 171.745 671.413 171.387 671.824 170.671C672.235 169.955 672.44 168.934 672.44 167.608C672.44 166.727 672.346 165.976 672.157 165.356C671.971 164.736 671.703 164.264 671.352 163.939C671.004 163.614 670.584 163.452 670.094 163.452C669.358 163.452 668.783 163.815 668.369 164.541C667.954 165.263 667.747 166.286 667.747 167.608C667.747 168.49 667.84 169.239 668.026 169.855C668.211 170.472 668.478 170.941 668.826 171.262C669.177 171.584 669.6 171.745 670.094 171.745Z" fill="#858991"/>
<path d="M710.612 162.517V172.699H709.379V163.81H709.319L706.834 165.461V164.208L709.379 162.517H710.612ZM716.802 172.838C716.119 172.838 715.516 172.717 714.992 172.475C714.472 172.23 714.066 171.894 713.774 171.466C713.482 171.035 713.338 170.545 713.341 169.995C713.338 169.564 713.423 169.166 713.595 168.801C713.767 168.434 714.003 168.127 714.301 167.882C714.603 167.633 714.939 167.476 715.31 167.409V167.35C714.823 167.224 714.435 166.95 714.147 166.529C713.858 166.105 713.716 165.623 713.719 165.083C713.716 164.566 713.847 164.103 714.112 163.696C714.377 163.288 714.742 162.967 715.206 162.731C715.673 162.496 716.205 162.378 716.802 162.378C717.392 162.378 717.919 162.496 718.383 162.731C718.847 162.967 719.211 163.288 719.476 163.696C719.745 164.103 719.881 164.566 719.884 165.083C719.881 165.623 719.733 166.105 719.442 166.529C719.153 166.95 718.77 167.224 718.293 167.35V167.409C718.661 167.476 718.992 167.633 719.287 167.882C719.582 168.127 719.818 168.434 719.993 168.801C720.169 169.166 720.259 169.564 720.262 169.995C720.259 170.545 720.109 171.035 719.814 171.466C719.523 171.894 719.117 172.23 718.596 172.475C718.079 172.717 717.481 172.838 716.802 172.838ZM716.802 171.745C717.262 171.745 717.66 171.67 717.995 171.521C718.33 171.372 718.588 171.161 718.77 170.89C718.953 170.618 719.046 170.3 719.049 169.935C719.046 169.551 718.946 169.211 718.751 168.916C718.555 168.621 718.288 168.389 717.95 168.22C717.615 168.051 717.233 167.966 716.802 167.966C716.367 167.966 715.98 168.051 715.638 168.22C715.3 168.389 715.033 168.621 714.838 168.916C714.646 169.211 714.551 169.551 714.555 169.935C714.551 170.3 714.639 170.618 714.818 170.89C715 171.161 715.26 171.372 715.599 171.521C715.937 171.67 716.338 171.745 716.802 171.745ZM716.802 166.912C717.166 166.912 717.489 166.839 717.771 166.694C718.056 166.548 718.28 166.344 718.442 166.082C718.605 165.82 718.688 165.514 718.691 165.162C718.688 164.818 718.606 164.518 718.447 164.262C718.288 164.004 718.068 163.805 717.786 163.666C717.504 163.523 717.176 163.452 716.802 163.452C716.421 163.452 716.087 163.523 715.802 163.666C715.517 163.805 715.297 164.004 715.141 164.262C714.985 164.518 714.909 164.818 714.912 165.162C714.909 165.514 714.987 165.82 715.146 166.082C715.309 166.344 715.532 166.548 715.817 166.694C716.102 166.839 716.43 166.912 716.802 166.912ZM723.042 171.397C722.797 171.397 722.587 171.309 722.411 171.133C722.235 170.958 722.147 170.747 722.147 170.502C722.147 170.257 722.235 170.046 722.411 169.87C722.587 169.695 722.797 169.607 723.042 169.607C723.288 169.607 723.498 169.695 723.674 169.87C723.849 170.046 723.937 170.257 723.937 170.502C723.937 170.664 723.896 170.813 723.813 170.949C723.733 171.085 723.626 171.194 723.49 171.277C723.357 171.357 723.208 171.397 723.042 171.397ZM723.042 166.246C722.797 166.246 722.587 166.158 722.411 165.983C722.235 165.807 722.147 165.596 722.147 165.351C722.147 165.106 722.235 164.895 722.411 164.72C722.587 164.544 722.797 164.456 723.042 164.456C723.288 164.456 723.498 164.544 723.674 164.72C723.849 164.895 723.937 165.106 723.937 165.351C723.937 165.514 723.896 165.663 723.813 165.799C723.733 165.935 723.626 166.044 723.49 166.127C723.357 166.206 723.208 166.246 723.042 166.246ZM729.344 172.838C728.595 172.838 727.957 172.635 727.43 172.227C726.903 171.816 726.5 171.221 726.222 170.442C725.943 169.66 725.804 168.715 725.804 167.608C725.804 166.508 725.943 165.568 726.222 164.789C726.503 164.007 726.908 163.411 727.435 163C727.965 162.585 728.601 162.378 729.344 162.378C730.086 162.378 730.721 162.585 731.248 163C731.778 163.411 732.183 164.007 732.461 164.789C732.743 165.568 732.884 166.508 732.884 167.608C732.884 168.715 732.744 169.66 732.466 170.442C732.188 171.221 731.785 171.816 731.258 172.227C730.731 172.635 730.093 172.838 729.344 172.838ZM729.344 171.745C730.086 171.745 730.663 171.387 731.074 170.671C731.485 169.955 731.69 168.934 731.69 167.608C731.69 166.727 731.596 165.976 731.407 165.356C731.221 164.736 730.953 164.264 730.602 163.939C730.254 163.614 729.834 163.452 729.344 163.452C728.608 163.452 728.033 163.815 727.619 164.541C727.204 165.263 726.997 166.286 726.997 167.608C726.997 168.49 727.09 169.239 727.276 169.855C727.461 170.472 727.728 170.941 728.076 171.262C728.427 171.584 728.85 171.745 729.344 171.745ZM738.094 172.838C737.345 172.838 736.707 172.635 736.18 172.227C735.653 171.816 735.25 171.221 734.972 170.442C734.693 169.66 734.554 168.715 734.554 167.608C734.554 166.508 734.693 165.568 734.972 164.789C735.253 164.007 735.658 163.411 736.185 163C736.715 162.585 737.351 162.378 738.094 162.378C738.836 162.378 739.471 162.585 739.998 163C740.528 163.411 740.933 164.007 741.211 164.789C741.493 165.568 741.634 166.508 741.634 167.608C741.634 168.715 741.494 169.66 741.216 170.442C740.938 171.221 740.535 171.816 740.008 172.227C739.481 172.635 738.843 172.838 738.094 172.838ZM738.094 171.745C738.836 171.745 739.413 171.387 739.824 170.671C740.235 169.955 740.44 168.934 740.44 167.608C740.44 166.727 740.346 165.976 740.157 165.356C739.971 164.736 739.703 164.264 739.352 163.939C739.004 163.614 738.584 163.452 738.094 163.452C737.358 163.452 736.783 163.815 736.369 164.541C735.954 165.263 735.747 166.286 735.747 167.608C735.747 168.49 735.84 169.239 736.026 169.855C736.211 170.472 736.478 170.941 736.826 171.262C737.177 171.584 737.6 171.745 738.094 171.745Z" fill="#858991"/>
<defs>
<clipPath id="clip0_4148_75974">
<rect width="19.4141" height="19.3773" fill="white" transform="translate(254.953 47.5352)"/>
</clipPath>
<clipPath id="clip1_4148_75974">
<rect width="19.4141" height="19.3773" fill="white" transform="translate(181.027 47.5352)"/>
</clipPath>
<clipPath id="clip2_4148_75974">
<rect width="19.4141" height="19.3773" fill="white" transform="translate(110.836 90.7617)"/>
</clipPath>
<clipPath id="clip3_4148_75974">
<rect width="19.4141" height="19.3773" fill="white" transform="translate(256.445 90.7617)"/>
</clipPath>
<clipPath id="clip4_4148_75974">
<rect width="19.4141" height="19.3773" fill="white" transform="translate(245.242 0.583008)"/>
</clipPath>
<clipPath id="clip5_4148_75974">
<rect width="19.4141" height="19.3773" fill="white" transform="translate(369.199 0.583008)"/>
</clipPath>
<clipPath id="clip6_4148_75974">
<rect width="19.4141" height="19.3773" fill="white" transform="translate(534.219 47.5352)"/>
</clipPath>
<clipPath id="clip7_4148_75974">
<rect width="19.4141" height="19.3773" fill="white" transform="translate(678.328 1.3291)"/>
</clipPath>
</defs>
</svg>
