<svg width="587" height="353" viewBox="0 0 587 353" fill="none" xmlns="http://www.w3.org/2000/svg">
<path d="M156.576 77.017L161.124 75.2109V187.13L156.576 188.936V77.017Z" fill="#8C8C8C"/>
<path d="M161.125 75.2109L166.323 80.0247V191.944L161.125 187.13V75.2109Z" fill="#D9D9D9"/>
<g clip-path="url(#clip0_5232_108442)">
<path d="M153.076 167.944L157.229 202.547L184.911 186.63V154.795L153.076 167.944Z" fill="#FB992D"/>
<path d="M157.227 166.56V202.547L129.545 186.63V154.795L157.227 166.56Z" fill="#FFB739"/>
<path d="M129.545 154.796L139.222 160.36L157.556 154.974L166.904 144.442L157.227 138.879L129.545 154.796Z" fill="#FB992D"/>
<path d="M147.553 165.151L157.228 170.714L184.911 154.797L175.236 149.232L156.766 154.697L147.553 165.151Z" fill="#F67A21"/>
<path d="M147.551 178.992L139.221 174.203V160.361L147.25 160.988L147.551 165.151V178.992Z" fill="#FFEAC3"/>
<path d="M139.221 160.362L166.902 144.443L175.234 149.233L147.551 165.151L139.221 160.362Z" fill="#FFD488"/>
</g>
<g clip-path="url(#clip1_5232_108442)">
<path d="M184.91 186.136L189.063 220.739L216.745 204.821V172.986L184.91 186.136Z" fill="#FB992D"/>
<path d="M189.061 184.751V220.739L161.379 204.821V172.986L189.061 184.751Z" fill="#FFB739"/>
<path d="M161.379 172.988L171.056 178.552L189.39 173.165L198.738 162.634L189.061 157.07L161.379 172.988Z" fill="#FB992D"/>
<path d="M179.387 183.342L189.062 188.906L216.745 172.988L207.07 167.424L188.6 172.889L179.387 183.342Z" fill="#F67A21"/>
<path d="M179.385 197.184L171.055 192.394V178.553L179.084 179.18L179.385 183.343V197.184Z" fill="#FFEAC3"/>
<path d="M171.055 178.553L198.736 162.635L207.068 167.425L179.385 183.343L171.055 178.553Z" fill="#FFD488"/>
</g>
<g clip-path="url(#clip2_5232_108442)">
<path d="M248.578 222.52L252.731 257.123L280.413 241.206V209.371L248.578 222.52Z" fill="#FB992D"/>
<path d="M252.729 221.136V257.123L225.047 241.206V209.371L252.729 221.136Z" fill="#FFB739"/>
<path d="M225.047 209.373L234.724 214.937L253.058 209.55L262.406 199.018L252.729 193.455L225.047 209.373Z" fill="#FB992D"/>
<path d="M243.055 219.727L252.73 225.291L280.413 209.373L270.738 203.809L252.268 209.273L243.055 219.727Z" fill="#F67A21"/>
<path d="M243.053 233.568L234.723 228.779V214.938L242.752 215.565L243.053 219.727V233.568Z" fill="#FFEAC3"/>
<path d="M234.723 214.938L262.404 199.02L270.736 203.809L243.053 219.728L234.723 214.938Z" fill="#FFD488"/>
</g>
<path d="M160.799 133.033L122.467 151.225L253.705 227.888L289.763 206.448L160.799 133.033Z" fill="#D9D9D9"/>
<g clip-path="url(#clip3_5232_108442)">
<path d="M152.422 130.264L156.574 164.868L184.257 148.95V117.115L152.422 130.264Z" fill="#FB992D"/>
<path d="M156.573 128.88V164.868L128.891 148.95V117.115L156.573 128.88Z" fill="#FFB739"/>
<path d="M128.891 117.117L138.568 122.681L156.902 117.294L166.249 106.762L156.573 101.199L128.891 117.117Z" fill="#FB992D"/>
<path d="M146.898 127.471L156.574 133.035L184.256 117.117L174.581 111.553L156.111 117.017L146.898 127.471Z" fill="#F67A21"/>
<path d="M146.896 141.313L138.566 136.523V122.682L146.596 123.309L146.896 127.471V141.313Z" fill="#FFEAC3"/>
<path d="M138.566 122.682L166.248 106.764L174.579 111.553L146.896 127.472L138.566 122.682Z" fill="#FFD488"/>
</g>
<path d="M120.193 90.8529L124.741 89.0469V206.984L120.193 202.772V90.8529Z" fill="#8C8C8C"/>
<path d="M120.193 90.8496L125.391 95.6633V207.582L120.193 202.769V90.8496Z" fill="#D9D9D9"/>
<path d="M254.029 158.847L258.577 157.041V267.155L254.029 270.766V158.847Z" fill="#8C8C8C"/>
<path d="M248.832 156.139L254.03 158.846V270.765L248.832 268.058V156.139Z" fill="#D9D9D9"/>
<path d="M289.761 147.715L283.264 144.104V252.713L289.761 254.819V147.715Z" fill="#8C8C8C"/>
<path d="M284.562 150.425L289.76 147.717V254.822L284.562 256.928V150.425Z" fill="#D9D9D9"/>
<path d="M103.602 251.928L37.3809 87.7311C41.5062 88.4812 44.7252 82.4182 45.819 79.293L280.803 100.98L103.602 251.928Z" fill="url(#paint0_linear_5232_108442)" fill-opacity="0.6"/>
<path d="M1.35948 84.8374L10.2289 79.7183C10.979 79.287 11.5884 79.6339 11.5884 80.5058V90.7441C11.5884 91.6067 10.979 92.6661 10.2289 93.0974L1.35948 98.2165C0.609425 98.6478 0 98.3009 0 97.429V87.1907C0.0093757 86.3281 0.609425 85.2687 1.35948 84.8374Z" fill="#374A57"/>
<path d="M9.34766 80.2247L11.1759 79.6152L12.3948 80.3184L9.9477 81.1997L9.34766 80.2247Z" fill="#374A57"/>
<path d="M0.357422 98.2751L2.4857 97.4688L3.71392 98.1719L1.62314 98.997L0.357422 98.2751Z" fill="#374A57"/>
<path d="M2.51377 98.873L11.3832 93.7539C12.1332 93.3226 12.7427 92.2726 12.7427 91.4006V81.1623C12.7427 80.2998 12.1332 79.9435 11.3832 80.3748L2.51377 85.4939C1.76371 85.9252 1.1543 86.9753 1.1543 87.8472V98.0855C1.1543 98.9481 1.76371 99.3043 2.51377 98.873Z" fill="#8A9CA8"/>
<path d="M10.7637 82.4541C10.7637 82.7541 10.9699 82.876 11.2325 82.726C11.495 82.576 11.7012 82.2103 11.7012 81.9103C11.7012 81.6103 11.495 81.4884 11.2325 81.6384C10.9699 81.7884 10.7637 82.1541 10.7637 82.4541Z" fill="#374A57"/>
<path d="M2.18555 87.4072C2.18555 87.7073 2.39181 87.8291 2.65433 87.6791C2.91685 87.5291 3.12312 87.1635 3.12312 86.8634C3.12312 86.5634 2.91685 86.4415 2.65433 86.5915C2.40119 86.7416 2.18555 87.1072 2.18555 87.4072Z" fill="#374A57"/>
<path d="M10.7637 92.2627C10.7637 92.5627 10.9699 92.6846 11.2325 92.5346C11.495 92.3846 11.7012 92.0189 11.7012 91.7189C11.7012 91.4189 11.495 91.297 11.2325 91.447C10.9793 91.597 10.7637 91.9627 10.7637 92.2627Z" fill="#3C3C3B"/>
<path d="M2.18555 97.2158C2.18555 97.5158 2.39181 97.6377 2.65433 97.4877C2.91685 97.3377 3.12312 96.9721 3.12312 96.672C3.12312 96.372 2.91685 96.2501 2.65433 96.4001C2.40119 96.5501 2.18555 96.9158 2.18555 97.2158Z" fill="#374A57"/>
<path d="M4.93164 90.7806C4.93164 92.0651 5.83171 92.5901 6.94742 91.9432C8.06313 91.2963 8.9632 89.7399 8.9632 88.4554C8.9632 87.1709 8.06313 86.6459 6.94742 87.2928C5.83171 87.9397 4.93164 89.4961 4.93164 90.7806Z" fill="#3C3C3B"/>
<path d="M4.28516 91.4832C4.28516 93.5365 5.72902 94.3709 7.5104 93.3489C9.29178 92.3176 10.7356 89.8143 10.7356 87.761C10.7356 85.7077 9.29178 84.8733 7.5104 85.8953C5.72902 86.9266 4.28516 89.4299 4.28516 91.4832Z" fill="white"/>
<path d="M19.1166 94.69C19.7729 94.69 20.3823 94.2588 20.5792 93.6025C20.823 92.7962 20.3636 91.9523 19.5573 91.7086L8.13767 88.3146C7.33136 88.0708 6.70318 88.5396 6.45941 89.3459C6.21565 90.1522 6.45941 90.996 7.26573 91.2304L18.6853 94.6244C18.826 94.6713 18.976 94.69 19.1166 94.69Z" fill="#8A9CA8"/>
<path d="M16.8574 93.169C16.8574 94.9973 18.3388 96.4786 20.167 96.4786C21.9953 96.4786 23.4767 94.9973 23.4767 93.169C23.4767 91.3407 21.9953 89.8594 20.167 89.8594C18.3388 89.8594 16.8574 91.3407 16.8574 93.169Z" fill="#374A57"/>
<path d="M20.936 91.9978C21.6204 91.9978 22.2486 91.529 22.4173 90.8352L24.9581 80.3157C25.155 79.5 24.6488 78.6749 23.8331 78.478C23.0174 78.2812 22.1923 78.7874 21.9954 79.6031L19.4546 90.1227C19.2577 90.9384 19.764 91.7634 20.5797 91.9603C20.7016 91.9884 20.8141 91.9978 20.936 91.9978Z" fill="#8A9CA8"/>
<path d="M19.7637 78.4468C19.7637 81.0439 21.8732 83.1534 24.4703 83.1534C27.0673 83.1534 29.1769 81.0439 29.1769 78.4468C29.1769 75.8498 27.0673 73.7402 24.4703 73.7402C21.8732 73.7402 19.7637 75.8498 19.7637 78.4468Z" fill="#374A57"/>
<path d="M47.8996 74.409L20.7851 58.7516C19.6038 58.0672 17.9818 58.1703 16.1816 59.2016L46.7933 76.8748C48.1903 77.6811 49.5779 75.7497 48.3403 74.7184C48.3309 74.709 48.3216 74.6997 48.3122 74.6997C48.2559 74.6528 48.1997 74.6153 48.1434 74.5778L48.1059 74.6153L47.8996 74.409Z" fill="#374A57"/>
<path d="M22.2302 63.4286C22.2302 59.7252 19.6331 58.2251 16.4266 60.0815C13.2201 61.9285 10.623 66.4289 10.623 70.1323C10.623 73.8357 13.2201 75.3358 16.4266 73.4794C19.6331 71.623 22.2302 67.1227 22.2302 63.4286Z" fill="#8A9CA8"/>
<path d="M20.5338 59.6778L12.3301 73.8867L36.5339 87.8612L44.7376 73.6523L20.5338 59.6778Z" fill="#8A9CA8"/>
<path d="M40.6356 74.052C37.4291 75.899 34.832 80.3994 34.832 84.1028C34.832 87.8062 37.4291 89.3063 40.6356 87.4499C43.8421 85.6029 46.4392 81.1025 46.4392 77.3991C46.4392 73.6957 43.8421 72.205 40.6356 74.052ZM43.9265 75.0458C44.489 75.374 44.8171 76.2272 44.8171 77.3991C44.8171 78.8899 44.2827 80.6712 43.3358 82.3026C42.3982 83.934 41.1138 85.2935 39.8293 86.0341C38.8167 86.6154 37.9166 86.7655 37.3541 86.4373C37.101 86.2967 36.9041 86.0435 36.7541 85.706C36.5665 85.2841 36.4728 84.7403 36.4728 84.0934C36.4728 82.612 37.0166 80.8213 37.9541 79.1899C38.8917 77.5585 40.1762 76.199 41.4607 75.449C42.0232 75.1302 42.5482 74.9333 42.9983 74.8864C43.3546 74.8583 43.6733 74.9052 43.9265 75.0458Z" fill="#EDEDED"/>
<path d="M44.8073 77.3961C44.8073 78.8868 44.2728 80.6682 43.3259 82.2996C42.3883 83.931 41.1039 85.2904 39.8194 86.0311C38.8068 86.6124 37.9068 86.7624 37.3442 86.4343C37.0911 86.2936 36.8942 86.0405 36.7442 85.703C36.5566 85.2811 36.4629 84.7373 36.4629 84.0903C36.4629 82.609 37.0067 80.8182 37.9443 79.1868C38.8818 77.5555 40.1663 76.196 41.4508 75.4459C42.0133 75.1272 42.5383 74.9303 42.9884 74.8834C43.354 74.8459 43.6728 74.8928 43.9259 75.0428C44.4885 75.3709 44.8166 76.2335 44.8073 77.3961Z" fill="#374A57"/>
<path d="M42.9892 74.8945C42.5391 74.9414 42.0047 75.1383 41.4515 75.4571C41.4047 75.4852 41.3672 75.5133 41.3203 75.5415C41.0015 75.7383 40.6827 75.9727 40.3733 76.2353C39.4733 77.0041 38.6295 78.026 37.9544 79.198C37.2794 80.3699 36.8106 81.6169 36.6043 82.7795C36.5293 83.1827 36.4824 83.5764 36.4824 83.9515C36.4824 84.0077 36.4824 84.0546 36.4824 84.1108C36.4824 84.7578 36.5856 85.3109 36.7637 85.7235C37.3169 85.8454 38.0575 85.6766 38.8545 85.2453C40.1202 84.5515 41.3672 83.2577 42.2672 81.6919C43.1673 80.1262 43.6736 78.401 43.6361 76.9572C43.5986 76.029 43.3642 75.3071 42.9892 74.8945Z" fill="#8A9CA8"/>
<path d="M41.3105 75.5352C40.9917 75.732 40.673 75.9664 40.3636 76.229C39.4635 76.9978 38.6197 78.0197 37.9446 79.1917C37.2696 80.3636 36.8008 81.6106 36.5945 82.7732C36.5195 83.1764 36.4727 83.5701 36.4727 83.9452C37.0821 84.2264 37.8884 84.1514 38.7697 83.6358C40.6636 82.5388 42.2106 79.8761 42.2106 77.6822C42.2012 76.6602 41.8637 75.9196 41.3105 75.5352Z" fill="#3C3C3B"/>
<path d="M40.3628 76.2285C39.4627 76.9973 38.6189 78.0193 37.9439 79.1912C37.2688 80.3632 36.8 81.6102 36.5938 82.7728C37.0813 83.0822 37.7657 83.054 38.5345 82.6134C40.0159 81.7602 41.2066 79.6881 41.2066 77.9818C41.1972 77.1098 40.8784 76.5004 40.3628 76.2285Z" fill="#1D1D1B"/>
<path opacity="0.5" d="M37.8333 81.0657C38.2739 80.8126 38.7146 80.3438 39.0615 79.7812L39.8678 80.4094C39.4459 81.0751 38.9021 81.6283 38.3396 81.947C37.9083 82.1908 37.5051 82.2939 37.1582 82.2377L37.3363 81.2345C37.4207 81.2439 37.5801 81.2157 37.8333 81.0657Z" fill="#EDEDED"/>
<path d="M12.9031 68.7071C12.6593 68.5664 12.5375 68.2008 12.6312 67.8914C12.725 67.582 12.9969 67.4414 13.2406 67.582L34.0359 79.5923C34.2797 79.7329 34.4016 80.0986 34.3078 80.408C34.2141 80.7173 33.9422 80.858 33.6984 80.7174L12.9031 68.7071Z" fill="#C6C6C6"/>
<path d="M12.3772 71.2136C12.1334 71.073 11.9553 70.7449 11.974 70.473C11.9928 70.2011 12.2084 70.0979 12.4522 70.2386L33.2475 82.2488C33.4912 82.3895 33.6694 82.7176 33.6506 82.9895C33.6319 83.2614 33.4162 83.3646 33.1725 83.2239L12.3772 71.2136Z" fill="#C6C6C6"/>
<path d="M21.0404 58.9016L21.0311 58.911C20.9561 58.8547 20.8717 58.7985 20.7873 58.7516C19.606 58.0672 17.984 58.1703 16.1838 59.2016C14.3837 60.2423 12.7617 62.0143 11.5804 64.0582C10.699 65.5865 10.0709 67.2554 9.80835 68.8774C9.65834 69.7962 10.099 70.715 10.9053 71.1838L31.2975 82.9597C33.7351 84.366 36.8854 83.4284 38.0761 80.8876C38.2636 80.4939 38.4699 80.1001 38.6949 79.7157C39.8669 77.6718 41.4982 75.8998 43.2984 74.8591C45.0891 73.8183 46.7205 73.7246 47.9018 74.409L21.0404 58.9016Z" fill="white"/>
<path d="M48.1625 74.56L47.9004 74.4102C47.9847 74.457 48.0689 74.5131 48.1532 74.5787L48.1625 74.56Z" fill="#C6C6C6"/>
<path d="M31.8696 81.1145C31.5602 80.9363 31.204 81.0676 31.0821 81.4145C30.9602 81.7614 31.1196 82.1927 31.429 82.3708C31.7384 82.549 32.0947 82.4177 32.2165 82.0708C32.3384 81.7239 32.179 81.302 31.8696 81.1145Z" fill="#374A57"/>
<path d="M25.2974 77.3293C24.988 77.1512 24.6317 77.2824 24.5098 77.6293C24.3879 77.9762 24.5473 78.4075 24.8567 78.5857C25.1661 78.7638 25.5224 78.6325 25.6443 78.2856C25.7662 77.9387 25.6068 77.5075 25.2974 77.3293Z" fill="#374A57"/>
<path d="M18.7231 73.5305C18.4137 73.3524 18.0575 73.4836 17.9356 73.8305C17.8137 74.1774 17.9731 74.6087 18.2825 74.7868C18.5919 74.965 18.9482 74.8337 19.0701 74.4868C19.1919 74.1399 19.0419 73.718 18.7231 73.5305Z" fill="#374A57"/>
<path d="M12.1509 69.7375C11.8415 69.5594 11.4852 69.6906 11.3633 70.0375C11.2414 70.3844 11.4008 70.8157 11.7102 70.9939C12.0196 71.172 12.3759 71.0407 12.4978 70.6938C12.629 70.3469 12.4697 69.9157 12.1509 69.7375Z" fill="#374A57"/>
<path d="M40.9515 153.377V149.533H37.1078V145.69C37.1047 144.671 36.6988 143.695 35.9786 142.975C35.2584 142.255 34.2825 141.849 33.264 141.846H29.4202V138.002H25.5764V141.846H21.7326V138.002H17.8888V141.846H14.045C13.0265 141.849 12.0506 142.255 11.3304 142.975C10.6102 143.695 10.2043 144.671 10.2012 145.69V149.533H6.35742V153.377H10.2012V157.221H6.35742V161.065H10.2012V164.908C10.2043 165.927 10.6102 166.903 11.3304 167.623C12.0506 168.343 13.0265 168.749 14.045 168.752H17.8888V172.596H21.7326V168.752H25.5764V172.596H29.4202V168.752H33.264C34.2825 168.749 35.2584 168.343 35.9786 167.623C36.6988 166.903 37.1047 165.927 37.1078 164.908V161.065H40.9515V157.221H37.1078V153.377H40.9515ZM33.264 164.908H14.045V145.69H33.264V164.908Z" fill="#FE6100"/>
<path d="M22.4265 147.611H19.8415L15.9785 162.986H17.9523L18.8441 159.383H23.2952L24.1639 162.986H26.2049L22.4265 147.611ZM19.1035 157.844L21.06 149.437H21.1484L23.0376 157.844H19.1035ZM27.9673 147.611H29.8892V162.986H27.9673V147.611Z" fill="#FE6100"/>
<path d="M17.1484 113.314H31.3409" stroke="white" stroke-width="2.08284" stroke-linecap="round"/>
<path d="M24.2441 120.412V106.22" stroke="white" stroke-width="2.08284" stroke-linecap="round"/>
<rect y="301.318" width="291.598" height="20.8284" rx="6.9428" fill="#34373E"/>
<rect y="301.318" width="145.799" height="20.8284" rx="6.9428" fill="#EA5545"/>
<path d="M10.879 308.321V316.4H9.75867L5.65216 310.475H5.57721V316.4H4.35828V308.321H5.48648L9.59694 314.254H9.67189V308.321H10.879ZM16.7339 313.888V310.341H17.9174V316.4H16.7576V315.351H16.6945C16.5551 315.675 16.3316 315.944 16.0239 316.16C15.7188 316.373 15.3388 316.479 14.8838 316.479C14.4946 316.479 14.1501 316.394 13.8503 316.223C13.5531 316.049 13.3191 315.793 13.1481 315.454C12.9798 315.114 12.8957 314.695 12.8957 314.195V310.341H14.0752V314.053C14.0752 314.466 14.1896 314.795 14.4184 315.039C14.6472 315.284 14.9443 315.406 15.3099 315.406C15.5308 315.406 15.7504 315.351 15.9687 315.241C16.1896 315.13 16.3723 314.963 16.517 314.74C16.6642 314.516 16.7366 314.232 16.7339 313.888ZM19.8354 316.4V310.341H20.9676V311.327H21.0425C21.1688 310.993 21.3752 310.733 21.6619 310.546C21.9485 310.357 22.2917 310.262 22.6915 310.262C23.0964 310.262 23.4357 310.357 23.7092 310.546C23.9853 310.736 24.1892 310.996 24.3206 311.327H24.3838C24.5284 311.004 24.7585 310.746 25.0741 310.554C25.3897 310.36 25.7657 310.262 26.2023 310.262C26.7519 310.262 27.2003 310.435 27.5475 310.779C27.8972 311.124 28.0721 311.643 28.0721 312.337V316.4H26.8926V312.448C26.8926 312.037 26.7809 311.74 26.5573 311.556C26.3338 311.372 26.0669 311.28 25.7565 311.28C25.3726 311.28 25.0741 311.398 24.8611 311.635C24.6481 311.869 24.5416 312.17 24.5416 312.538V316.4H23.366V312.373C23.366 312.044 23.2634 311.78 23.0583 311.58C22.8532 311.38 22.5863 311.28 22.2575 311.28C22.034 311.28 21.8275 311.339 21.6382 311.458C21.4515 311.573 21.3003 311.735 21.1845 311.943C21.0715 312.151 21.0149 312.391 21.0149 312.665V316.4H19.8354ZM30.0809 316.4V308.321H31.2604V311.323H31.3314C31.3998 311.197 31.4984 311.051 31.6273 310.886C31.7561 310.72 31.935 310.575 32.1638 310.452C32.3926 310.325 32.695 310.262 33.0711 310.262C33.5602 310.262 33.9968 310.386 34.3807 310.633C34.7647 310.88 35.0658 311.237 35.2841 311.702C35.505 312.168 35.6154 312.728 35.6154 313.383C35.6154 314.037 35.5063 314.599 35.288 315.067C35.0697 315.533 34.7699 315.892 34.3886 316.144C34.0073 316.394 33.572 316.519 33.0829 316.519C32.7147 316.519 32.4136 316.457 32.1795 316.333C31.9481 316.21 31.7667 316.065 31.6352 315.899C31.5037 315.734 31.4024 315.586 31.3314 315.458H31.2328V316.4H30.0809ZM31.2367 313.371C31.2367 313.797 31.2985 314.17 31.4221 314.491C31.5457 314.812 31.7246 315.063 31.9586 315.245C32.1927 315.423 32.4793 315.513 32.8186 315.513C33.171 315.513 33.4655 315.419 33.7022 315.233C33.9389 315.043 34.1177 314.787 34.2387 314.464C34.3623 314.14 34.4241 313.776 34.4241 313.371C34.4241 312.971 34.3636 312.612 34.2427 312.294C34.1243 311.976 33.9455 311.725 33.7062 311.54C33.4695 311.356 33.1736 311.264 32.8186 311.264C32.4767 311.264 32.1874 311.352 31.9507 311.529C31.7167 311.705 31.5392 311.951 31.4182 312.266C31.2972 312.582 31.2367 312.95 31.2367 313.371ZM39.8846 316.523C39.2876 316.523 38.7735 316.395 38.3422 316.14C37.9135 315.882 37.5822 315.521 37.3481 315.055C37.1167 314.587 37.001 314.039 37.001 313.41C37.001 312.79 37.1167 312.243 37.3481 311.769C37.5822 311.296 37.9083 310.926 38.3264 310.661C38.7472 310.395 39.239 310.262 39.8018 310.262C40.1436 310.262 40.475 310.319 40.7958 310.432C41.1167 310.545 41.4046 310.723 41.6597 310.964C41.9148 311.206 42.116 311.521 42.2633 311.907C42.4106 312.291 42.4842 312.758 42.4842 313.308V313.726H37.6676V312.842H41.3284C41.3284 312.532 41.2653 312.257 41.139 312.018C41.0128 311.776 40.8353 311.585 40.6065 311.446C40.3803 311.306 40.1147 311.237 39.8096 311.237C39.4783 311.237 39.189 311.318 38.9418 311.481C38.6972 311.642 38.5079 311.852 38.3737 312.112C38.2423 312.37 38.1765 312.65 38.1765 312.953V313.643C38.1765 314.048 38.2475 314.393 38.3895 314.677C38.5342 314.961 38.7353 315.178 38.9931 315.327C39.2508 315.475 39.5519 315.548 39.8964 315.548C40.12 315.548 40.3238 315.517 40.5079 315.454C40.692 315.388 40.8511 315.291 40.9852 315.162C41.1193 315.033 41.2219 314.874 41.2929 314.684L42.4092 314.886C42.3198 315.214 42.1594 315.502 41.928 315.75C41.6992 315.994 41.4112 316.185 41.0641 316.321C40.7196 316.456 40.3264 316.523 39.8846 316.523ZM44.1261 316.4V310.341H45.2662V311.304H45.3293C45.4397 310.978 45.6343 310.721 45.9131 310.535C46.1945 310.345 46.5127 310.25 46.8677 310.25C46.9414 310.25 47.0282 310.253 47.1281 310.258C47.2307 310.264 47.3109 310.27 47.3687 310.278V311.406C47.3214 311.393 47.2372 311.379 47.1163 311.363C46.9953 311.345 46.8743 311.335 46.7533 311.335C46.4746 311.335 46.2261 311.394 46.0078 311.513C45.7921 311.629 45.6212 311.79 45.495 311.998C45.3687 312.203 45.3056 312.437 45.3056 312.7V316.4H44.1261ZM54.5481 316.523C53.98 316.523 53.4843 316.393 53.0609 316.132C52.6375 315.872 52.3087 315.508 52.0747 315.039C51.8406 314.571 51.7236 314.024 51.7236 313.398C51.7236 312.77 51.8406 312.22 52.0747 311.75C52.3087 311.279 52.6375 310.913 53.0609 310.653C53.4843 310.393 53.98 310.262 54.5481 310.262C55.1161 310.262 55.6118 310.393 56.0352 310.653C56.4586 310.913 56.7874 311.279 57.0214 311.75C57.2555 312.22 57.3725 312.77 57.3725 313.398C57.3725 314.024 57.2555 314.571 57.0214 315.039C56.7874 315.508 56.4586 315.872 56.0352 316.132C55.6118 316.393 55.1161 316.523 54.5481 316.523ZM54.552 315.533C54.9202 315.533 55.2252 315.435 55.4672 315.241C55.7091 315.046 55.888 314.787 56.0037 314.464C56.122 314.14 56.1812 313.784 56.1812 313.394C56.1812 313.008 56.122 312.653 56.0037 312.329C55.888 312.003 55.7091 311.742 55.4672 311.544C55.2252 311.347 54.9202 311.249 54.552 311.249C54.1812 311.249 53.8735 311.347 53.6289 311.544C53.387 311.742 53.2068 312.003 53.0885 312.329C52.9728 312.653 52.9149 313.008 52.9149 313.394C52.9149 313.784 52.9728 314.14 53.0885 314.464C53.2068 314.787 53.387 315.046 53.6289 315.241C53.8735 315.435 54.1812 315.533 54.552 315.533ZM61.906 310.341V311.288H58.4819V310.341H61.906ZM59.4208 316.4V309.639C59.4208 309.26 59.5036 308.946 59.6693 308.696C59.835 308.444 60.0546 308.256 60.3281 308.132C60.6016 308.006 60.8987 307.943 61.2196 307.943C61.4563 307.943 61.6588 307.963 61.8271 308.002C61.9954 308.039 62.1203 308.073 62.2018 308.105L61.9257 309.059C61.8705 309.043 61.7995 309.025 61.7127 309.004C61.6259 308.98 61.5207 308.968 61.3971 308.968C61.1104 308.968 60.9053 309.039 60.7817 309.181C60.6607 309.323 60.6003 309.529 60.6003 309.797V316.4H59.4208ZM66.824 316.4V308.321H68.0034V311.323H68.0745C68.1428 311.197 68.2414 311.051 68.3703 310.886C68.4992 310.72 68.678 310.575 68.9068 310.452C69.1356 310.325 69.438 310.262 69.8141 310.262C70.3033 310.262 70.7398 310.386 71.1238 310.633C71.5077 310.88 71.8088 311.237 72.0271 311.702C72.248 312.168 72.3585 312.728 72.3585 313.383C72.3585 314.037 72.2493 314.599 72.0311 315.067C71.8128 315.533 71.513 315.892 71.1317 316.144C70.7503 316.394 70.3151 316.519 69.8259 316.519C69.4578 316.519 69.1566 316.457 68.9226 316.333C68.6912 316.21 68.5097 316.065 68.3782 315.899C68.2467 315.734 68.1455 315.586 68.0745 315.458H67.9758V316.4H66.824ZM67.9798 313.371C67.9798 313.797 68.0416 314.17 68.1652 314.491C68.2888 314.812 68.4676 315.063 68.7017 315.245C68.9357 315.423 69.2224 315.513 69.5616 315.513C69.914 315.513 70.2086 315.419 70.4453 315.233C70.6819 315.043 70.8608 314.787 70.9818 314.464C71.1054 314.14 71.1672 313.776 71.1672 313.371C71.1672 312.971 71.1067 312.612 70.9857 312.294C70.8674 311.976 70.6885 311.725 70.4492 311.54C70.2125 311.356 69.9167 311.264 69.5616 311.264C69.2198 311.264 68.9305 311.352 68.6938 311.529C68.4597 311.705 68.2822 311.951 68.1612 312.266C68.0403 312.582 67.9798 312.95 67.9798 313.371ZM76.5685 316.523C76.0004 316.523 75.5047 316.393 75.0813 316.132C74.6579 315.872 74.3291 315.508 74.0951 315.039C73.861 314.571 73.744 314.024 73.744 313.398C73.744 312.77 73.861 312.22 74.0951 311.75C74.3291 311.279 74.6579 310.913 75.0813 310.653C75.5047 310.393 76.0004 310.262 76.5685 310.262C77.1365 310.262 77.6322 310.393 78.0556 310.653C78.479 310.913 78.8078 311.279 79.0418 311.75C79.2759 312.22 79.3929 312.77 79.3929 313.398C79.3929 314.024 79.2759 314.571 79.0418 315.039C78.8078 315.508 78.479 315.872 78.0556 316.132C77.6322 316.393 77.1365 316.523 76.5685 316.523ZM76.5724 315.533C76.9406 315.533 77.2456 315.435 77.4876 315.241C77.7295 315.046 77.9084 314.787 78.0241 314.464C78.1424 314.14 78.2016 313.784 78.2016 313.394C78.2016 313.008 78.1424 312.653 78.0241 312.329C77.9084 312.003 77.7295 311.742 77.4876 311.544C77.2456 311.347 76.9406 311.249 76.5724 311.249C76.2016 311.249 75.8939 311.347 75.6493 311.544C75.4074 311.742 75.2272 312.003 75.1089 312.329C74.9932 312.653 74.9353 313.008 74.9353 313.394C74.9353 313.784 74.9932 314.14 75.1089 314.464C75.2272 314.787 75.4074 315.046 75.6493 315.241C75.8939 315.435 76.2016 315.533 76.5724 315.533ZM81.735 310.341L83.0723 312.7L84.4214 310.341H85.7114L83.8218 313.371L85.7272 316.4H84.4372L83.0723 314.136L81.7114 316.4H80.4175L82.3031 313.371L80.4412 310.341H81.735ZM89.6285 316.523C89.0315 316.523 88.5173 316.395 88.086 316.14C87.6574 315.882 87.326 315.521 87.092 315.055C86.8605 314.587 86.7448 314.039 86.7448 313.41C86.7448 312.79 86.8605 312.243 87.092 311.769C87.326 311.296 87.6521 310.926 88.0703 310.661C88.491 310.395 88.9828 310.262 89.5456 310.262C89.8875 310.262 90.2189 310.319 90.5397 310.432C90.8605 310.545 91.1485 310.723 91.4036 310.964C91.6587 311.206 91.8599 311.521 92.0072 311.907C92.1544 312.291 92.2281 312.758 92.2281 313.308V313.726H87.4115V312.842H91.0722C91.0722 312.532 91.0091 312.257 90.8829 312.018C90.7567 311.776 90.5791 311.585 90.3503 311.446C90.1242 311.306 89.8586 311.237 89.5535 311.237C89.2221 311.237 88.9329 311.318 88.6857 311.481C88.4411 311.642 88.2517 311.852 88.1176 312.112C87.9861 312.37 87.9204 312.65 87.9204 312.953V313.643C87.9204 314.048 87.9914 314.393 88.1334 314.677C88.278 314.961 88.4792 315.178 88.7369 315.327C88.9947 315.475 89.2958 315.548 89.6403 315.548C89.8638 315.548 90.0676 315.517 90.2517 315.454C90.4358 315.388 90.5949 315.291 90.729 315.162C90.8632 315.033 90.9657 314.874 91.0367 314.684L92.1531 314.886C92.0637 315.214 91.9033 315.502 91.6718 315.75C91.443 315.994 91.1551 316.185 90.8079 316.321C90.4634 316.456 90.0703 316.523 89.6285 316.523ZM98.4104 311.821L97.3414 312.01C97.2967 311.873 97.2257 311.743 97.1284 311.619C97.0337 311.496 96.9048 311.394 96.7418 311.316C96.5787 311.237 96.3749 311.197 96.1303 311.197C95.7964 311.197 95.5176 311.272 95.2941 311.422C95.0705 311.569 94.9588 311.76 94.9588 311.994C94.9588 312.197 95.0337 312.36 95.1836 312.483C95.3335 312.607 95.5755 312.708 95.9094 312.787L96.872 313.008C97.4295 313.137 97.845 313.335 98.1185 313.604C98.392 313.872 98.5288 314.22 98.5288 314.649C98.5288 315.012 98.4236 315.335 98.2132 315.619C98.0054 315.901 97.7148 316.122 97.3414 316.282C96.9706 316.442 96.5406 316.523 96.0515 316.523C95.373 316.523 94.8194 316.378 94.3907 316.089C93.962 315.797 93.6991 315.383 93.6017 314.846L94.7418 314.673C94.8128 314.97 94.9588 315.195 95.1797 315.347C95.4006 315.497 95.6885 315.572 96.0436 315.572C96.4302 315.572 96.7392 315.492 96.9706 315.331C97.202 315.168 97.3177 314.97 97.3177 314.736C97.3177 314.546 97.2467 314.387 97.1047 314.258C96.9653 314.13 96.751 314.032 96.4617 313.966L95.4361 313.742C94.8707 313.613 94.4525 313.408 94.1816 313.126C93.9134 312.845 93.7793 312.488 93.7793 312.057C93.7793 311.7 93.8792 311.387 94.0791 311.118C94.2789 310.85 94.5551 310.641 94.9075 310.491C95.2599 310.339 95.6636 310.262 96.1185 310.262C96.7733 310.262 97.2888 310.404 97.6649 310.688C98.0409 310.97 98.2895 311.347 98.4104 311.821Z" fill="white"/>
<path d="M145.799 294.375V329.089" stroke="white" stroke-width="1.38856" stroke-dasharray="4.17 4.17"/>
<path d="M103.596 348.338V340.259H104.815V347.289H108.476V348.338H103.596ZM112.657 348.46C112.089 348.46 111.594 348.33 111.17 348.07C110.747 347.809 110.418 347.445 110.184 346.977C109.95 346.509 109.833 345.962 109.833 345.336C109.833 344.707 109.95 344.158 110.184 343.687C110.418 343.216 110.747 342.851 111.17 342.59C111.594 342.33 112.089 342.2 112.657 342.2C113.225 342.2 113.721 342.33 114.145 342.59C114.568 342.851 114.897 343.216 115.131 343.687C115.365 344.158 115.482 344.707 115.482 345.336C115.482 345.962 115.365 346.509 115.131 346.977C114.897 347.445 114.568 347.809 114.145 348.07C113.721 348.33 113.225 348.46 112.657 348.46ZM112.661 347.47C113.03 347.47 113.335 347.373 113.577 347.178C113.818 346.984 113.997 346.724 114.113 346.401C114.231 346.078 114.291 345.721 114.291 345.332C114.291 344.945 114.231 344.59 114.113 344.267C113.997 343.941 113.818 343.679 113.577 343.482C113.335 343.285 113.03 343.186 112.661 343.186C112.291 343.186 111.983 343.285 111.738 343.482C111.496 343.679 111.316 343.941 111.198 344.267C111.082 344.59 111.024 344.945 111.024 345.332C111.024 345.721 111.082 346.078 111.198 346.401C111.316 346.724 111.496 346.984 111.738 347.178C111.983 347.373 112.291 347.47 112.661 347.47ZM118.261 348.338L116.478 342.279H117.697L118.884 346.728H118.943L120.135 342.279H121.354L122.537 346.709H122.596L123.776 342.279H124.995L123.216 348.338H122.012L120.782 343.963H120.691L119.46 348.338H118.261ZM130.9 340.259V348.338H129.72V340.259H130.9ZM135.431 348.46C134.834 348.46 134.32 348.333 133.889 348.078C133.46 347.82 133.129 347.458 132.895 346.993C132.663 346.525 132.548 345.976 132.548 345.348C132.548 344.727 132.663 344.18 132.895 343.707C133.129 343.233 133.455 342.864 133.873 342.598C134.294 342.333 134.786 342.2 135.348 342.2C135.69 342.2 136.022 342.256 136.342 342.369C136.663 342.483 136.951 342.66 137.206 342.902C137.461 343.144 137.663 343.458 137.81 343.845C137.957 344.229 138.031 344.696 138.031 345.245V345.663H133.214V344.78H136.875C136.875 344.469 136.812 344.195 136.686 343.955C136.559 343.713 136.382 343.523 136.153 343.383C135.927 343.244 135.661 343.174 135.356 343.174C135.025 343.174 134.736 343.256 134.488 343.419C134.244 343.579 134.055 343.79 133.92 344.05C133.789 344.308 133.723 344.588 133.723 344.89V345.58C133.723 345.985 133.794 346.33 133.936 346.614C134.081 346.898 134.282 347.115 134.54 347.265C134.797 347.412 135.099 347.486 135.443 347.486C135.667 347.486 135.87 347.454 136.055 347.391C136.239 347.325 136.398 347.228 136.532 347.099C136.666 346.97 136.769 346.811 136.84 346.622L137.956 346.823C137.866 347.152 137.706 347.44 137.475 347.687C137.246 347.932 136.958 348.122 136.611 348.259C136.266 348.393 135.873 348.46 135.431 348.46ZM144.683 342.279L142.485 348.338H141.223L139.022 342.279H140.288L141.823 346.941H141.886L143.416 342.279H144.683ZM148.53 348.46C147.933 348.46 147.419 348.333 146.987 348.078C146.559 347.82 146.227 347.458 145.993 346.993C145.762 346.525 145.646 345.976 145.646 345.348C145.646 344.727 145.762 344.18 145.993 343.707C146.227 343.233 146.553 342.864 146.972 342.598C147.392 342.333 147.884 342.2 148.447 342.2C148.789 342.2 149.12 342.256 149.441 342.369C149.762 342.483 150.05 342.66 150.305 342.902C150.56 343.144 150.761 343.458 150.908 343.845C151.056 344.229 151.129 344.696 151.129 345.245V345.663H146.313V344.78H149.974C149.974 344.469 149.91 344.195 149.784 343.955C149.658 343.713 149.48 343.523 149.252 343.383C149.025 343.244 148.76 343.174 148.455 343.174C148.123 343.174 147.834 343.256 147.587 343.419C147.342 343.579 147.153 343.79 147.019 344.05C146.887 344.308 146.822 344.588 146.822 344.89V345.58C146.822 345.985 146.893 346.33 147.035 346.614C147.179 346.898 147.38 347.115 147.638 347.265C147.896 347.412 148.197 347.486 148.542 347.486C148.765 347.486 148.969 347.454 149.153 347.391C149.337 347.325 149.496 347.228 149.63 347.099C149.764 346.97 149.867 346.811 149.938 346.622L151.054 346.823C150.965 347.152 150.805 347.44 150.573 347.687C150.344 347.932 150.056 348.122 149.709 348.259C149.365 348.393 148.972 348.46 148.53 348.46ZM153.951 340.259V348.338H152.771V340.259H153.951ZM163.684 343.758L162.615 343.947C162.571 343.811 162.5 343.68 162.402 343.557C162.308 343.433 162.179 343.332 162.016 343.253C161.853 343.174 161.649 343.135 161.404 343.135C161.07 343.135 160.791 343.21 160.568 343.36C160.344 343.507 160.233 343.698 160.233 343.932C160.233 344.134 160.308 344.297 160.457 344.421C160.607 344.544 160.849 344.646 161.183 344.724L162.146 344.945C162.703 345.074 163.119 345.273 163.392 345.541C163.666 345.809 163.803 346.158 163.803 346.586C163.803 346.949 163.697 347.273 163.487 347.557C163.279 347.838 162.989 348.059 162.615 348.22C162.244 348.38 161.814 348.46 161.325 348.46C160.647 348.46 160.093 348.316 159.665 348.026C159.236 347.734 158.973 347.32 158.876 346.784L160.016 346.61C160.087 346.907 160.233 347.132 160.454 347.285C160.674 347.435 160.962 347.509 161.317 347.509C161.704 347.509 162.013 347.429 162.244 347.269C162.476 347.106 162.592 346.907 162.592 346.673C162.592 346.484 162.521 346.325 162.379 346.196C162.239 346.067 162.025 345.97 161.736 345.904L160.71 345.679C160.145 345.55 159.726 345.345 159.456 345.064C159.187 344.782 159.053 344.426 159.053 343.995C159.053 343.637 159.153 343.324 159.353 343.056C159.553 342.788 159.829 342.579 160.181 342.429C160.534 342.276 160.937 342.2 161.392 342.2C162.047 342.2 162.563 342.342 162.939 342.626C163.315 342.907 163.563 343.285 163.684 343.758ZM168.261 342.279V343.225H164.951V342.279H168.261ZM165.839 340.827H167.019V346.559C167.019 346.788 167.053 346.96 167.121 347.076C167.189 347.189 167.278 347.266 167.385 347.308C167.496 347.348 167.616 347.367 167.744 347.367C167.839 347.367 167.922 347.361 167.993 347.348C168.064 347.335 168.119 347.324 168.159 347.316L168.372 348.291C168.303 348.317 168.206 348.343 168.08 348.369C167.953 348.398 167.796 348.414 167.606 348.417C167.296 348.422 167.007 348.367 166.738 348.251C166.47 348.135 166.253 347.957 166.088 347.715C165.922 347.473 165.839 347.169 165.839 346.803V340.827ZM172.386 348.46C171.818 348.46 171.323 348.33 170.899 348.07C170.476 347.809 170.147 347.445 169.913 346.977C169.679 346.509 169.562 345.962 169.562 345.336C169.562 344.707 169.679 344.158 169.913 343.687C170.147 343.216 170.476 342.851 170.899 342.59C171.323 342.33 171.818 342.2 172.386 342.2C172.954 342.2 173.45 342.33 173.874 342.59C174.297 342.851 174.626 343.216 174.86 343.687C175.094 344.158 175.211 344.707 175.211 345.336C175.211 345.962 175.094 346.509 174.86 346.977C174.626 347.445 174.297 347.809 173.874 348.07C173.45 348.33 172.954 348.46 172.386 348.46ZM172.39 347.47C172.758 347.47 173.064 347.373 173.305 347.178C173.547 346.984 173.726 346.724 173.842 346.401C173.96 346.078 174.019 345.721 174.019 345.332C174.019 344.945 173.96 344.59 173.842 344.267C173.726 343.941 173.547 343.679 173.305 343.482C173.064 343.285 172.758 343.186 172.39 343.186C172.019 343.186 171.712 343.285 171.467 343.482C171.225 343.679 171.045 343.941 170.927 344.267C170.811 344.59 170.753 344.945 170.753 345.332C170.753 345.721 170.811 346.078 170.927 346.401C171.045 346.724 171.225 346.984 171.467 347.178C171.712 347.373 172.019 347.47 172.39 347.47ZM179.413 348.46C178.826 348.46 178.321 348.327 177.898 348.062C177.477 347.794 177.154 347.424 176.928 346.953C176.701 346.483 176.588 345.943 176.588 345.336C176.588 344.721 176.704 344.177 176.936 343.707C177.167 343.233 177.493 342.864 177.914 342.598C178.335 342.333 178.83 342.2 179.401 342.2C179.861 342.2 180.272 342.285 180.632 342.456C180.992 342.625 181.283 342.861 181.504 343.166C181.727 343.471 181.86 343.828 181.902 344.235H180.754C180.691 343.951 180.546 343.707 180.32 343.502C180.097 343.296 179.797 343.194 179.421 343.194C179.092 343.194 178.804 343.281 178.557 343.454C178.312 343.625 178.122 343.87 177.985 344.188C177.848 344.504 177.78 344.877 177.78 345.308C177.78 345.75 177.847 346.131 177.981 346.452C178.115 346.773 178.304 347.022 178.549 347.198C178.796 347.374 179.087 347.462 179.421 347.462C179.644 347.462 179.847 347.421 180.028 347.34C180.212 347.256 180.366 347.136 180.49 346.981C180.616 346.826 180.704 346.639 180.754 346.421H181.902C181.86 346.813 181.732 347.162 181.519 347.47C181.306 347.778 181.021 348.02 180.663 348.196C180.308 348.372 179.892 348.46 179.413 348.46ZM184.581 346.283L184.574 344.843H184.779L187.193 342.279H188.605L185.852 345.198H185.666L184.581 346.283ZM183.497 348.338V340.259H184.676V348.338H183.497ZM187.323 348.338L185.153 345.458L185.966 344.634L188.771 348.338H187.323Z" fill="white"/>
<path d="M131.514 315.138V313.434L134.764 308.321H136.311V310.594H135.427L133.676 313.371V313.434H138.472V315.138H131.514ZM135.443 316.4V314.617L135.49 313.876V308.321H137.541V316.4H135.443Z" fill="white"/>
<g clip-path="url(#clip4_5232_108442)">
<path d="M28.4659 18.9766C22.0785 18.9766 16.8945 24.1605 16.8945 30.5479C16.8945 36.9353 22.0785 42.1192 28.4659 42.1192C34.8532 42.1192 40.0372 36.9353 40.0372 30.5479C40.0372 24.1605 34.8532 18.9766 28.4659 18.9766ZM29.623 36.3336H27.3087V34.0193H29.623V36.3336ZM29.623 31.705H27.3087V24.7622H29.623V31.705Z" fill="#EA5545"/>
</g>
<path d="M42.3516 30.5488H333.255" stroke="#EA5545" stroke-width="2.08284" stroke-dasharray="4.17 4.17"/>
<rect x="338.46" y="0.34714" width="247.858" height="116.639" rx="6.59566" fill="#24262A" stroke="#3D414D" stroke-width="0.69428"/>
<path d="M359.501 36.8281V26.7295H361.331V35.2946H365.779V36.8281H359.501ZM376.413 31.7788C376.413 32.8669 376.21 33.7989 375.802 34.5747C375.398 35.3472 374.845 35.9389 374.145 36.3498C373.448 36.7607 372.658 36.9662 371.773 36.9662C370.889 36.9662 370.097 36.7607 369.397 36.3498C368.7 35.9356 368.147 35.3423 367.74 34.5697C367.335 33.7939 367.133 32.8636 367.133 31.7788C367.133 30.6907 367.335 29.7604 367.74 28.9879C368.147 28.2121 368.7 27.6187 369.397 27.2078C370.097 26.7969 370.889 26.5914 371.773 26.5914C372.658 26.5914 373.448 26.7969 374.145 27.2078C374.845 27.6187 375.398 28.2121 375.802 28.9879C376.21 29.7604 376.413 30.6907 376.413 31.7788ZM374.574 31.7788C374.574 31.0129 374.454 30.3669 374.214 29.8409C373.977 29.3117 373.649 28.9123 373.228 28.6427C372.807 28.3699 372.322 28.2335 371.773 28.2335C371.224 28.2335 370.739 28.3699 370.319 28.6427C369.898 28.9123 369.568 29.3117 369.328 29.8409C369.091 30.3669 368.973 31.0129 368.973 31.7788C368.973 32.5448 369.091 33.1924 369.328 33.7216C369.568 34.2476 369.898 34.647 370.319 34.9198C370.739 35.1894 371.224 35.3242 371.773 35.3242C372.322 35.3242 372.807 35.1894 373.228 34.9198C373.649 34.647 373.977 34.2476 374.214 33.7216C374.454 33.1924 374.574 32.5448 374.574 31.7788ZM380.427 36.8281L377.577 26.7295H379.544L381.364 34.1506H381.458L383.4 26.7295H385.19L387.138 34.1555H387.227L389.046 26.7295H391.014L388.164 36.8281H386.359L384.337 29.7423H384.258L382.232 36.8281H380.427ZM396.56 36.8281V26.7295H398.389V35.2946H402.837V36.8281H396.56ZM404.841 36.8281V26.7295H411.409V28.263H406.671V31.0047H411.069V32.5382H406.671V35.2946H411.449V36.8281H404.841ZM415.043 26.7295L417.671 34.6782H417.775L420.398 26.7295H422.41L418.85 36.8281H416.592L413.036 26.7295H415.043ZM424.157 36.8281V26.7295H430.725V28.263H425.986V31.0047H430.385V32.5382H425.986V35.2946H430.764V36.8281H424.157ZM433.008 36.8281V26.7295H434.837V35.2946H439.285V36.8281H433.008ZM450.638 29.5056C450.592 29.075 450.398 28.7397 450.056 28.4997C449.718 28.2597 449.277 28.1398 448.735 28.1398C448.354 28.1398 448.027 28.1973 447.754 28.3123C447.481 28.4274 447.272 28.5835 447.127 28.7808C446.983 28.978 446.909 29.2032 446.906 29.4563C446.906 29.6667 446.953 29.8492 447.049 30.0037C447.147 30.1582 447.28 30.2897 447.448 30.3981C447.616 30.5033 447.801 30.5921 448.005 30.6644C448.209 30.7367 448.414 30.7976 448.622 30.8469L449.568 31.0835C449.95 31.1723 450.316 31.2923 450.668 31.4435C451.023 31.5947 451.34 31.7854 451.62 32.0155C451.902 32.2456 452.126 32.5234 452.29 32.8488C452.455 33.1743 452.537 33.5556 452.537 33.9928C452.537 34.5845 452.386 35.1056 452.083 35.5559C451.781 36.003 451.343 36.3531 450.771 36.6062C450.203 36.8561 449.514 36.981 448.705 36.981C447.92 36.981 447.238 36.8594 446.659 36.6161C446.084 36.3728 445.633 36.0178 445.308 35.551C444.986 35.0842 444.812 34.5155 444.785 33.8449H446.585C446.611 34.1966 446.72 34.4892 446.911 34.7226C447.101 34.956 447.349 35.1302 447.655 35.2453C447.964 35.3603 448.309 35.4179 448.691 35.4179C449.088 35.4179 449.437 35.3587 449.736 35.2404C450.038 35.1187 450.275 34.9511 450.446 34.7374C450.617 34.5204 450.704 34.2673 450.707 33.978C450.704 33.715 450.627 33.4981 450.476 33.3271C450.324 33.1529 450.112 33.0083 449.839 32.8932C449.57 32.7749 449.254 32.6697 448.893 32.5776L447.744 32.2818C446.912 32.0681 446.255 31.7443 445.771 31.3104C445.292 30.8732 445.052 30.293 445.052 29.5697C445.052 28.9747 445.213 28.4537 445.535 28.0066C445.86 27.5596 446.302 27.2127 446.861 26.9662C447.42 26.7164 448.053 26.5914 448.76 26.5914C449.476 26.5914 450.104 26.7164 450.643 26.9662C451.186 27.2127 451.611 27.5563 451.92 27.9968C452.229 28.434 452.389 28.9369 452.399 29.5056H450.638ZM454.14 28.263V26.7295H462.198V28.263H459.076V36.8281H457.262V28.263H454.14ZM472.744 31.7788C472.744 32.8669 472.54 33.7989 472.132 34.5747C471.728 35.3472 471.176 35.9389 470.475 36.3498C469.778 36.7607 468.988 36.9662 468.104 36.9662C467.219 36.9662 466.427 36.7607 465.727 36.3498C465.03 35.9356 464.478 35.3423 464.07 34.5697C463.666 33.7939 463.464 32.8636 463.464 31.7788C463.464 30.6907 463.666 29.7604 464.07 28.9879C464.478 28.2121 465.03 27.6187 465.727 27.2078C466.427 26.7969 467.219 26.5914 468.104 26.5914C468.988 26.5914 469.778 26.7969 470.475 27.2078C471.176 27.6187 471.728 28.2121 472.132 28.9879C472.54 29.7604 472.744 30.6907 472.744 31.7788ZM470.904 31.7788C470.904 31.0129 470.784 30.3669 470.544 29.8409C470.308 29.3117 469.979 28.9123 469.558 28.6427C469.137 28.3699 468.653 28.2335 468.104 28.2335C467.555 28.2335 467.07 28.3699 466.649 28.6427C466.228 28.9123 465.898 29.3117 465.658 29.8409C465.421 30.3669 465.303 31.0129 465.303 31.7788C465.303 32.5448 465.421 33.1924 465.658 33.7216C465.898 34.2476 466.228 34.647 466.649 34.9198C467.07 35.1894 467.555 35.3242 468.104 35.3242C468.653 35.3242 469.137 35.1894 469.558 34.9198C469.979 34.647 470.308 34.2476 470.544 33.7216C470.784 33.1924 470.904 32.5448 470.904 31.7788ZM483.534 30.1368H481.69C481.637 29.8344 481.54 29.5665 481.399 29.3331C481.257 29.0964 481.081 28.8958 480.871 28.7315C480.661 28.5671 480.421 28.4438 480.151 28.3617C479.885 28.2762 479.597 28.2335 479.288 28.2335C478.739 28.2335 478.253 28.3715 477.829 28.6477C477.405 28.9205 477.073 29.3215 476.833 29.8508C476.593 30.3768 476.473 31.0194 476.473 31.7788C476.473 32.5513 476.593 33.2022 476.833 33.7315C477.076 34.2574 477.408 34.6552 477.829 34.9248C478.253 35.191 478.738 35.3242 479.283 35.3242C479.586 35.3242 479.868 35.2847 480.131 35.2058C480.398 35.1237 480.636 35.0037 480.846 34.8459C481.06 34.6881 481.239 34.4941 481.384 34.264C481.532 34.0339 481.634 33.7709 481.69 33.4751L483.534 33.4849C483.465 33.9649 483.315 34.4152 483.085 34.836C482.858 35.2568 482.561 35.6283 482.193 35.9504C481.824 36.2693 481.394 36.5191 480.901 36.6999C480.407 36.8774 479.86 36.9662 479.259 36.9662C478.371 36.9662 477.579 36.7607 476.882 36.3498C476.185 35.9389 475.636 35.3455 475.235 34.5697C474.834 33.7939 474.633 32.8636 474.633 31.7788C474.633 30.6907 474.835 29.7604 475.24 28.9879C475.644 28.2121 476.195 27.6187 476.892 27.2078C477.589 26.7969 478.378 26.5914 479.259 26.5914C479.821 26.5914 480.343 26.6703 480.827 26.8281C481.31 26.9859 481.74 27.2177 482.119 27.5234C482.497 27.8258 482.807 28.1973 483.05 28.6378C483.297 29.075 483.458 29.5747 483.534 30.1368ZM485.626 36.8281V26.7295H487.455V31.3695H487.578L491.518 26.7295H493.752L489.846 31.2611L493.786 36.8281H491.587L488.574 32.4987L487.455 33.8202V36.8281H485.626ZM499.3 36.8281V26.7295H503.087C503.863 26.7295 504.514 26.8643 505.04 27.1338C505.569 27.4034 505.969 27.7814 506.238 28.268C506.511 28.7512 506.647 29.315 506.647 29.9593C506.647 30.6069 506.509 31.169 506.233 31.6457C505.96 32.1191 505.558 32.4856 505.025 32.7453C504.493 33.0017 503.838 33.1299 503.063 33.1299H500.365V31.6112H502.816C503.27 31.6112 503.641 31.5487 503.93 31.4238C504.22 31.2956 504.433 31.1098 504.571 30.8666C504.713 30.62 504.783 30.3176 504.783 29.9593C504.783 29.601 504.713 29.2953 504.571 29.0421C504.43 28.7857 504.215 28.5918 503.925 28.4603C503.636 28.3255 503.263 28.2581 502.806 28.2581H501.13V36.8281H499.3ZM504.517 32.2522L507.017 36.8281H504.976L502.52 32.2522H504.517ZM508.748 36.8281V26.7295H515.316V28.263H510.577V31.0047H514.976V32.5382H510.577V35.2946H515.355V36.8281H508.748ZM518.896 36.8281H516.943L520.498 26.7295H522.757L526.317 36.8281H524.364L521.667 28.8005H521.588L518.896 36.8281ZM518.96 32.8686H524.285V34.338H518.96V32.8686ZM536.233 30.1368H534.389C534.336 29.8344 534.239 29.5665 534.098 29.3331C533.956 29.0964 533.781 28.8958 533.57 28.7315C533.36 28.5671 533.12 28.4438 532.85 28.3617C532.584 28.2762 532.296 28.2335 531.987 28.2335C531.438 28.2335 530.952 28.3715 530.528 28.6477C530.104 28.9205 529.772 29.3215 529.532 29.8508C529.292 30.3768 529.172 31.0194 529.172 31.7788C529.172 32.5513 529.292 33.2022 529.532 33.7315C529.775 34.2574 530.107 34.6552 530.528 34.9248C530.952 35.191 531.437 35.3242 531.982 35.3242C532.285 35.3242 532.567 35.2847 532.83 35.2058C533.097 35.1237 533.335 35.0037 533.545 34.8459C533.759 34.6881 533.938 34.4941 534.083 34.264C534.231 34.0339 534.333 33.7709 534.389 33.4751L536.233 33.4849C536.164 33.9649 536.014 34.4152 535.784 34.836C535.557 35.2568 535.26 35.6283 534.892 35.9504C534.523 36.2693 534.093 36.5191 533.6 36.6999C533.107 36.8774 532.559 36.9662 531.958 36.9662C531.07 36.9662 530.278 36.7607 529.581 36.3498C528.884 35.9389 528.335 35.3455 527.934 34.5697C527.533 33.7939 527.332 32.8636 527.332 31.7788C527.332 30.6907 527.535 29.7604 527.939 28.9879C528.343 28.2121 528.894 27.6187 529.591 27.2078C530.288 26.7969 531.077 26.5914 531.958 26.5914C532.52 26.5914 533.043 26.6703 533.526 26.8281C534.009 26.9859 534.44 27.2177 534.818 27.5234C535.196 27.8258 535.506 28.1973 535.75 28.6378C535.996 29.075 536.157 29.5747 536.233 30.1368ZM538.325 36.8281V26.7295H540.154V31.0047H544.834V26.7295H546.668V36.8281H544.834V32.5382H540.154V36.8281H538.325ZM549.074 36.8281V26.7295H555.642V28.263H550.904V31.0047H555.302V32.5382H550.904V35.2946H555.682V36.8281H549.074ZM561.347 36.8281H557.925V26.7295H561.416C562.419 26.7295 563.28 26.9317 564 27.336C564.723 27.7371 565.279 28.314 565.667 29.0668C566.055 29.8196 566.249 30.7203 566.249 31.769C566.249 32.8209 566.053 33.7249 565.662 34.481C565.274 35.2371 564.713 35.8173 563.98 36.2216C563.251 36.626 562.373 36.8281 561.347 36.8281ZM559.754 35.2453H561.258C561.962 35.2453 562.549 35.1171 563.019 34.8607C563.489 34.601 563.842 34.2147 564.079 33.7019C564.316 33.1858 564.434 32.5415 564.434 31.769C564.434 30.9964 564.316 30.3554 564.079 29.8459C563.842 29.3331 563.492 28.9501 563.029 28.697C562.568 28.4406 561.996 28.3123 561.313 28.3123H559.754V35.2453Z" fill="#EA5545"/>
<path d="M385.292 56.8281H383.111V49.7591H385.389C386.075 49.7591 386.661 49.9006 387.149 50.1836C387.637 50.4644 388.011 50.8682 388.271 51.3952C388.531 51.9198 388.661 52.548 388.661 53.2798C388.661 54.0162 388.53 54.6501 388.268 55.1817C388.005 55.7109 387.623 56.1182 387.122 56.4036C386.62 56.6866 386.01 56.8281 385.292 56.8281ZM383.967 56.0688H385.237C385.822 56.0688 386.306 55.956 386.69 55.7305C387.075 55.505 387.361 55.184 387.55 54.7675C387.738 54.351 387.833 53.8551 387.833 53.2798C387.833 52.7091 387.74 52.2178 387.553 51.8059C387.367 51.3917 387.088 51.0742 386.718 50.8533C386.347 50.6301 385.886 50.5185 385.334 50.5185H383.967V56.0688ZM392.432 56.9386C391.953 56.9386 391.533 56.8247 391.172 56.5969C390.813 56.3691 390.532 56.0503 390.33 55.6407C390.13 55.2311 390.03 54.7525 390.03 54.2049C390.03 53.6526 390.13 53.1705 390.33 52.7586C390.532 52.3467 390.813 52.0268 391.172 51.799C391.533 51.5712 391.953 51.4573 392.432 51.4573C392.911 51.4573 393.329 51.5712 393.688 51.799C394.05 52.0268 394.33 52.3467 394.531 52.7586C394.733 53.1705 394.834 53.6526 394.834 54.2049C394.834 54.7525 394.733 55.2311 394.531 55.6407C394.33 56.0503 394.05 56.3691 393.688 56.5969C393.329 56.8247 392.911 56.9386 392.432 56.9386ZM392.432 56.2068C392.796 56.2068 393.095 56.1136 393.329 55.9272C393.564 55.7408 393.738 55.4958 393.851 55.192C393.963 54.8883 394.02 54.5592 394.02 54.2049C394.02 53.8505 393.963 53.5203 393.851 53.2142C393.738 52.9082 393.564 52.6608 393.329 52.4721C393.095 52.2834 392.796 52.1891 392.432 52.1891C392.068 52.1891 391.769 52.2834 391.535 52.4721C391.3 52.6608 391.126 52.9082 391.013 53.2142C390.901 53.5203 390.844 53.8505 390.844 54.2049C390.844 54.5592 390.901 54.8883 391.013 55.192C391.126 55.4958 391.3 55.7408 391.535 55.9272C391.769 56.1136 392.068 56.2068 392.432 56.2068ZM399.919 58.8163C399.781 58.8163 399.658 58.8048 399.55 58.7818C399.442 58.7611 399.367 58.7404 399.326 58.7196L399.533 58.0017C399.731 58.0523 399.906 58.0707 400.057 58.0569C400.209 58.0431 400.344 57.9752 400.461 57.8533C400.581 57.7336 400.69 57.5392 400.789 57.2699L400.941 56.8557L398.981 51.5263H399.864L401.328 55.7512H401.383L402.846 51.5263H403.73L401.48 57.6013C401.378 57.8751 401.253 58.1018 401.103 58.2813C400.954 58.4631 400.78 58.5977 400.582 58.6851C400.387 58.7726 400.166 58.8163 399.919 58.8163ZM407.061 56.9386C406.582 56.9386 406.162 56.8247 405.801 56.5969C405.442 56.3691 405.161 56.0503 404.959 55.6407C404.759 55.2311 404.659 54.7525 404.659 54.2049C404.659 53.6526 404.759 53.1705 404.959 52.7586C405.161 52.3467 405.442 52.0268 405.801 51.799C406.162 51.5712 406.582 51.4573 407.061 51.4573C407.54 51.4573 407.958 51.5712 408.317 51.799C408.679 52.0268 408.959 52.3467 409.159 52.7586C409.362 53.1705 409.463 53.6526 409.463 54.2049C409.463 54.7525 409.362 55.2311 409.159 55.6407C408.959 56.0503 408.679 56.3691 408.317 56.5969C407.958 56.8247 407.54 56.9386 407.061 56.9386ZM407.061 56.2068C407.424 56.2068 407.724 56.1136 407.958 55.9272C408.193 55.7408 408.367 55.4958 408.48 55.192C408.592 54.8883 408.649 54.5592 408.649 54.2049C408.649 53.8505 408.592 53.5203 408.48 53.2142C408.367 52.9082 408.193 52.6608 407.958 52.4721C407.724 52.2834 407.424 52.1891 407.061 52.1891C406.697 52.1891 406.398 52.2834 406.163 52.4721C405.929 52.6608 405.755 52.9082 405.642 53.2142C405.529 53.5203 405.473 53.8505 405.473 54.2049C405.473 54.5592 405.529 54.8883 405.642 55.192C405.755 55.4958 405.929 55.7408 406.163 55.9272C406.398 56.1136 406.697 56.2068 407.061 56.2068ZM414.34 54.6605V51.5263H415.154V56.8281H414.34V55.9307H414.284C414.16 56.1999 413.967 56.4289 413.704 56.6176C413.442 56.804 413.111 56.8972 412.71 56.8972C412.379 56.8972 412.084 56.8247 411.827 56.6797C411.569 56.5324 411.366 56.3115 411.219 56.017C411.072 55.7201 410.998 55.3462 410.998 54.8952V51.5263H411.813V54.84C411.813 55.2265 411.921 55.5349 412.137 55.765C412.356 55.9951 412.634 56.1102 412.973 56.1102C413.175 56.1102 413.381 56.0584 413.591 55.9549C413.802 55.8513 413.979 55.6925 414.122 55.4785C414.267 55.2645 414.34 54.9918 414.34 54.6605ZM421.164 56.8281L419.549 51.5263H420.405L421.551 55.5855H421.606L422.738 51.5263H423.608L424.726 55.5717H424.782L425.928 51.5263H426.784L425.168 56.8281H424.367L423.208 52.7551H423.125L421.965 56.8281H421.164ZM429.712 56.9524C429.376 56.9524 429.071 56.8891 428.798 56.7625C428.524 56.6337 428.306 56.4484 428.145 56.2068C427.984 55.9629 427.904 55.6684 427.904 55.3232C427.904 55.0194 427.963 54.7732 428.083 54.5845C428.203 54.3935 428.363 54.244 428.563 54.1358C428.763 54.0277 428.984 53.9471 429.226 53.8942C429.469 53.839 429.715 53.7953 429.961 53.763C430.283 53.7216 430.544 53.6906 430.744 53.6698C430.947 53.6468 431.094 53.6089 431.186 53.5559C431.28 53.503 431.328 53.411 431.328 53.2798V53.2522C431.328 52.9116 431.234 52.647 431.048 52.4583C430.864 52.2696 430.584 52.1753 430.209 52.1753C429.82 52.1753 429.515 52.2604 429.295 52.4307C429.074 52.601 428.918 52.7828 428.829 52.9761L428.055 52.6999C428.193 52.3778 428.378 52.1269 428.608 51.9475C428.84 51.7657 429.093 51.6391 429.367 51.5678C429.643 51.4941 429.915 51.4573 430.182 51.4573C430.352 51.4573 430.548 51.478 430.768 51.5194C430.992 51.5586 431.207 51.6403 431.414 51.7645C431.623 51.8888 431.797 52.0763 431.935 52.3271C432.073 52.578 432.142 52.9139 432.142 53.335V56.8281H431.328V56.1102H431.286C431.231 56.2252 431.139 56.3483 431.01 56.4795C430.881 56.6107 430.71 56.7223 430.496 56.8143C430.282 56.9064 430.021 56.9524 429.712 56.9524ZM429.836 56.2206C430.159 56.2206 430.43 56.1573 430.651 56.0308C430.874 55.9042 431.042 55.7408 431.155 55.5406C431.27 55.3405 431.328 55.1299 431.328 54.909V54.1634C431.293 54.2049 431.217 54.2428 431.1 54.2773C430.985 54.3096 430.851 54.3383 430.699 54.3636C430.55 54.3866 430.404 54.4073 430.261 54.4258C430.121 54.4419 430.007 54.4557 429.919 54.4672C429.708 54.4948 429.51 54.5397 429.326 54.6018C429.144 54.6616 428.997 54.7525 428.884 54.8745C428.773 54.9941 428.718 55.1575 428.718 55.3646C428.718 55.6477 428.823 55.8617 429.032 56.0066C429.244 56.1493 429.512 56.2206 429.836 56.2206ZM434.735 53.6388V56.8281H433.921V51.5263H434.708V52.3548H434.777C434.901 52.0855 435.09 51.8692 435.343 51.7058C435.596 51.5402 435.923 51.4573 436.323 51.4573C436.682 51.4573 436.996 51.531 437.265 51.6782C437.535 51.8232 437.744 52.0441 437.893 52.3409C438.043 52.6355 438.118 53.0083 438.118 53.4593V56.8281H437.303V53.5145C437.303 53.098 437.195 52.7736 436.979 52.5411C436.762 52.3064 436.466 52.1891 436.088 52.1891C435.828 52.1891 435.596 52.2454 435.391 52.3582C435.189 52.471 435.029 52.6355 434.911 52.8518C434.794 53.0681 434.735 53.3304 434.735 53.6388ZM442.204 51.5263V52.2167H439.456V51.5263H442.204ZM440.257 50.2561H441.072V55.3094C441.072 55.5395 441.105 55.7121 441.172 55.8271C441.241 55.9399 441.328 56.0158 441.434 56.0549C441.542 56.0918 441.656 56.1102 441.776 56.1102C441.865 56.1102 441.939 56.1056 441.997 56.0964C442.054 56.0849 442.1 56.0757 442.135 56.0688L442.3 56.8005C442.245 56.8212 442.168 56.8419 442.069 56.8626C441.97 56.8857 441.845 56.8972 441.693 56.8972C441.463 56.8972 441.237 56.8477 441.016 56.7487C440.798 56.6498 440.616 56.4991 440.471 56.2966C440.328 56.0941 440.257 55.8386 440.257 55.5303V50.2561ZM449.052 51.5263V52.2167H446.304V51.5263H449.052ZM447.105 50.2561H447.92V55.3094C447.92 55.5395 447.953 55.7121 448.02 55.8271C448.089 55.9399 448.176 56.0158 448.282 56.0549C448.39 56.0918 448.504 56.1102 448.624 56.1102C448.713 56.1102 448.787 56.1056 448.845 56.0964C448.902 56.0849 448.948 56.0757 448.983 56.0688L449.148 56.8005C449.093 56.8212 449.016 56.8419 448.917 56.8626C448.818 56.8857 448.693 56.8972 448.541 56.8972C448.311 56.8972 448.085 56.8477 447.864 56.7487C447.646 56.6498 447.464 56.4991 447.319 56.2966C447.176 56.0941 447.105 55.8386 447.105 55.5303V50.2561ZM452.666 56.9386C452.187 56.9386 451.767 56.8247 451.406 56.5969C451.047 56.3691 450.766 56.0503 450.563 55.6407C450.363 55.2311 450.263 54.7525 450.263 54.2049C450.263 53.6526 450.363 53.1705 450.563 52.7586C450.766 52.3467 451.047 52.0268 451.406 51.799C451.767 51.5712 452.187 51.4573 452.666 51.4573C453.144 51.4573 453.563 51.5712 453.922 51.799C454.283 52.0268 454.564 52.3467 454.764 52.7586C454.967 53.1705 455.068 53.6526 455.068 54.2049C455.068 54.7525 454.967 55.2311 454.764 55.6407C454.564 56.0503 454.283 56.3691 453.922 56.5969C453.563 56.8247 453.144 56.9386 452.666 56.9386ZM452.666 56.2068C453.029 56.2068 453.328 56.1136 453.563 55.9272C453.798 55.7408 453.971 55.4958 454.084 55.192C454.197 54.8883 454.253 54.5592 454.253 54.2049C454.253 53.8505 454.197 53.5203 454.084 53.2142C453.971 52.9082 453.798 52.6608 453.563 52.4721C453.328 52.2834 453.029 52.1891 452.666 52.1891C452.302 52.1891 452.003 52.2834 451.768 52.4721C451.533 52.6608 451.36 52.9082 451.247 53.2142C451.134 53.5203 451.078 53.8505 451.078 54.2049C451.078 54.5592 451.134 54.8883 451.247 55.192C451.36 55.4958 451.533 55.7408 451.768 55.9272C452.003 56.1136 452.302 56.2068 452.666 56.2068ZM461.782 56.9386C461.303 56.9386 460.884 56.8247 460.522 56.5969C460.163 56.3691 459.883 56.0503 459.68 55.6407C459.48 55.2311 459.38 54.7525 459.38 54.2049C459.38 53.6526 459.48 53.1705 459.68 52.7586C459.883 52.3467 460.163 52.0268 460.522 51.799C460.884 51.5712 461.303 51.4573 461.782 51.4573C462.261 51.4573 462.68 51.5712 463.039 51.799C463.4 52.0268 463.681 52.3467 463.881 52.7586C464.083 53.1705 464.184 53.6526 464.184 54.2049C464.184 54.7525 464.083 55.2311 463.881 55.6407C463.681 56.0503 463.4 56.3691 463.039 56.5969C462.68 56.8247 462.261 56.9386 461.782 56.9386ZM461.782 56.2068C462.146 56.2068 462.445 56.1136 462.68 55.9272C462.914 55.7408 463.088 55.4958 463.201 55.192C463.314 54.8883 463.37 54.5592 463.37 54.2049C463.37 53.8505 463.314 53.5203 463.201 53.2142C463.088 52.9082 462.914 52.6608 462.68 52.4721C462.445 52.2834 462.146 52.1891 461.782 52.1891C461.419 52.1891 461.119 52.2834 460.885 52.4721C460.65 52.6608 460.476 52.9082 460.363 53.2142C460.251 53.5203 460.194 53.8505 460.194 54.2049C460.194 54.5592 460.251 54.8883 460.363 55.192C460.476 55.4958 460.65 55.7408 460.885 55.9272C461.119 56.1136 461.419 56.2068 461.782 56.2068ZM465.72 56.8281V51.5263H466.507V52.3271H466.562C466.658 52.0648 466.833 51.852 467.086 51.6886C467.34 51.5252 467.625 51.4435 467.942 51.4435C468.002 51.4435 468.077 51.4447 468.167 51.447C468.257 51.4493 468.324 51.4527 468.37 51.4573V52.2857C468.343 52.2788 468.28 52.2685 468.181 52.2547C468.084 52.2385 467.982 52.2305 467.873 52.2305C467.616 52.2305 467.386 52.2846 467.183 52.3927C466.983 52.4986 466.824 52.6458 466.707 52.8345C466.592 53.0209 466.534 53.2338 466.534 53.4731V56.8281H465.72ZM471.468 56.9386C471.026 56.9386 470.636 56.827 470.298 56.6038C469.96 56.3783 469.695 56.0607 469.504 55.6511C469.313 55.2392 469.218 54.7525 469.218 54.191C469.218 53.6342 469.313 53.1509 469.504 52.7413C469.695 52.3317 469.961 52.0153 470.302 51.7921C470.642 51.5689 471.036 51.4573 471.482 51.4573C471.827 51.4573 472.1 51.5148 472.3 51.6299C472.503 51.7427 472.657 51.8715 472.763 52.0165C472.871 52.1592 472.955 52.2765 473.015 52.3686H473.084V49.7591H473.898V56.8281H473.111V56.0135H473.015C472.955 56.1102 472.87 56.2321 472.759 56.3794C472.649 56.5244 472.491 56.6544 472.286 56.7694C472.082 56.8822 471.809 56.9386 471.468 56.9386ZM471.579 56.2068C471.905 56.2068 472.182 56.1217 472.407 55.9514C472.633 55.7788 472.804 55.5406 472.921 55.2369C473.039 54.9309 473.097 54.5776 473.097 54.1772C473.097 53.7814 473.04 53.4351 472.925 53.1383C472.81 52.8391 472.64 52.6067 472.414 52.441C472.189 52.2731 471.91 52.1891 471.579 52.1891C471.234 52.1891 470.946 52.2777 470.716 52.4549C470.488 52.6297 470.317 52.8679 470.201 53.1693C470.089 53.4685 470.032 53.8045 470.032 54.1772C470.032 54.5546 470.09 54.8975 470.205 55.2058C470.322 55.5119 470.495 55.7558 470.723 55.9376C470.953 56.1171 471.238 56.2068 471.579 56.2068ZM478.018 56.9386C477.507 56.9386 477.066 56.8258 476.696 56.6003C476.328 56.3725 476.043 56.0549 475.843 55.6477C475.645 55.2381 475.546 54.7617 475.546 54.2187C475.546 53.6756 475.645 53.197 475.843 52.7828C476.043 52.3663 476.322 52.0418 476.679 51.8094C477.037 51.5747 477.456 51.4573 477.935 51.4573C478.211 51.4573 478.484 51.5033 478.753 51.5954C479.022 51.6874 479.267 51.837 479.488 52.0441C479.709 52.2489 479.885 52.5204 480.016 52.8587C480.147 53.197 480.213 53.6135 480.213 54.1082V54.4534H476.126V53.7492H479.385C479.385 53.4501 479.325 53.1832 479.205 52.9484C479.088 52.7137 478.92 52.5285 478.701 52.3927C478.485 52.257 478.229 52.1891 477.935 52.1891C477.61 52.1891 477.33 52.2696 477.093 52.4307C476.858 52.5895 476.677 52.7966 476.551 53.052C476.424 53.3074 476.361 53.5812 476.361 53.8735V54.3429C476.361 54.7433 476.43 55.0827 476.568 55.3612C476.708 55.6373 476.903 55.8478 477.151 55.9928C477.4 56.1355 477.689 56.2068 478.018 56.2068C478.232 56.2068 478.425 56.1769 478.598 56.1171C478.773 56.0549 478.923 55.9629 479.05 55.8409C479.176 55.7167 479.274 55.5625 479.343 55.3784L480.13 55.5993C480.047 55.8663 479.908 56.101 479.713 56.3035C479.517 56.5037 479.275 56.6601 478.988 56.7729C478.7 56.8834 478.377 56.9386 478.018 56.9386ZM481.744 56.8281V51.5263H482.531V52.3271H482.586C482.683 52.0648 482.858 51.852 483.111 51.6886C483.364 51.5252 483.649 51.4435 483.967 51.4435C484.026 51.4435 484.101 51.4447 484.191 51.447C484.281 51.4493 484.349 51.4527 484.395 51.4573V52.2857C484.367 52.2788 484.304 52.2685 484.205 52.2547C484.108 52.2385 484.006 52.2305 483.898 52.2305C483.64 52.2305 483.41 52.2846 483.207 52.3927C483.007 52.4986 482.848 52.6458 482.731 52.8345C482.616 53.0209 482.558 53.2338 482.558 53.4731V56.8281H481.744ZM489.492 53.6388V56.8281H488.677V51.5263H489.464V52.3548H489.533C489.657 52.0855 489.846 51.8692 490.099 51.7058C490.352 51.5402 490.679 51.4573 491.08 51.4573C491.439 51.4573 491.753 51.531 492.022 51.6782C492.291 51.8232 492.5 52.0441 492.65 52.3409C492.8 52.6355 492.874 53.0083 492.874 53.4593V56.8281H492.06V53.5145C492.06 53.098 491.952 52.7736 491.735 52.5411C491.519 52.3064 491.222 52.1891 490.845 52.1891C490.585 52.1891 490.352 52.2454 490.148 52.3582C489.945 52.471 489.785 52.6355 489.668 52.8518C489.55 53.0681 489.492 53.3304 489.492 53.6388ZM496.877 56.9386C496.367 56.9386 495.926 56.8258 495.555 56.6003C495.187 56.3725 494.903 56.0549 494.703 55.6477C494.505 55.2381 494.406 54.7617 494.406 54.2187C494.406 53.6756 494.505 53.197 494.703 52.7828C494.903 52.3663 495.182 52.0418 495.538 51.8094C495.897 51.5747 496.316 51.4573 496.795 51.4573C497.071 51.4573 497.343 51.5033 497.613 51.5954C497.882 51.6874 498.127 51.837 498.348 52.0441C498.569 52.2489 498.745 52.5204 498.876 52.8587C499.007 53.197 499.073 53.6135 499.073 54.1082V54.4534H494.986V53.7492H498.244C498.244 53.4501 498.184 53.1832 498.065 52.9484C497.947 52.7137 497.779 52.5285 497.561 52.3927C497.345 52.257 497.089 52.1891 496.795 52.1891C496.47 52.1891 496.189 52.2696 495.952 52.4307C495.718 52.5895 495.537 52.7966 495.41 53.052C495.284 53.3074 495.221 53.5812 495.221 53.8735V54.3429C495.221 54.7433 495.29 55.0827 495.428 55.3612C495.568 55.6373 495.763 55.8478 496.011 55.9928C496.26 56.1355 496.548 56.2068 496.877 56.2068C497.091 56.2068 497.285 56.1769 497.457 56.1171C497.632 56.0549 497.783 55.9629 497.909 55.8409C498.036 55.7167 498.134 55.5625 498.203 55.3784L498.99 55.5993C498.907 55.8663 498.768 56.101 498.572 56.3035C498.377 56.5037 498.135 56.6601 497.847 56.7729C497.56 56.8834 497.236 56.9386 496.877 56.9386ZM501.805 56.8281L500.189 51.5263H501.045L502.191 55.5855H502.246L503.379 51.5263H504.248L505.367 55.5717H505.422L506.568 51.5263H507.424L505.809 56.8281H505.008L503.848 52.7551H503.765L502.605 56.8281H501.805ZM515.573 52.7137L514.841 52.9208C514.795 52.7989 514.728 52.6804 514.638 52.5653C514.55 52.4479 514.431 52.3513 514.279 52.2754C514.127 52.1994 513.933 52.1615 513.696 52.1615C513.371 52.1615 513.101 52.2362 512.884 52.3858C512.67 52.5331 512.563 52.7206 512.563 52.9484C512.563 53.1509 512.637 53.3109 512.784 53.4282C512.932 53.5456 513.162 53.6434 513.475 53.7216L514.262 53.9149C514.736 54.03 515.089 54.206 515.321 54.443C515.554 54.6777 515.67 54.9803 515.67 55.3508C515.67 55.6546 515.582 55.9261 515.408 56.1654C515.235 56.4047 514.993 56.5934 514.683 56.7315C514.372 56.8695 514.011 56.9386 513.599 56.9386C513.058 56.9386 512.611 56.8212 512.256 56.5865C511.902 56.3518 511.677 56.0089 511.583 55.5579L512.356 55.3646C512.43 55.65 512.569 55.864 512.774 56.0066C512.981 56.1493 513.251 56.2206 513.585 56.2206C513.965 56.2206 514.266 56.1401 514.489 55.979C514.715 55.8156 514.828 55.62 514.828 55.3922C514.828 55.2081 514.763 55.054 514.634 54.9297C514.506 54.8031 514.308 54.7088 514.041 54.6467L513.157 54.4396C512.672 54.3245 512.315 54.1462 512.087 53.9046C511.862 53.6606 511.749 53.3557 511.749 52.9899C511.749 52.6907 511.833 52.4261 512.001 52.196C512.171 51.9659 512.402 51.7852 512.695 51.6541C512.989 51.5229 513.323 51.4573 513.696 51.4573C514.22 51.4573 514.632 51.5724 514.931 51.8025C515.233 52.0326 515.447 52.3363 515.573 52.7137ZM519.493 51.5263V52.2167H516.746V51.5263H519.493ZM517.547 50.2561H518.361V55.3094C518.361 55.5395 518.395 55.7121 518.461 55.8271C518.53 55.9399 518.618 56.0158 518.724 56.0549C518.832 56.0918 518.946 56.1102 519.065 56.1102C519.155 56.1102 519.229 56.1056 519.286 56.0964C519.344 56.0849 519.39 56.0757 519.424 56.0688L519.59 56.8005C519.535 56.8212 519.458 56.8419 519.359 56.8626C519.26 56.8857 519.134 56.8972 518.983 56.8972C518.752 56.8972 518.527 56.8477 518.306 56.7487C518.087 56.6498 517.906 56.4991 517.761 56.2966C517.618 56.0941 517.547 55.8386 517.547 55.5303V50.2561ZM523.107 56.9386C522.629 56.9386 522.209 56.8247 521.847 56.5969C521.488 56.3691 521.208 56.0503 521.005 55.6407C520.805 55.2311 520.705 54.7525 520.705 54.2049C520.705 53.6526 520.805 53.1705 521.005 52.7586C521.208 52.3467 521.488 52.0268 521.847 51.799C522.209 51.5712 522.629 51.4573 523.107 51.4573C523.586 51.4573 524.005 51.5712 524.364 51.799C524.725 52.0268 525.006 52.3467 525.206 52.7586C525.408 53.1705 525.51 53.6526 525.51 54.2049C525.51 54.7525 525.408 55.2311 525.206 55.6407C525.006 56.0503 524.725 56.3691 524.364 56.5969C524.005 56.8247 523.586 56.9386 523.107 56.9386ZM523.107 56.2068C523.471 56.2068 523.77 56.1136 524.005 55.9272C524.239 55.7408 524.413 55.4958 524.526 55.192C524.639 54.8883 524.695 54.5592 524.695 54.2049C524.695 53.8505 524.639 53.5203 524.526 53.2142C524.413 52.9082 524.239 52.6608 524.005 52.4721C523.77 52.2834 523.471 52.1891 523.107 52.1891C522.744 52.1891 522.445 52.2834 522.21 52.4721C521.975 52.6608 521.801 52.9082 521.689 53.2142C521.576 53.5203 521.519 53.8505 521.519 54.2049C521.519 54.5592 521.576 54.8883 521.689 55.192C521.801 55.4958 521.975 55.7408 522.21 55.9272C522.445 56.1136 522.744 56.2068 523.107 56.2068ZM529.199 56.9386C528.701 56.9386 528.273 56.8212 527.914 56.5865C527.556 56.3518 527.279 56.0285 527.086 55.6166C526.893 55.2047 526.796 54.7341 526.796 54.2049C526.796 53.6664 526.895 53.1912 527.093 52.7793C527.293 52.3651 527.572 52.0418 527.928 51.8094C528.287 51.5747 528.706 51.4573 529.185 51.4573C529.557 51.4573 529.893 51.5263 530.193 51.6644C530.492 51.8025 530.737 51.9958 530.928 52.2443C531.119 52.4928 531.237 52.7828 531.283 53.1141H530.469C530.407 52.8725 530.269 52.6585 530.055 52.4721C529.843 52.2834 529.557 52.1891 529.199 52.1891C528.881 52.1891 528.603 52.2719 528.363 52.4376C528.126 52.601 527.941 52.8322 527.807 53.1314C527.676 53.4282 527.611 53.7768 527.611 54.1772C527.611 54.5868 527.675 54.9435 527.804 55.2473C527.935 55.551 528.119 55.7869 528.356 55.9549C528.596 56.1228 528.876 56.2068 529.199 56.2068C529.41 56.2068 529.602 56.17 529.775 56.0964C529.948 56.0227 530.094 55.9169 530.213 55.7788C530.333 55.6407 530.418 55.4751 530.469 55.2818H531.283C531.237 55.5947 531.123 55.8766 530.942 56.1274C530.762 56.376 530.524 56.5739 530.227 56.7211C529.933 56.8661 529.59 56.9386 529.199 56.9386ZM533.525 54.8952L533.511 53.8873H533.677L535.997 51.5263H537.004L534.533 54.0254H534.464L533.525 54.8952ZM532.766 56.8281V49.7591H533.58V56.8281H532.766ZM536.135 56.8281L534.064 54.2049L534.643 53.6388L537.17 56.8281H536.135ZM539.408 54.84V54.7985C539.412 54.359 539.458 54.0093 539.546 53.7492C539.633 53.4892 539.757 53.2787 539.918 53.1176C540.08 52.9565 540.273 52.8081 540.498 52.6723C540.634 52.5895 540.756 52.4917 540.864 52.3789C540.972 52.2639 541.057 52.1315 541.12 51.982C541.184 51.8324 541.216 51.6667 541.216 51.4849C541.216 51.2594 541.163 51.0638 541.057 50.8981C540.952 50.7325 540.81 50.6048 540.633 50.515C540.456 50.4253 540.259 50.3804 540.043 50.3804C539.854 50.3804 539.672 50.4195 539.497 50.4977C539.322 50.576 539.176 50.6991 539.059 50.8671C538.942 51.0351 538.874 51.2548 538.855 51.5263H537.985C538.004 51.1352 538.105 50.8003 538.289 50.5219C538.476 50.2435 538.721 50.0306 539.024 49.8834C539.33 49.7361 539.67 49.6624 540.043 49.6624C540.448 49.6624 540.8 49.743 541.099 49.9041C541.4 50.0651 541.633 50.286 541.796 50.5668C541.962 50.8475 542.045 51.1674 542.045 51.5263C542.045 51.7795 542.006 52.0084 541.927 52.2132C541.851 52.418 541.741 52.601 541.596 52.762C541.453 52.9231 541.281 53.0658 541.078 53.1901C540.876 53.3166 540.713 53.4501 540.592 53.5905C540.47 53.7285 540.381 53.893 540.326 54.084C540.271 54.275 540.241 54.5132 540.236 54.7985V54.84H539.408ZM539.849 56.8834C539.679 56.8834 539.533 56.8224 539.411 56.7004C539.289 56.5785 539.228 56.4323 539.228 56.2621C539.228 56.0918 539.289 55.9456 539.411 55.8237C539.533 55.7017 539.679 55.6407 539.849 55.6407C540.02 55.6407 540.166 55.7017 540.288 55.8237C540.41 55.9456 540.471 56.0918 540.471 56.2621C540.471 56.3748 540.442 56.4784 540.384 56.5727C540.329 56.667 540.254 56.743 540.16 56.8005C540.068 56.8557 539.964 56.8834 539.849 56.8834Z" fill="white"/>
<g filter="url(#filter0_d_5232_108442)">
<rect x="415.006" y="74.7129" width="94.7692" height="25.8932" rx="12.9466" fill="#FE6100" shape-rendering="crispEdges"/>
<path d="M453.135 87.5026C453.135 88.146 453.018 88.6992 452.782 89.1621C452.547 89.6231 452.224 89.9781 451.814 90.2273C451.406 90.4744 450.942 90.598 450.423 90.598C449.901 90.598 449.435 90.4744 449.025 90.2273C448.617 89.9781 448.295 89.6221 448.06 89.1592C447.824 88.6962 447.707 88.144 447.707 87.5026C447.707 86.8592 447.824 86.307 448.06 85.846C448.295 85.3831 448.617 85.028 449.025 84.7809C449.435 84.5317 449.901 84.4072 450.423 84.4072C450.942 84.4072 451.406 84.5317 451.814 84.7809C452.224 85.028 452.547 85.3831 452.782 85.846C453.018 86.307 453.135 86.8592 453.135 87.5026ZM452.235 87.5026C452.235 87.0122 452.156 86.5993 451.997 86.2638C451.84 85.9264 451.624 85.6714 451.349 85.4988C451.077 85.3242 450.768 85.2369 450.423 85.2369C450.075 85.2369 449.765 85.3242 449.493 85.4988C449.22 85.6714 449.004 85.9264 448.845 86.2638C448.689 86.5993 448.61 87.0122 448.61 87.5026C448.61 87.993 448.689 88.4069 448.845 88.7443C449.004 89.0797 449.22 89.3347 449.493 89.5093C449.765 89.6819 450.075 89.7683 450.423 89.7683C450.768 89.7683 451.077 89.6819 451.349 89.5093C451.624 89.3347 451.84 89.0797 451.997 88.7443C452.156 88.4069 452.235 87.993 452.235 87.5026ZM454.683 90.5156V84.4896H456.831C457.298 84.4896 457.686 84.57 457.994 84.7308C458.303 84.8917 458.535 85.1143 458.688 85.3988C458.841 85.6812 458.917 86.0078 458.917 86.3786C458.917 86.7474 458.84 87.072 458.685 87.3525C458.532 87.6311 458.301 87.8478 457.991 88.0028C457.683 88.1578 457.295 88.2353 456.828 88.2353H455.201V87.4526H456.746C457.04 87.4526 457.28 87.4104 457.464 87.326C457.65 87.2417 457.787 87.1191 457.873 86.9582C457.959 86.7974 458.002 86.6042 458.002 86.3786C458.002 86.151 457.958 85.9539 457.87 85.7872C457.784 85.6204 457.647 85.4929 457.461 85.4047C457.277 85.3144 457.034 85.2693 456.734 85.2693H455.593V90.5156H454.683ZM457.658 87.7968L459.147 90.5156H458.111L456.652 87.7968H457.658ZM462.389 90.5156H460.438V84.4896H462.451C463.041 84.4896 463.548 84.6102 463.972 84.8515C464.396 85.0908 464.72 85.4351 464.946 85.8843C465.173 86.3315 465.287 86.868 465.287 87.4938C465.287 88.1215 465.172 88.6609 464.943 89.1121C464.715 89.5633 464.386 89.9105 463.954 90.1537C463.523 90.395 463.001 90.5156 462.389 90.5156ZM461.347 89.7212H462.339C462.798 89.7212 463.179 89.6349 463.483 89.4622C463.788 89.2877 464.015 89.0356 464.166 88.706C464.317 88.3745 464.393 87.9704 464.393 87.4938C464.393 87.021 464.317 86.6199 464.166 86.2903C464.017 85.9608 463.794 85.7107 463.498 85.54C463.202 85.3693 462.834 85.284 462.395 85.284H461.347V89.7212ZM466.832 90.5156V84.4896H470.61V85.2722H467.741V87.1083H470.413V87.8881H467.741V89.7329H470.645V90.5156H466.832ZM472.239 90.5156V84.4896H474.387C474.854 84.4896 475.241 84.57 475.549 84.7308C475.859 84.8917 476.091 85.1143 476.244 85.3988C476.397 85.6812 476.473 86.0078 476.473 86.3786C476.473 86.7474 476.396 87.072 476.241 87.3525C476.088 87.6311 475.856 87.8478 475.546 88.0028C475.238 88.1578 474.851 88.2353 474.384 88.2353H472.757V87.4526H474.302C474.596 87.4526 474.835 87.4104 475.02 87.326C475.206 87.2417 475.342 87.1191 475.429 86.9582C475.515 86.7974 475.558 86.6042 475.558 86.3786C475.558 86.151 475.514 85.9539 475.426 85.7872C475.339 85.6204 475.203 85.4929 475.017 85.4047C474.832 85.3144 474.59 85.2693 474.29 85.2693H473.148V90.5156H472.239ZM475.214 87.7968L476.703 90.5156H475.667L474.207 87.7968H475.214Z" fill="white"/>
</g>
<defs>
<filter id="filter0_d_5232_108442" x="407.756" y="68.4985" width="111.341" height="42.4642" filterUnits="userSpaceOnUse" color-interpolation-filters="sRGB">
<feFlood flood-opacity="0" result="BackgroundImageFix"/>
<feColorMatrix in="SourceAlpha" type="matrix" values="0 0 0 0 0 0 0 0 0 0 0 0 0 0 0 0 0 0 127 0" result="hardAlpha"/>
<feOffset dx="1.03573" dy="2.07146"/>
<feGaussianBlur stdDeviation="4.14292"/>
<feComposite in2="hardAlpha" operator="out"/>
<feColorMatrix type="matrix" values="0 0 0 0 0.875 0 0 0 0 0.334154 0 0 0 0 0 0 0 0 0.25 0"/>
<feBlend mode="normal" in2="BackgroundImageFix" result="effect1_dropShadow_5232_108442"/>
<feBlend mode="normal" in="SourceGraphic" in2="effect1_dropShadow_5232_108442" result="shape"/>
</filter>
<linearGradient id="paint0_linear_5232_108442" x1="-34.2207" y1="-58.8761" x2="167.357" y2="206.456" gradientUnits="userSpaceOnUse">
<stop stop-color="#96C6F2"/>
<stop offset="1" stop-color="#96C6F2" stop-opacity="0"/>
</linearGradient>
<clipPath id="clip0_5232_108442">
<rect width="63.6698" height="63.6698" fill="white" transform="translate(125.391 138.879)"/>
</clipPath>
<clipPath id="clip1_5232_108442">
<rect width="63.6698" height="63.6698" fill="white" transform="translate(157.227 157.07)"/>
</clipPath>
<clipPath id="clip2_5232_108442">
<rect width="63.6698" height="63.6698" fill="white" transform="translate(220.895 193.455)"/>
</clipPath>
<clipPath id="clip3_5232_108442">
<rect width="63.6698" height="63.6698" fill="white" transform="translate(124.74 101.199)"/>
</clipPath>
<clipPath id="clip4_5232_108442">
<rect width="27.7712" height="27.7712" fill="white" transform="translate(14.5801 16.6621)"/>
</clipPath>
</defs>
</svg>
