<svg width="548" height="352" viewBox="0 0 548 352" fill="none" xmlns="http://www.w3.org/2000/svg">
<path d="M164.145 63.2742L168.912 61.3809V178.711L164.145 180.604V63.2742Z" fill="#8C8C8C"/>
<path d="M168.912 61.3809L174.361 66.4273V183.757L168.912 178.711V61.3809Z" fill="#D9D9D9"/>
<g clip-path="url(#clip0_5521_111148)">
<path d="M160.471 158.597L164.824 194.873L193.845 178.186V144.812L160.471 158.597Z" fill="#FB992D"/>
<path d="M164.822 157.146V194.873L135.801 178.186V144.812L164.822 157.146Z" fill="#FFB739"/>
<path d="M135.801 144.812L145.946 150.645L165.166 144.998L174.966 133.957L164.822 128.125L135.801 144.812Z" fill="#FB992D"/>
<path d="M154.678 155.666L164.821 161.499L193.842 144.812L183.699 138.979L164.336 144.707L154.678 155.666Z" fill="#F67A21"/>
<path d="M154.678 170.176L145.945 165.155V150.645L154.363 151.302L154.678 155.666V170.176Z" fill="#FFEAC3"/>
<path d="M145.945 150.645L174.965 133.957L183.699 138.978L154.678 155.666L145.945 150.645Z" fill="#FFD488"/>
</g>
<g clip-path="url(#clip1_5521_111148)">
<path d="M193.842 177.668L198.195 213.944L227.216 197.257V163.883L193.842 177.668Z" fill="#FB992D"/>
<path d="M198.195 176.217V213.944L169.174 197.257V163.883L198.195 176.217Z" fill="#FFB739"/>
<path d="M169.174 163.882L179.319 169.715L198.539 164.068L208.339 153.027L198.195 147.195L169.174 163.882Z" fill="#FB992D"/>
<path d="M188.053 174.737L198.196 180.569L227.217 163.882L217.074 158.049L197.711 163.778L188.053 174.737Z" fill="#F67A21"/>
<path d="M188.051 189.248L179.318 184.227V169.717L187.736 170.374L188.051 174.738V189.248Z" fill="#FFEAC3"/>
<path d="M179.318 169.715L208.338 153.027L217.072 158.049L188.051 174.737L179.318 169.715Z" fill="#FFD488"/>
</g>
<g clip-path="url(#clip2_5521_111148)">
<path d="M260.592 215.81L264.945 252.086L293.966 235.399V202.025L260.592 215.81Z" fill="#FB992D"/>
<path d="M264.945 214.359V252.086L235.924 235.399V202.025L264.945 214.359Z" fill="#FFB739"/>
<path d="M235.924 202.025L246.069 207.858L265.289 202.211L275.089 191.17L264.945 185.338L235.924 202.025Z" fill="#FB992D"/>
<path d="M254.803 212.879L264.946 218.712L293.967 202.025L283.824 196.191L264.461 201.92L254.803 212.879Z" fill="#F67A21"/>
<path d="M254.801 227.391L246.068 222.37V207.859L254.486 208.517L254.801 212.881V227.391Z" fill="#FFEAC3"/>
<path d="M246.068 207.858L275.088 191.17L283.822 196.191L254.801 212.879L246.068 207.858Z" fill="#FFD488"/>
</g>
<path d="M168.572 122L128.387 141.071L265.969 221.441L303.77 198.964L168.572 122Z" fill="#D9D9D9"/>
<g clip-path="url(#clip3_5521_111148)">
<path d="M159.791 119.092L164.144 155.368L193.165 138.681V105.307L159.791 119.092Z" fill="#FB992D"/>
<path d="M164.144 117.641V155.368L135.123 138.681V105.307L164.144 117.641Z" fill="#FFB739"/>
<path d="M135.123 105.306L145.268 111.139L164.489 105.492L174.288 94.4513L164.144 88.6191L135.123 105.306Z" fill="#FB992D"/>
<path d="M154.002 116.161L164.145 121.993L193.166 105.306L183.023 99.4727L163.66 105.202L154.002 116.161Z" fill="#F67A21"/>
<path d="M154 130.672L145.268 125.651V111.141L153.685 111.798L154 116.162V130.672Z" fill="#FFEAC3"/>
<path d="M145.268 111.139L174.288 94.4512L183.022 99.4725L154 116.16L145.268 111.139Z" fill="#FFD488"/>
</g>
<g clip-path="url(#clip4_5521_111148)">
<path d="M193.168 138.168L197.521 174.444L226.542 157.757V124.383L193.168 138.168Z" fill="#FB992D"/>
<path d="M197.521 136.717V174.444L168.5 157.757V124.383L197.521 136.717Z" fill="#FFB739"/>
<path d="M168.5 124.382L178.645 130.215L197.865 124.568L207.665 113.527L197.521 107.695L168.5 124.382Z" fill="#FB992D"/>
<path d="M187.379 135.237L197.522 141.069L226.543 124.382L216.4 118.549L197.037 124.278L187.379 135.237Z" fill="#F67A21"/>
<path d="M187.377 149.748L178.645 144.727V130.217L187.062 130.874L187.377 135.238V149.748Z" fill="#FFEAC3"/>
<path d="M178.645 130.215L207.665 113.527L216.398 118.549L187.377 135.237L178.645 130.215Z" fill="#FFD488"/>
</g>
<g clip-path="url(#clip5_5521_111148)">
<path d="M226.541 157.236L230.894 193.512L259.915 176.825V143.451L226.541 157.236Z" fill="#FB992D"/>
<path d="M230.894 155.785V193.512L201.873 176.825V143.451L230.894 155.785Z" fill="#FFB739"/>
<path d="M201.873 143.451L212.018 149.284L231.239 143.636L241.038 132.596L230.894 126.764L201.873 143.451Z" fill="#FB992D"/>
<path d="M220.752 154.305L230.895 160.138L259.916 143.451L249.773 137.617L230.41 143.346L220.752 154.305Z" fill="#F67A21"/>
<path d="M220.75 168.817L212.018 163.796V149.285L220.435 149.943L220.75 154.306V168.817Z" fill="#FFEAC3"/>
<path d="M212.018 149.284L241.038 132.596L249.772 137.617L220.75 154.305L212.018 149.284Z" fill="#FFD488"/>
</g>
<g clip-path="url(#clip6_5521_111148)">
<path d="M259.914 176.304L264.267 212.581L293.288 195.894V162.52L259.914 176.304Z" fill="#FB992D"/>
<path d="M264.267 174.853V212.581L235.246 195.894V162.52L264.267 174.853Z" fill="#FFB739"/>
<path d="M235.246 162.519L245.391 168.352L264.612 162.705L274.411 151.664L264.267 145.832L235.246 162.519Z" fill="#FB992D"/>
<path d="M254.125 173.373L264.268 179.206L293.289 162.519L283.146 156.686L263.783 162.414L254.125 173.373Z" fill="#F67A21"/>
<path d="M254.123 187.885L245.391 182.864V168.354L253.808 169.011L254.123 173.375V187.885Z" fill="#FFEAC3"/>
<path d="M245.391 168.352L274.411 151.664L283.145 156.685L254.123 173.373L245.391 168.352Z" fill="#FFD488"/>
</g>
<path d="M126.004 77.7801L130.772 75.8867V199.525L126.004 195.11V77.7801Z" fill="#8C8C8C"/>
<path d="M126.004 77.7773L131.453 82.8238V200.154L126.004 195.107V77.7773Z" fill="#D9D9D9"/>
<path d="M266.311 149.063L271.078 147.17V262.607L266.311 266.393V149.063Z" fill="#8C8C8C"/>
<path d="M260.861 146.223L266.31 149.061V266.391L260.861 263.552V146.223Z" fill="#D9D9D9"/>
<path d="M303.772 137.391L296.961 133.605V247.466L303.772 249.674V137.391Z" fill="#8C8C8C"/>
<path d="M298.322 140.231L303.771 137.393V249.676L298.322 251.884V140.231Z" fill="#D9D9D9"/>
<path d="M108.61 246.642L39.1875 74.5062C43.5122 75.2926 46.8869 68.9365 48.0336 65.6602L294.378 88.3953L108.61 246.642Z" fill="url(#paint0_linear_5521_111148)" fill-opacity="0.6"/>
<path d="M1.42521 71.4727L10.7234 66.1061C11.5097 65.654 12.1486 66.0177 12.1486 66.9317V77.665C12.1486 78.5693 11.5097 79.6799 10.7234 80.1321L1.42521 85.4987C0.638888 85.9508 0 85.5871 0 84.673V73.9398C0.00982897 73.0355 0.638888 71.9249 1.42521 71.4727Z" fill="#374A57"/>
<path d="M9.80078 66.635L11.7174 65.9961L12.9952 66.7333L10.4298 67.6572L9.80078 66.635Z" fill="#374A57"/>
<path d="M0.375 85.5582L2.60617 84.7129L3.89377 85.4501L1.70191 86.315L0.375 85.5582Z" fill="#374A57"/>
<path d="M2.63418 86.1883L11.9324 80.8217C12.7187 80.3696 13.3576 79.2687 13.3576 78.3546V67.6214C13.3576 66.7171 12.7187 66.3436 11.9324 66.7958L2.63418 72.1624C1.84786 72.6145 1.20898 73.7154 1.20898 74.6294V85.3627C1.20898 86.267 1.84786 86.6405 2.63418 86.1883Z" fill="#8A9CA8"/>
<path d="M11.2832 68.9752C11.2832 69.2897 11.4994 69.4175 11.7747 69.2602C12.0499 69.1029 12.2661 68.7196 12.2661 68.4051C12.2661 68.0905 12.0499 67.9628 11.7747 68.12C11.4994 68.2773 11.2832 68.6606 11.2832 68.9752Z" fill="#374A57"/>
<path d="M2.28906 74.1705C2.28906 74.485 2.5053 74.6128 2.78051 74.4555C3.05572 74.2982 3.27196 73.9149 3.27196 73.6004C3.27196 73.2859 3.05572 73.1581 2.78051 73.3153C2.51513 73.4726 2.28906 73.8559 2.28906 74.1705Z" fill="#374A57"/>
<path d="M11.2832 79.2584C11.2832 79.5729 11.4994 79.7007 11.7747 79.5434C12.0499 79.3861 12.2661 79.0028 12.2661 78.6883C12.2661 78.3738 12.0499 78.246 11.7747 78.4032C11.5093 78.5605 11.2832 78.9438 11.2832 79.2584Z" fill="#3C3C3B"/>
<path d="M2.28906 84.4517C2.28906 84.7662 2.5053 84.894 2.78051 84.7368C3.05572 84.5795 3.27196 84.1962 3.27196 83.8816C3.27196 83.5671 3.05572 83.4393 2.78051 83.5966C2.51513 83.7539 2.28906 84.1372 2.28906 84.4517Z" fill="#374A57"/>
<path d="M5.16992 77.7067C5.16992 79.0533 6.1135 79.6037 7.28315 78.9255C8.4528 78.2473 9.39638 76.6157 9.39638 75.2692C9.39638 73.9226 8.4528 73.3722 7.28315 74.0504C6.1135 74.7286 5.16992 76.3602 5.16992 77.7067Z" fill="#3C3C3B"/>
<path d="M4.49219 78.4424C4.49219 80.5949 6.00585 81.4697 7.87336 80.3984C9.74086 79.3172 11.2545 76.6928 11.2545 74.5403C11.2545 72.3877 9.74086 71.513 7.87336 72.5843C6.00585 73.6655 4.49219 76.2898 4.49219 78.4424Z" fill="white"/>
<path d="M20.0415 81.8041C20.7295 81.8041 21.3684 81.352 21.5748 80.664C21.8304 79.8187 21.3487 78.9341 20.5034 78.6785L8.53176 75.1204C7.68647 74.8649 7.02793 75.3563 6.77237 76.2016C6.51682 77.0469 6.77237 77.9315 7.61766 78.1772L19.5894 81.7353C19.7368 81.7845 19.894 81.8041 20.0415 81.8041Z" fill="#8A9CA8"/>
<path d="M17.6738 80.2099C17.6738 82.1265 19.2268 83.6795 21.1435 83.6795C23.0601 83.6795 24.6131 82.1265 24.6131 80.2099C24.6131 78.2932 23.0601 76.7402 21.1435 76.7402C19.2268 76.7402 17.6738 78.2932 17.6738 80.2099Z" fill="#374A57"/>
<path d="M21.9491 78.9797C22.6666 78.9797 23.3251 78.4882 23.5021 77.7609L26.1657 66.7327C26.3721 65.8776 25.8414 65.0127 24.9862 64.8063C24.1311 64.5999 23.2662 65.1306 23.0598 65.9857L20.3961 77.0139C20.1897 77.869 20.7205 78.7339 21.5756 78.9403C21.7034 78.9698 21.8213 78.9797 21.9491 78.9797Z" fill="#8A9CA8"/>
<path d="M20.7207 64.7759C20.7207 67.4986 22.9322 69.7101 25.6548 69.7101C28.3775 69.7101 30.589 67.4986 30.589 64.7759C30.589 62.0533 28.3775 59.8418 25.6548 59.8418C22.9322 59.8418 20.7207 62.0533 20.7207 64.7759Z" fill="#374A57"/>
<path d="M50.2123 60.5444L21.787 44.1301C20.5485 43.4125 18.8481 43.5207 16.9609 44.6018L49.0525 63.1295C50.517 63.9748 51.9717 61.95 50.6743 60.8688C50.6645 60.859 50.6547 60.8491 50.6448 60.8491C50.5858 60.8 50.5269 60.7607 50.4679 60.7214L50.4286 60.7607L50.2123 60.5444Z" fill="#374A57"/>
<path d="M23.3011 49.0352C23.3011 45.1528 20.5785 43.5801 17.2169 45.5263C13.8554 47.4626 11.1328 52.1805 11.1328 56.0629C11.1328 59.9454 13.8554 61.518 17.2169 59.5719C20.5785 57.6257 23.3011 52.9078 23.3011 49.0352Z" fill="#8A9CA8"/>
<path d="M21.5242 45.1022L12.9238 59.998L38.2978 74.6481L46.8981 59.7523L21.5242 45.1022Z" fill="#8A9CA8"/>
<path d="M42.5978 60.1704C39.2363 62.1067 36.5137 66.8246 36.5137 70.707C36.5137 74.5895 39.2363 76.1621 42.5978 74.216C45.9593 72.2797 48.6819 67.5618 48.6819 63.6793C48.6819 59.7969 45.9593 58.2341 42.5978 60.1704ZM46.0478 61.2123C46.6375 61.5563 46.9815 62.4507 46.9815 63.6793C46.9815 65.2421 46.4213 67.1096 45.4286 68.8199C44.4457 70.5301 43.0991 71.9553 41.7525 72.7318C40.691 73.3412 39.7474 73.4985 39.1577 73.1545C38.8923 73.007 38.6859 72.7416 38.5286 72.3878C38.332 71.9455 38.2337 71.3754 38.2337 70.6972C38.2337 69.1442 38.8038 67.2669 39.7867 65.5567C40.7696 63.8464 42.1162 62.4212 43.4628 61.6349C44.0525 61.3007 44.6029 61.0943 45.0747 61.0452C45.4482 61.0157 45.7824 61.0648 46.0478 61.2123Z" fill="#EDEDED"/>
<path d="M46.9704 63.6764C46.9704 65.2392 46.4102 67.1067 45.4175 68.8169C44.4346 70.5272 43.088 71.9524 41.7414 72.7288C40.6799 73.3382 39.7363 73.4955 39.1466 73.1515C38.8812 73.0041 38.6748 72.7387 38.5175 72.3848C38.3209 71.9425 38.2227 71.3724 38.2227 70.6942C38.2227 69.1413 38.7927 67.2639 39.7756 65.5537C40.7585 63.8435 42.1051 62.4183 43.4517 61.6319C44.0414 61.2977 44.5918 61.0913 45.0636 61.0422C45.4469 61.0029 45.7811 61.052 46.0465 61.2093C46.6362 61.5533 46.9803 62.4576 46.9704 63.6764Z" fill="#374A57"/>
<path d="M45.0654 61.0547C44.5937 61.1038 44.0334 61.3102 43.4535 61.6444C43.4044 61.6739 43.365 61.7034 43.3159 61.7329C42.9817 61.9393 42.6475 62.185 42.3232 62.4602C41.3796 63.2662 40.495 64.3376 39.7873 65.5662C39.0796 66.7948 38.5882 68.1021 38.3719 69.3209C38.2933 69.7435 38.2441 70.1563 38.2441 70.5495C38.2441 70.6085 38.2441 70.6576 38.2441 70.7166C38.2441 71.3948 38.3523 71.9747 38.539 72.4072C39.1189 72.5349 39.8954 72.358 40.7309 71.9059C42.0578 71.1785 43.365 69.8221 44.3086 68.1807C45.2522 66.5393 45.783 64.7307 45.7437 63.2171C45.7043 62.244 45.4586 61.4872 45.0654 61.0547Z" fill="#8A9CA8"/>
<path d="M43.3061 61.7266C42.9719 61.933 42.6377 62.1787 42.3134 62.4539C41.3698 63.2599 40.4852 64.3312 39.7775 65.5599C39.0698 66.7885 38.5784 68.0957 38.3622 69.3145C38.2835 69.7372 38.2344 70.15 38.2344 70.5432C38.8733 70.838 39.7185 70.7594 40.6425 70.2188C42.6279 69.0688 44.2497 66.2774 44.2497 63.9774C44.2399 62.906 43.886 62.1296 43.3061 61.7266Z" fill="#3C3C3B"/>
<path d="M42.3126 62.4531C41.369 63.2591 40.4844 64.3305 39.7767 65.5591C39.069 66.7877 38.5776 68.095 38.3613 69.3137C38.8724 69.6381 39.5899 69.6086 40.3959 69.1467C41.9489 68.2522 43.1972 66.08 43.1972 64.2911C43.1874 63.377 42.8532 62.7382 42.3126 62.4531Z" fill="#1D1D1B"/>
<path opacity="0.5" d="M39.6589 67.5243C40.1208 67.2589 40.5828 66.7675 40.9465 66.1777L41.7917 66.8363C41.3494 67.5341 40.7794 68.114 40.1896 68.4482C39.7375 68.7038 39.3148 68.8119 38.9512 68.7529L39.1379 67.7012C39.2264 67.7111 39.3935 67.6816 39.6589 67.5243Z" fill="#EDEDED"/>
<path d="M13.5252 54.5668C13.2697 54.4194 13.1419 54.0361 13.2402 53.7117C13.3385 53.3874 13.6235 53.2399 13.8791 53.3874L35.6797 65.9783C35.9353 66.1257 36.063 66.509 35.9648 66.8334C35.8665 67.1578 35.5814 67.3052 35.3259 67.1578L13.5252 54.5668Z" fill="#C6C6C6"/>
<path d="M12.9729 57.1955C12.7173 57.048 12.5306 56.704 12.5502 56.419C12.5699 56.1339 12.796 56.0258 13.0515 56.1732L34.8522 68.7642C35.1077 68.9116 35.2945 69.2556 35.2748 69.5406C35.2552 69.8257 35.0291 69.9338 34.7735 69.7864L12.9729 57.1955Z" fill="#C6C6C6"/>
<path d="M22.0556 44.2873L22.0457 44.2971C21.9671 44.2382 21.8786 44.1792 21.7902 44.1301C20.5517 43.4125 18.8513 43.5207 16.9642 44.6018C15.077 45.6929 13.3766 47.5505 12.1381 49.6933C11.2142 51.2954 10.5557 53.0449 10.2805 54.7453C10.1232 55.7086 10.5852 56.6718 11.4305 57.1633L32.8085 69.5085C35.364 70.9828 38.6665 69.9999 39.9148 67.3363C40.1114 66.9234 40.3276 66.5106 40.5635 66.1076C41.7921 63.9649 43.5024 62.1073 45.3895 61.0162C47.2669 59.9252 48.9771 59.8269 50.2156 60.5444L22.0556 44.2873Z" fill="white"/>
<path d="M50.4877 60.7039L50.2129 60.5469C50.3012 60.5959 50.3896 60.6548 50.4779 60.7235L50.4877 60.7039Z" fill="#C6C6C6"/>
<path d="M33.4077 67.5734C33.0834 67.3866 32.7099 67.5242 32.5821 67.8879C32.4543 68.2516 32.6214 68.7037 32.9458 68.8905C33.2701 69.0772 33.6436 68.9396 33.7714 68.5759C33.8992 68.2123 33.7321 67.77 33.4077 67.5734Z" fill="#374A57"/>
<path d="M26.5191 63.6046C26.1947 63.4179 25.8212 63.5555 25.6934 63.9192C25.5657 64.2828 25.7328 64.735 26.0571 64.9217C26.3815 65.1085 26.755 64.9709 26.8827 64.6072C27.0105 64.2435 26.8434 63.7914 26.5191 63.6046Z" fill="#374A57"/>
<path d="M19.6284 59.6222C19.3041 59.4355 18.9306 59.5731 18.8028 59.9367C18.675 60.3004 18.8421 60.7526 19.1665 60.9393C19.4908 61.1261 19.8643 60.9884 19.9921 60.6248C20.1199 60.2611 19.9626 59.8188 19.6284 59.6222Z" fill="#374A57"/>
<path d="M12.7359 55.6476C12.4115 55.4609 12.038 55.5985 11.9102 55.9621C11.7825 56.3258 11.9496 56.7779 12.2739 56.9647C12.5983 57.1514 12.9718 57.0138 13.0995 56.6502C13.2371 56.2865 13.07 55.8344 12.7359 55.6476Z" fill="#374A57"/>
<path d="M42.9306 143.327V139.298H38.901V135.268C38.8978 134.2 38.4723 133.177 37.7172 132.422C36.9622 131.667 35.9391 131.242 34.8714 131.239H30.8418V127.209H26.8122V131.239H22.7825V127.209H18.7529V131.239H14.7233C13.6556 131.242 12.6325 131.667 11.8775 132.422C11.1224 133.177 10.6969 134.2 10.6937 135.268V139.298H6.66406V143.327H10.6937V147.357H6.66406V151.387H10.6937V155.416C10.6969 156.484 11.1224 157.507 11.8775 158.262C12.6325 159.017 13.6556 159.443 14.7233 159.446H18.7529V163.476H22.7825V159.446H26.8122V163.476H30.8418V159.446H34.8714C35.9391 159.443 36.9622 159.017 37.7172 158.262C38.4723 157.507 38.8978 156.484 38.901 155.416V151.387H42.9306V147.357H38.901V143.327H42.9306ZM34.8714 155.416H14.7233V135.268H34.8714V155.416Z" fill="#FE6100"/>
<path d="M23.5097 137.281H20.7998L16.75 153.4H18.8192L19.7541 149.622H24.4204L25.3311 153.4H27.4708L23.5097 137.281ZM20.0261 148.008L22.0772 139.195H22.1698L24.1504 148.008H20.0261ZM29.3184 137.281H31.3332V153.4H29.3184V137.281Z" fill="#FE6100"/>
<path d="M17.9785 101.326H32.8571" stroke="white" stroke-width="2.18354" stroke-linecap="round"/>
<path d="M25.418 108.768V93.889" stroke="white" stroke-width="2.18354" stroke-linecap="round"/>
<rect y="298.418" width="305.695" height="21.8354" rx="7.27845" fill="#34373E"/>
<rect y="298.418" width="267.119" height="21.8354" rx="7.27845" fill="#87BC45"/>
<path d="M152.848 291.139V327.531" stroke="white" stroke-width="1.45569" stroke-dasharray="4.37 4.37"/>
<path d="M131.935 338.611V347.08H130.657V338.611H131.935ZM135.282 343.309V347.08H134.046V340.728H135.233V341.762H135.311C135.457 341.425 135.686 341.155 135.998 340.951C136.312 340.747 136.708 340.645 137.185 340.645C137.617 340.645 137.996 340.736 138.322 340.918C138.647 341.097 138.899 341.365 139.079 341.72C139.258 342.076 139.347 342.516 139.347 343.04V347.08H138.111V343.189C138.111 342.728 137.991 342.368 137.751 342.109C137.511 341.847 137.182 341.716 136.763 341.716C136.476 341.716 136.221 341.778 135.998 341.902C135.777 342.027 135.602 342.208 135.472 342.448C135.346 342.685 135.282 342.972 135.282 343.309ZM149.546 342.279L148.426 342.477C148.379 342.334 148.304 342.197 148.202 342.068C148.103 341.938 147.968 341.832 147.797 341.749C147.626 341.667 147.412 341.625 147.156 341.625C146.806 341.625 146.514 341.704 146.279 341.861C146.045 342.015 145.928 342.215 145.928 342.461C145.928 342.673 146.006 342.844 146.164 342.974C146.321 343.103 146.574 343.209 146.924 343.292L147.934 343.524C148.518 343.659 148.954 343.867 149.24 344.148C149.527 344.429 149.67 344.795 149.67 345.244C149.67 345.624 149.56 345.963 149.34 346.261C149.122 346.556 148.817 346.788 148.426 346.956C148.037 347.124 147.586 347.208 147.073 347.208C146.362 347.208 145.782 347.057 145.332 346.753C144.883 346.447 144.607 346.013 144.505 345.451L145.7 345.269C145.775 345.58 145.928 345.816 146.159 345.976C146.391 346.133 146.693 346.212 147.065 346.212C147.47 346.212 147.794 346.128 148.037 345.959C148.28 345.788 148.401 345.58 148.401 345.335C148.401 345.136 148.326 344.97 148.178 344.835C148.031 344.699 147.807 344.597 147.503 344.528L146.428 344.293C145.835 344.158 145.397 343.943 145.113 343.648C144.832 343.353 144.691 342.979 144.691 342.527C144.691 342.152 144.796 341.824 145.006 341.543C145.215 341.261 145.505 341.042 145.874 340.885C146.243 340.725 146.667 340.645 147.144 340.645C147.83 340.645 148.37 340.794 148.765 341.092C149.159 341.387 149.42 341.783 149.546 342.279ZM154.344 340.728V341.72H150.875V340.728H154.344ZM151.805 339.206H153.042V345.215C153.042 345.455 153.078 345.635 153.149 345.757C153.221 345.875 153.313 345.957 153.426 346.001C153.542 346.042 153.668 346.063 153.803 346.063C153.902 346.063 153.989 346.056 154.063 346.042C154.138 346.028 154.196 346.017 154.237 346.009L154.46 347.03C154.389 347.058 154.287 347.086 154.154 347.113C154.022 347.143 153.856 347.16 153.658 347.163C153.333 347.168 153.029 347.11 152.748 346.989C152.467 346.868 152.24 346.68 152.066 346.427C151.892 346.173 151.805 345.855 151.805 345.471V339.206ZM158.669 347.208C158.074 347.208 157.554 347.072 157.11 346.799C156.666 346.526 156.321 346.144 156.076 345.653C155.831 345.163 155.708 344.589 155.708 343.933C155.708 343.274 155.831 342.698 156.076 342.204C156.321 341.711 156.666 341.328 157.11 341.055C157.554 340.782 158.074 340.645 158.669 340.645C159.265 340.645 159.784 340.782 160.228 341.055C160.672 341.328 161.017 341.711 161.262 342.204C161.507 342.698 161.63 343.274 161.63 343.933C161.63 344.589 161.507 345.163 161.262 345.653C161.017 346.144 160.672 346.526 160.228 346.799C159.784 347.072 159.265 347.208 158.669 347.208ZM158.673 346.17C159.059 346.17 159.379 346.068 159.633 345.864C159.886 345.66 160.074 345.389 160.195 345.05C160.319 344.71 160.381 344.337 160.381 343.929C160.381 343.524 160.319 343.151 160.195 342.812C160.074 342.47 159.886 342.196 159.633 341.989C159.379 341.783 159.059 341.679 158.673 341.679C158.284 341.679 157.962 341.783 157.705 341.989C157.452 342.196 157.263 342.47 157.139 342.812C157.018 343.151 156.957 343.524 156.957 343.929C156.957 344.337 157.018 344.71 157.139 345.05C157.263 345.389 157.452 345.66 157.705 345.864C157.962 346.068 158.284 346.17 158.673 346.17ZM166.035 347.208C165.421 347.208 164.891 347.069 164.447 346.791C164.006 346.509 163.667 346.122 163.43 345.629C163.193 345.135 163.074 344.57 163.074 343.933C163.074 343.288 163.196 342.719 163.438 342.225C163.681 341.729 164.023 341.341 164.464 341.063C164.905 340.784 165.425 340.645 166.023 340.645C166.505 340.645 166.935 340.735 167.313 340.914C167.691 341.091 167.996 341.339 168.227 341.658C168.461 341.978 168.601 342.352 168.645 342.779H167.441C167.375 342.481 167.224 342.225 166.986 342.01C166.752 341.795 166.438 341.687 166.044 341.687C165.699 341.687 165.397 341.778 165.138 341.96C164.882 342.14 164.682 342.396 164.538 342.73C164.395 343.06 164.323 343.452 164.323 343.904C164.323 344.367 164.394 344.767 164.534 345.103C164.675 345.44 164.873 345.7 165.13 345.885C165.389 346.07 165.693 346.162 166.044 346.162C166.278 346.162 166.49 346.119 166.68 346.034C166.873 345.946 167.035 345.82 167.164 345.657C167.297 345.495 167.389 345.299 167.441 345.07H168.645C168.601 345.481 168.467 345.848 168.244 346.17C168.02 346.493 167.721 346.746 167.346 346.931C166.974 347.116 166.537 347.208 166.035 347.208ZM171.454 344.925L171.445 343.416H171.661L174.191 340.728H175.672L172.785 343.788H172.591L171.454 344.925ZM170.316 347.08V338.611H171.553V347.08H170.316ZM174.328 347.08L172.053 344.061L172.905 343.197L175.846 347.08H174.328Z" fill="white"/>
<path d="M11.4071 305.13V313.6H10.2326L5.92755 307.388H5.84897V313.6H4.57111V305.13H5.75386L10.063 311.35H10.1416V305.13H11.4071ZM17.5451 310.965V307.248H18.7857V313.6H17.5699V312.5H17.5037C17.3576 312.839 17.1233 313.121 16.8007 313.347C16.4809 313.571 16.0825 313.682 15.6055 313.682C15.1975 313.682 14.8363 313.593 14.522 313.414C14.2105 313.232 13.9651 312.963 13.7859 312.607C13.6095 312.251 13.5212 311.812 13.5212 311.288V307.248H14.7578V311.139C14.7578 311.572 14.8777 311.916 15.1175 312.173C15.3574 312.429 15.6689 312.557 16.0522 312.557C16.2837 312.557 16.514 312.5 16.7428 312.384C16.9744 312.268 17.166 312.093 17.3176 311.859C17.472 311.624 17.5478 311.326 17.5451 310.965ZM20.7965 313.6V307.248H21.9834V308.281H22.062C22.1943 307.931 22.4107 307.658 22.7112 307.463C23.0118 307.264 23.3715 307.165 23.7906 307.165C24.2152 307.165 24.5708 307.264 24.8576 307.463C25.147 307.661 25.3607 307.934 25.4986 308.281H25.5647C25.7164 307.942 25.9576 307.672 26.2884 307.471C26.6193 307.267 27.0135 307.165 27.4712 307.165C28.0474 307.165 28.5175 307.345 28.8814 307.707C29.2481 308.068 29.4314 308.612 29.4314 309.34V313.6H28.1949V309.456C28.1949 309.026 28.0777 308.714 27.8434 308.521C27.609 308.328 27.3292 308.232 27.0039 308.232C26.6014 308.232 26.2884 308.356 26.0651 308.604C25.8418 308.849 25.7301 309.165 25.7301 309.551V313.6H24.4978V309.377C24.4978 309.033 24.3902 308.756 24.1752 308.546C23.9602 308.337 23.6803 308.232 23.3357 308.232C23.1014 308.232 22.8849 308.294 22.6864 308.418C22.4907 308.539 22.3322 308.709 22.2108 308.927C22.0923 309.144 22.033 309.397 22.033 309.683V313.6H20.7965ZM31.5373 313.6V305.13H32.7738V308.277H32.8483C32.9199 308.145 33.0233 307.992 33.1584 307.818C33.2935 307.645 33.481 307.493 33.7209 307.363C33.9607 307.231 34.2778 307.165 34.672 307.165C35.1848 307.165 35.6425 307.294 36.045 307.554C36.4475 307.813 36.7632 308.186 36.992 308.674C37.2236 309.162 37.3394 309.749 37.3394 310.436C37.3394 311.122 37.225 311.711 36.9962 312.202C36.7673 312.69 36.453 313.066 36.0533 313.331C35.6535 313.593 35.1972 313.724 34.6844 313.724C34.2984 313.724 33.9828 313.659 33.7374 313.529C33.4948 313.4 33.3045 313.248 33.1667 313.074C33.0288 312.901 32.9227 312.746 32.8483 312.611H32.7449V313.6H31.5373ZM32.749 310.424C32.749 310.87 32.8138 311.262 32.9434 311.598C33.073 311.934 33.2604 312.198 33.5058 312.388C33.7512 312.575 34.0517 312.669 34.4073 312.669C34.7768 312.669 35.0856 312.571 35.3337 312.376C35.5818 312.177 35.7693 311.908 35.8961 311.569C36.0257 311.23 36.0905 310.848 36.0905 310.424C36.0905 310.004 36.0271 309.628 35.9003 309.295C35.7762 308.961 35.5887 308.698 35.3378 308.505C35.0897 308.312 34.7795 308.215 34.4073 308.215C34.0489 308.215 33.7457 308.308 33.4975 308.492C33.2522 308.677 33.0661 308.935 32.9392 309.266C32.8124 309.596 32.749 309.982 32.749 310.424ZM41.8149 313.728C41.1891 313.728 40.6501 313.594 40.198 313.327C39.7486 313.056 39.4012 312.677 39.1558 312.189C38.9132 311.699 38.7919 311.124 38.7919 310.465C38.7919 309.814 38.9132 309.241 39.1558 308.745C39.4012 308.248 39.7431 307.861 40.1814 307.582C40.6225 307.304 41.1381 307.165 41.7281 307.165C42.0865 307.165 42.4339 307.224 42.7702 307.343C43.1066 307.461 43.4085 307.647 43.6759 307.901C43.9433 308.155 44.1542 308.484 44.3086 308.889C44.463 309.292 44.5402 309.781 44.5402 310.357V310.796H39.4908V309.869H43.3285C43.3285 309.544 43.2624 309.256 43.13 309.005C42.9977 308.751 42.8116 308.552 42.5717 308.405C42.3346 308.259 42.0562 308.186 41.7364 308.186C41.389 308.186 41.0857 308.272 40.8266 308.443C40.5702 308.611 40.3717 308.831 40.2311 309.104C40.0932 309.375 40.0243 309.668 40.0243 309.985V310.709C40.0243 311.133 40.0987 311.495 40.2476 311.792C40.3992 312.09 40.6101 312.318 40.8803 312.475C41.1505 312.629 41.4662 312.706 41.8274 312.706C42.0617 312.706 42.2754 312.673 42.4684 312.607C42.6613 312.538 42.8281 312.436 42.9687 312.301C43.1094 312.166 43.2169 311.999 43.2913 311.801L44.4617 312.012C44.3679 312.356 44.1997 312.658 43.9571 312.917C43.7173 313.174 43.4154 313.374 43.0515 313.517C42.6903 313.658 42.2781 313.728 41.8149 313.728ZM46.2615 313.6V307.248H47.4567V308.257H47.5229C47.6387 307.915 47.8427 307.646 48.1349 307.45C48.4299 307.252 48.7635 307.152 49.1357 307.152C49.2129 307.152 49.3039 307.155 49.4086 307.161C49.5162 307.166 49.6003 307.173 49.6609 307.181V308.364C49.6113 308.35 49.5231 308.335 49.3962 308.319C49.2694 308.299 49.1426 308.29 49.0158 308.29C48.7235 308.29 48.463 308.352 48.2342 308.476C48.0081 308.597 47.8289 308.767 47.6966 308.984C47.5642 309.199 47.4981 309.445 47.4981 309.721V313.6H46.2615ZM57.1873 313.728C56.5918 313.728 56.0721 313.591 55.6282 313.318C55.1844 313.045 54.8397 312.664 54.5944 312.173C54.349 311.682 54.2263 311.109 54.2263 310.453C54.2263 309.794 54.349 309.217 54.5944 308.724C54.8397 308.23 55.1844 307.847 55.6282 307.574C56.0721 307.301 56.5918 307.165 57.1873 307.165C57.7828 307.165 58.3025 307.301 58.7464 307.574C59.1903 307.847 59.5349 308.23 59.7803 308.724C60.0256 309.217 60.1483 309.794 60.1483 310.453C60.1483 311.109 60.0256 311.682 59.7803 312.173C59.5349 312.664 59.1903 313.045 58.7464 313.318C58.3025 313.591 57.7828 313.728 57.1873 313.728ZM57.1915 312.69C57.5774 312.69 57.8972 312.588 58.1509 312.384C58.4045 312.18 58.592 311.908 58.7133 311.569C58.8374 311.23 58.8994 310.856 58.8994 310.448C58.8994 310.043 58.8374 309.671 58.7133 309.332C58.592 308.99 58.4045 308.716 58.1509 308.509C57.8972 308.302 57.5774 308.199 57.1915 308.199C56.8027 308.199 56.4802 308.302 56.2238 308.509C55.9701 308.716 55.7813 308.99 55.6572 309.332C55.5359 309.671 55.4752 310.043 55.4752 310.448C55.4752 310.856 55.5359 311.23 55.6572 311.569C55.7813 311.908 55.9701 312.18 56.2238 312.384C56.4802 312.588 56.8027 312.69 57.1915 312.69ZM64.901 307.248V308.24H61.3114V307.248H64.901ZM62.2956 313.6V306.511C62.2956 306.114 62.3824 305.785 62.5561 305.523C62.7298 305.258 62.96 305.061 63.2468 304.932C63.5335 304.799 63.845 304.733 64.1814 304.733C64.4295 304.733 64.6418 304.754 64.8182 304.795C64.9947 304.834 65.1256 304.87 65.2111 304.903L64.9216 305.903C64.8637 305.887 64.7893 305.868 64.6983 305.846C64.6073 305.821 64.4971 305.808 64.3675 305.808C64.067 305.808 63.8519 305.883 63.7223 306.032C63.5955 306.181 63.5321 306.396 63.5321 306.677V313.6H62.2956ZM70.0567 313.6V305.13H71.2932V308.277H71.3676C71.4393 308.145 71.5427 307.992 71.6778 307.818C71.8129 307.645 72.0004 307.493 72.2402 307.363C72.4801 307.231 72.7971 307.165 73.1914 307.165C73.7042 307.165 74.1619 307.294 74.5644 307.554C74.9669 307.813 75.2826 308.186 75.5114 308.674C75.743 309.162 75.8588 309.749 75.8588 310.436C75.8588 311.122 75.7444 311.711 75.5155 312.202C75.2867 312.69 74.9724 313.066 74.5726 313.331C74.1729 313.593 73.7166 313.724 73.2038 313.724C72.8178 313.724 72.5021 313.659 72.2568 313.529C72.0142 313.4 71.8239 313.248 71.6861 313.074C71.5482 312.901 71.4421 312.746 71.3676 312.611H71.2643V313.6H70.0567ZM71.2684 310.424C71.2684 310.87 71.3332 311.262 71.4628 311.598C71.5923 311.934 71.7798 312.198 72.0252 312.388C72.2706 312.575 72.5711 312.669 72.9267 312.669C73.2962 312.669 73.6049 312.571 73.8531 312.376C74.1012 312.177 74.2887 311.908 74.4155 311.569C74.5451 311.23 74.6099 310.848 74.6099 310.424C74.6099 310.004 74.5465 309.628 74.4196 309.295C74.2956 308.961 74.1081 308.698 73.8572 308.505C73.6091 308.312 73.2989 308.215 72.9267 308.215C72.5683 308.215 72.265 308.308 72.0169 308.492C71.7715 308.677 71.5854 308.935 71.4586 309.266C71.3318 309.596 71.2684 309.982 71.2684 310.424ZM80.2723 313.728C79.6768 313.728 79.1571 313.591 78.7132 313.318C78.2693 313.045 77.9247 312.664 77.6793 312.173C77.434 311.682 77.3113 311.109 77.3113 310.453C77.3113 309.794 77.434 309.217 77.6793 308.724C77.9247 308.23 78.2693 307.847 78.7132 307.574C79.1571 307.301 79.6768 307.165 80.2723 307.165C80.8678 307.165 81.3875 307.301 81.8314 307.574C82.2752 307.847 82.6199 308.23 82.8652 308.724C83.1106 309.217 83.2333 309.794 83.2333 310.453C83.2333 311.109 83.1106 311.682 82.8652 312.173C82.6199 312.664 82.2752 313.045 81.8314 313.318C81.3875 313.591 80.8678 313.728 80.2723 313.728ZM80.2764 312.69C80.6624 312.69 80.9822 312.588 81.2359 312.384C81.4895 312.18 81.677 311.908 81.7983 311.569C81.9224 311.23 81.9844 310.856 81.9844 310.448C81.9844 310.043 81.9224 309.671 81.7983 309.332C81.677 308.99 81.4895 308.716 81.2359 308.509C80.9822 308.302 80.6624 308.199 80.2764 308.199C79.8877 308.199 79.5651 308.302 79.3087 308.509C79.0551 308.716 78.8662 308.99 78.7422 309.332C78.6209 309.671 78.5602 310.043 78.5602 310.448C78.5602 310.856 78.6209 311.23 78.7422 311.569C78.8662 311.908 79.0551 312.18 79.3087 312.384C79.5651 312.588 79.8877 312.69 80.2764 312.69ZM85.6887 307.248L87.0906 309.721L88.5049 307.248H89.8572L87.8763 310.424L89.8738 313.6H88.5215L87.0906 311.226L85.6638 313.6H84.3074L86.2842 310.424L84.3322 307.248H85.6887ZM93.9637 313.728C93.3378 313.728 92.7989 313.594 92.3467 313.327C91.8973 313.056 91.5499 312.677 91.3046 312.189C91.062 311.699 90.9406 311.124 90.9406 310.465C90.9406 309.814 91.062 309.241 91.3046 308.745C91.5499 308.248 91.8918 307.861 92.3302 307.582C92.7713 307.304 93.2868 307.165 93.8768 307.165C94.2352 307.165 94.5826 307.224 94.919 307.343C95.2553 307.461 95.5572 307.647 95.8247 307.901C96.0921 308.155 96.303 308.484 96.4574 308.889C96.6118 309.292 96.689 309.781 96.689 310.357V310.796H91.6395V309.869H95.4773C95.4773 309.544 95.4111 309.256 95.2788 309.005C95.1464 308.751 94.9603 308.552 94.7205 308.405C94.4834 308.259 94.2049 308.186 93.8851 308.186C93.5377 308.186 93.2345 308.272 92.9753 308.443C92.7189 308.611 92.5204 308.831 92.3798 309.104C92.2419 309.375 92.173 309.668 92.173 309.985V310.709C92.173 311.133 92.2475 311.495 92.3963 311.792C92.548 312.09 92.7589 312.318 93.0291 312.475C93.2992 312.629 93.6149 312.706 93.9761 312.706C94.2104 312.706 94.4241 312.673 94.6171 312.607C94.8101 312.538 94.9769 312.436 95.1175 312.301C95.2581 312.166 95.3656 311.999 95.4401 311.801L96.6104 312.012C96.5167 312.356 96.3485 312.658 96.1059 312.917C95.866 313.174 95.5641 313.374 95.2002 313.517C94.839 313.658 94.4269 313.728 93.9637 313.728ZM103.17 308.798L102.05 308.997C102.003 308.853 101.928 308.717 101.826 308.587C101.727 308.458 101.592 308.352 101.421 308.269C101.25 308.186 101.036 308.145 100.78 308.145C100.43 308.145 100.138 308.223 99.9032 308.381C99.6688 308.535 99.5517 308.735 99.5517 308.98C99.5517 309.193 99.6302 309.363 99.7874 309.493C99.9445 309.623 100.198 309.729 100.548 309.812L101.557 310.043C102.142 310.178 102.577 310.386 102.864 310.668C103.151 310.949 103.294 311.314 103.294 311.763C103.294 312.144 103.184 312.483 102.963 312.781C102.746 313.076 102.441 313.307 102.05 313.476C101.661 313.644 101.21 313.728 100.697 313.728C99.9859 313.728 99.4056 313.576 98.9562 313.273C98.5068 312.967 98.2311 312.533 98.1291 311.97L99.3242 311.788C99.3987 312.1 99.5517 312.336 99.7833 312.495C100.015 312.653 100.317 312.731 100.689 312.731C101.094 312.731 101.418 312.647 101.661 312.479C101.903 312.308 102.025 312.1 102.025 311.854C102.025 311.656 101.95 311.489 101.801 311.354C101.655 311.219 101.431 311.117 101.127 311.048L100.052 310.812C99.4593 310.677 99.021 310.462 98.737 310.167C98.4558 309.872 98.3152 309.499 98.3152 309.046C98.3152 308.671 98.4199 308.343 98.6295 308.062C98.839 307.781 99.1285 307.562 99.4979 307.405C99.8673 307.245 100.291 307.165 100.768 307.165C101.454 307.165 101.994 307.314 102.389 307.611C102.783 307.906 103.043 308.302 103.17 308.798Z" fill="white"/>
<path d="M253.675 313.6L257 307.016V306.966H253.096V305.13H259.382V306.966L256.041 313.6H253.675Z" fill="white"/>
<g clip-path="url(#clip7_5521_111148)">
<path d="M26.9315 2.42773C20.2354 2.42773 14.8008 7.86231 14.8008 14.5585C14.8008 21.2547 20.2354 26.6892 26.9315 26.6892C33.6277 26.6892 39.0623 21.2547 39.0623 14.5585C39.0623 7.86231 33.6277 2.42773 26.9315 2.42773ZM24.5054 20.6239L18.44 14.5585L20.1504 12.8481L24.5054 17.1909L33.7126 7.98362L35.4231 9.70619L24.5054 20.6239Z" fill="#87BC45"/>
</g>
<path d="M466.932 107.5C429.672 107.5 399.5 137.74 399.5 175C399.5 212.26 429.672 242.5 466.932 242.5C504.26 242.5 534.5 212.26 534.5 175C534.5 137.74 504.26 107.5 466.932 107.5ZM494 202C493.376 202.626 492.634 203.122 491.817 203.461C491.001 203.8 490.125 203.974 489.241 203.974C488.357 203.974 487.482 203.8 486.665 203.461C485.849 203.122 485.107 202.626 484.482 202L462.275 179.793C461.637 179.167 461.13 178.422 460.782 177.599C460.435 176.777 460.254 175.893 460.25 175V148C460.25 144.287 463.287 141.25 467 141.25C470.713 141.25 473.75 144.287 473.75 148V172.232L494 192.482C496.632 195.115 496.632 199.368 494 202Z" fill="#4C4E52"/>
<defs>
<linearGradient id="paint0_linear_5521_111148" x1="-35.8756" y1="-79.1888" x2="175.447" y2="198.971" gradientUnits="userSpaceOnUse">
<stop stop-color="#96C6F2"/>
<stop offset="1" stop-color="#96C6F2" stop-opacity="0"/>
</linearGradient>
<clipPath id="clip0_5521_111148">
<rect width="66.7479" height="66.748" fill="white" transform="translate(131.449 128.125)"/>
</clipPath>
<clipPath id="clip1_5521_111148">
<rect width="66.7479" height="66.748" fill="white" transform="translate(164.822 147.195)"/>
</clipPath>
<clipPath id="clip2_5521_111148">
<rect width="66.7479" height="66.748" fill="white" transform="translate(231.57 185.34)"/>
</clipPath>
<clipPath id="clip3_5521_111148">
<rect width="66.7479" height="66.748" fill="white" transform="translate(130.771 88.623)"/>
</clipPath>
<clipPath id="clip4_5521_111148">
<rect width="66.7479" height="66.748" fill="white" transform="translate(164.145 107.693)"/>
</clipPath>
<clipPath id="clip5_5521_111148">
<rect width="66.7479" height="66.748" fill="white" transform="translate(197.521 126.764)"/>
</clipPath>
<clipPath id="clip6_5521_111148">
<rect width="66.7479" height="66.748" fill="white" transform="translate(230.893 145.836)"/>
</clipPath>
<clipPath id="clip7_5521_111148">
<rect width="29.1138" height="29.1138" fill="white" transform="translate(12.373)"/>
</clipPath>
</defs>
</svg>
